<svg width="451" height="187" viewBox="0 0 451 187" fill="none" xmlns="http://www.w3.org/2000/svg">
<rect x="37.1914" y="143.919" width="373.372" height="39.8902" fill="#333333"/>
<path d="M151.245 170V156.909H154.013V162.31H159.632V156.909H162.393V170H159.632V164.592H154.013V170H151.245ZM166.931 170H163.965L168.485 156.909H172.051L176.564 170H173.598L170.319 159.901H170.217L166.931 170ZM166.746 164.854H173.752V167.015H166.746V164.854ZM189.268 156.909V170H186.532V159.159H181.24V170H178.504V156.909H189.268ZM191.903 156.909H194.665V165.142H194.773L200.43 156.909H202.853V170H200.085V161.761H199.989L194.3 170H191.903V156.909ZM216.69 161.492H213.89C213.839 161.13 213.735 160.808 213.577 160.527C213.42 160.241 213.217 159.999 212.97 159.798C212.723 159.598 212.437 159.445 212.113 159.338C211.794 159.232 211.447 159.178 211.072 159.178C210.394 159.178 209.804 159.347 209.301 159.683C208.798 160.016 208.408 160.501 208.131 161.141C207.854 161.776 207.716 162.547 207.716 163.455C207.716 164.388 207.854 165.172 208.131 165.807C208.412 166.442 208.805 166.921 209.307 167.245C209.81 167.569 210.392 167.731 211.052 167.731C211.423 167.731 211.766 167.682 212.081 167.584C212.401 167.486 212.684 167.343 212.932 167.156C213.179 166.964 213.383 166.732 213.545 166.459C213.711 166.186 213.827 165.875 213.89 165.526L216.69 165.538C216.618 166.139 216.437 166.719 216.147 167.277C215.861 167.831 215.476 168.327 214.99 168.766C214.508 169.201 213.933 169.546 213.264 169.802C212.599 170.053 211.847 170.179 211.008 170.179C209.84 170.179 208.796 169.915 207.876 169.386C206.959 168.858 206.235 168.093 205.702 167.092C205.174 166.09 204.91 164.878 204.91 163.455C204.91 162.027 205.178 160.812 205.715 159.811C206.252 158.81 206.981 158.047 207.901 157.523C208.822 156.994 209.857 156.73 211.008 156.73C211.766 156.73 212.469 156.837 213.117 157.05C213.769 157.263 214.346 157.574 214.849 157.983C215.352 158.388 215.761 158.884 216.077 159.472C216.396 160.06 216.601 160.734 216.69 161.492ZM220.685 170H217.719L222.238 156.909H225.805L230.318 170H227.352L224.073 159.901H223.971L220.685 170ZM220.5 164.854H227.506V167.015H220.5V164.854ZM229.795 159.191V156.909H240.547V159.191H236.539V170H233.803V159.191H229.795ZM244.139 161.748H247.259C248.298 161.748 249.193 161.916 249.943 162.253C250.697 162.585 251.279 163.056 251.688 163.665C252.097 164.275 252.3 164.993 252.295 165.82C252.3 166.642 252.097 167.369 251.688 167.999C251.279 168.626 250.697 169.116 249.943 169.469C249.193 169.823 248.298 170 247.259 170H242.369V156.909H245.13V167.776H247.259C247.757 167.776 248.177 167.686 248.518 167.507C248.859 167.324 249.116 167.083 249.291 166.785C249.47 166.482 249.558 166.152 249.553 165.794C249.558 165.274 249.362 164.835 248.965 164.477C248.573 164.115 248.004 163.934 247.259 163.934H244.139V161.748ZM258.665 170V156.909H261.433V162.31H267.051V156.909H269.813V170H267.051V164.592H261.433V170H258.665ZM274.351 170H271.385L275.904 156.909H279.471L283.984 170H281.018L277.739 159.901H277.637L274.351 170ZM274.166 164.854H281.172V167.015H274.166V164.854ZM285.56 156.909H288.973L292.578 165.705H292.732L296.337 156.909H299.75V170H297.065V161.479H296.957L293.569 169.936H291.741L288.353 161.447H288.244V170H285.56V156.909Z" fill="white"/>
<path fill-rule="evenodd" clip-rule="evenodd" d="M34 95.9257L159.129 96.0682L158.164 99.9346L38.2901 99.7921V183.134H408.957V99.7921L296.868 99.7619L295.044 95.8955L413.247 95.9257V187H34V95.9257Z" fill="#FF781F"/>
<path fill-rule="evenodd" clip-rule="evenodd" d="M169.782 76.8957L193.286 79.5614V99.8834H187.979V81.366L186.533 81.204V99.8832H184.704V80.9988L183.258 80.837V99.8832H181.61V80.6522L180.165 80.49V99.8832H178.463V80.2997L177.017 80.1373V99.8832H175.38V79.9538L173.934 79.792V99.8832H169.781V76.8955L169.782 76.8957ZM275.908 76.6029V99.8834H274.462V75.8351L275.908 76.6031V76.6029ZM272.503 75.1556V99.8834H271.058V74.3739L272.503 75.1556ZM269.008 73.5229V99.8834H267.562V72.7252L269.008 73.5229ZM265.712 71.8579V99.8834H264.266V71.0436L265.712 71.8579ZM234.454 99.8834V62.9955L234.452 62.994V14.1223L235.898 15.568V46.7017L240.979 44.5308V19.0805L242.425 20.526V43.9131L246.134 42.3286L245.863 66.5405L250.094 65.937V46.3878L251.54 47.8331V65.7309L253.82 65.4058V48.9252L255.265 50.3707V65.1995L256.805 64.9803V99.8837H234.454L234.454 99.8834ZM260.904 99.8834V69.5849L262.349 70.4125V99.8834H260.904ZM264.174 55.8369L264.214 68.7179L265.662 69.4418L265.62 56.9982L264.174 55.8369ZM260.829 53.6579L260.87 67.0464L262.319 67.7709L262.275 54.8361L260.829 53.6579ZM257.417 51.4684L257.456 65.3074L258.904 66.0373L258.863 52.8075L257.417 51.4684H257.417ZM237.728 16.5856V45.9202L239.173 45.3023V18.0311L237.728 16.5856ZM228.089 9.24688V58.1184L229.535 59.4304V10.6924L228.089 9.24688ZM231.246 11.8758V99.8835H232.692V13.2031L231.246 11.8758ZM223.664 0L212.539 11.9257V49.8887L195.459 51.9278V99.8835H199.367V53.5756L200.813 53.2819V99.8837H202.772V53.2446L204.218 52.9373V99.8837H206.267V52.7582L207.713 52.4347V99.8837H209.563V52.1736L211.009 51.8336V99.8837H212.926V51.832L214.372 51.478V99.8839H218.281V50.1761L223.486 53.8828L223.664 0.000183882V0Z" fill="#FF781F"/>
<path d="M53.0822 133.505V113.964C53.0822 113.536 53.2305 113.183 53.5321 112.899C53.8342 112.616 54.2099 112.477 54.6655 112.477H73.4575C73.8907 112.477 74.261 112.621 74.5685 112.915C74.876 113.204 75.0299 113.557 75.0299 113.964V115.44C75.0299 115.847 74.8817 116.194 74.5854 116.478C74.289 116.767 73.9246 116.911 73.4916 116.911H59.3706V120.704H67.6189C70.3189 120.704 72.5117 121.303 74.1924 122.496C75.8728 123.694 76.7099 125.47 76.7099 127.824C76.7099 130.183 75.8728 131.959 74.1924 133.158C72.5117 134.35 70.3189 134.95 67.6189 134.95H54.5858C54.1587 134.95 53.8056 134.811 53.5152 134.532C53.2244 134.26 53.082 133.917 53.082 133.505L53.0822 133.505ZM59.371 130.515H67.6193C69.4877 130.515 70.4218 129.616 70.4218 127.819C70.4218 126.022 69.4879 125.123 67.6193 125.123H59.371V130.515V130.515ZM84.6739 130.232L87.4765 130.515H87.824C90.0396 130.515 91.5549 129.156 92.364 126.439H90.9283C88.1259 126.439 85.9385 125.904 84.3722 124.834C82.8057 123.764 81.4556 122.02 80.3335 119.607L77.7132 113.964C77.5252 113.546 77.5196 113.193 77.7017 112.904C77.8896 112.621 78.1974 112.476 78.6301 112.476H82.1507C83.2215 112.476 83.962 112.953 84.3722 113.899L86.2916 118.259C86.8556 119.522 87.5675 120.463 88.4278 121.089C89.2822 121.71 90.4101 122.02 91.8171 122.02H93.8677L96.8868 113.931C97.0463 113.482 97.3139 113.129 97.7071 112.867C98.0943 112.605 98.5158 112.476 98.9715 112.476H102.343C102.776 112.476 103.078 112.589 103.243 112.814C103.415 113.038 103.494 113.236 103.494 113.407C103.494 113.578 103.466 113.744 103.414 113.899L97.9745 128.525C97.2171 130.585 96.0777 132.168 94.551 133.281C93.0242 134.394 90.8941 134.95 88.16 134.95H84.1382C83.7053 134.95 83.3294 134.805 83.0219 134.517C82.7087 134.233 82.5546 133.885 82.5546 133.479V131.708C82.5546 131.296 82.7028 130.948 83.0045 130.665C83.301 130.376 83.6823 130.231 84.1382 130.231H84.6739V130.232ZM102.343 133.479V131.97C102.343 131.564 102.497 131.221 102.805 130.938C103.107 130.654 103.477 130.515 103.91 130.515H105.214L108.319 118.65C109.395 114.536 113.012 112.477 119.165 112.477H128.176C128.609 112.477 128.98 112.616 129.287 112.899C129.595 113.183 129.748 113.525 129.748 113.932V133.505C129.748 133.917 129.595 134.26 129.287 134.533C128.979 134.811 128.609 134.95 128.176 134.95H103.91C103.477 134.95 103.107 134.805 102.805 134.517C102.497 134.233 102.343 133.885 102.343 133.479ZM111.64 130.515H123.471V116.911H118.481C117.422 116.911 116.55 117.184 115.861 117.724C115.172 118.27 114.699 119.024 114.442 119.998L111.64 130.515ZM134.533 133.447V113.932C134.533 113.525 134.687 113.183 135 112.899C135.313 112.616 135.684 112.477 136.117 112.477H155.359C155.792 112.477 156.162 112.621 156.469 112.915C156.777 113.204 156.931 113.557 156.931 113.964V115.44C156.931 115.847 156.777 116.194 156.469 116.478C156.162 116.767 155.792 116.911 155.359 116.911H140.822V121.469H153.342C153.775 121.469 154.145 121.614 154.453 121.902C154.755 122.191 154.908 122.539 154.908 122.946V124.417C154.908 124.823 154.755 125.171 154.453 125.46C154.145 125.749 153.775 125.893 153.342 125.893H140.822V130.515H155.324C155.752 130.515 156.11 130.654 156.412 130.938C156.709 131.221 156.862 131.564 156.862 131.971V133.479C156.862 133.886 156.709 134.233 156.395 134.517C156.082 134.806 155.712 134.95 155.279 134.95H136.116C135.683 134.95 135.313 134.806 135 134.517C134.687 134.233 134.533 133.875 134.533 133.447H134.533ZM160.001 133.447V113.996C160.001 113.568 160.149 113.204 160.451 112.915C160.753 112.621 161.118 112.477 161.551 112.477H168.346C168.779 112.477 169.189 112.621 169.582 112.915C169.969 113.204 170.231 113.557 170.363 113.964L175.29 127.348L180.211 113.964C180.342 113.557 180.604 113.204 180.997 112.915C181.385 112.621 181.795 112.477 182.228 112.477H189.023C189.456 112.477 189.821 112.621 190.117 112.915C190.408 113.204 190.556 113.568 190.556 113.996V133.447C190.556 133.875 190.402 134.233 190.1 134.517C189.792 134.806 189.422 134.95 188.989 134.95H185.982C185.549 134.95 185.178 134.806 184.877 134.517C184.569 134.233 184.415 133.875 184.415 133.447V118.131L178.525 133.538C178.372 133.928 178.098 134.26 177.705 134.533C177.318 134.811 176.908 134.95 176.475 134.95H174.088C173.649 134.95 173.245 134.811 172.857 134.533C172.476 134.26 172.202 133.928 172.031 133.538L166.159 118.131V133.447C166.159 133.875 166.005 134.233 165.697 134.517C165.395 134.806 165.025 134.95 164.592 134.95H161.585C161.152 134.95 160.781 134.806 160.468 134.517C160.155 134.233 160.001 133.875 160.001 133.447ZM209.04 132.302C206.978 130.451 205.947 127.589 205.947 123.721C205.947 119.848 206.978 116.986 209.04 115.13C211.102 113.279 214.201 112.348 218.331 112.348H222.051C224.574 112.348 226.807 112.969 228.749 114.199C230.692 115.435 231.66 117.12 231.66 119.26C231.66 119.88 231.466 120.319 231.079 120.587C230.686 120.854 230.31 120.988 229.946 120.988H227.958C226.932 120.988 226.14 120.41 225.571 119.26C224.751 117.612 223.378 116.783 221.464 116.783H218.496C216.058 116.783 214.406 117.275 213.541 118.26C212.669 119.239 212.236 121.057 212.236 123.711C212.236 126.364 212.669 128.188 213.541 129.173C214.406 130.162 216.058 130.654 218.496 130.654H221.817C223.731 130.654 225.092 129.831 225.907 128.178C226.471 127.022 227.274 126.439 228.305 126.439H230.293C230.817 126.439 231.233 126.621 231.535 126.99C231.842 127.354 231.996 127.75 231.996 128.178C231.996 130.323 231.028 132.008 229.091 133.233C227.154 134.463 224.927 135.073 222.398 135.073H218.331C214.201 135.073 211.102 134.153 209.04 132.302L209.04 132.302ZM232.845 115.44V113.964C232.845 113.536 232.993 113.183 233.295 112.899C233.591 112.616 233.973 112.477 234.429 112.477H255.607C256.063 112.477 256.439 112.616 256.741 112.899C257.043 113.183 257.191 113.536 257.191 113.964V115.44C257.191 115.868 257.043 116.221 256.741 116.494C256.439 116.772 256.063 116.911 255.607 116.911H248.162V133.505C248.162 133.917 248.009 134.26 247.707 134.533C247.399 134.811 247.029 134.95 246.596 134.95H243.44C243.007 134.95 242.637 134.811 242.329 134.533C242.022 134.26 241.874 133.917 241.874 133.505V116.911H234.429C233.973 116.911 233.591 116.772 233.295 116.494C232.993 116.221 232.845 115.868 232.845 115.44H232.845ZM259.914 133.479V113.964C259.914 113.557 260.062 113.204 260.363 112.915C260.666 112.621 261.03 112.477 261.463 112.477H274.2C280.927 112.477 284.294 115.387 284.294 121.212C284.294 127.038 280.928 129.948 274.2 129.948H266.202V133.479C266.202 133.886 266.054 134.234 265.747 134.517C265.439 134.806 265.069 134.95 264.636 134.95H261.497C261.064 134.95 260.694 134.806 260.381 134.517C260.067 134.234 259.914 133.886 259.914 133.479L259.914 133.479ZM266.202 125.513H272.298C274.166 125.513 275.584 125.219 276.553 124.631C277.521 124.037 278.005 122.903 278.005 121.212C278.005 119.527 277.521 118.388 276.553 117.794C275.584 117.206 274.165 116.912 272.298 116.912H266.202V125.514V125.513ZM309.448 132.623C307.176 134.501 303.838 135.437 299.44 135.437C295.037 135.437 291.699 134.501 289.415 132.623C287.136 130.745 285.997 127.776 285.997 123.711C285.997 119.65 287.136 116.681 289.415 114.809C291.699 112.942 295.037 112.006 299.44 112.006C303.838 112.006 307.176 112.942 309.448 114.809C311.727 116.681 312.866 119.65 312.866 123.711C312.866 127.776 311.727 130.745 309.448 132.623ZM304.886 118.115C303.763 116.863 301.946 116.237 299.44 116.237C296.928 116.237 295.111 116.863 293.983 118.115C292.85 119.372 292.286 121.239 292.286 123.721C292.286 126.203 292.85 128.065 293.983 129.317C295.111 130.563 296.928 131.189 299.44 131.189C301.947 131.189 303.763 130.563 304.886 129.317C306.008 128.065 306.572 126.203 306.572 123.721C306.572 121.239 306.008 119.372 304.886 118.115ZM316.284 133.479V113.964C316.284 113.536 316.432 113.183 316.734 112.899C317.036 112.616 317.412 112.477 317.867 112.477H320.807C321.24 112.477 321.61 112.616 321.918 112.899C322.22 113.183 322.373 113.525 322.373 113.932V129.622L331.869 113.964C332.125 113.557 332.478 113.204 332.923 112.915C333.367 112.621 333.777 112.477 334.159 112.477H339.08C339.513 112.477 339.884 112.621 340.18 112.915C340.482 113.204 340.63 113.558 340.63 113.964V133.479C340.63 133.886 340.476 134.233 340.163 134.517C339.855 134.806 339.479 134.95 339.046 134.95H336.107C335.674 134.95 335.303 134.806 335.002 134.517C334.694 134.233 334.54 133.885 334.54 133.479V118.934L325.831 133.479C325.574 133.886 325.21 134.233 324.743 134.517C324.276 134.806 323.826 134.95 323.393 134.95H317.867C317.434 134.95 317.064 134.806 316.751 134.517C316.438 134.233 316.284 133.885 316.284 133.479L316.284 133.479ZM343.353 115.44V113.964C343.353 113.536 343.5 113.183 343.802 112.899C344.098 112.616 344.48 112.477 344.936 112.477H366.114C366.57 112.477 366.946 112.616 367.248 112.899C367.55 113.183 367.698 113.536 367.698 113.964V115.44C367.698 115.868 367.55 116.221 367.248 116.494C366.946 116.772 366.57 116.911 366.114 116.911H358.669V133.505C358.669 133.917 358.516 134.26 358.214 134.532C357.906 134.811 357.536 134.95 357.103 134.95H353.948C353.514 134.95 353.144 134.811 352.837 134.532C352.529 134.26 352.381 133.917 352.381 133.505V116.911H344.936C344.48 116.911 344.098 116.772 343.803 116.494C343.501 116.221 343.353 115.868 343.353 115.44H343.353ZM370.421 133.447V113.964C370.421 113.536 370.569 113.183 370.871 112.899C371.173 112.616 371.549 112.477 372.004 112.477H375.143C375.576 112.477 375.947 112.621 376.254 112.915C376.562 113.204 376.71 113.557 376.71 113.964V120.121H384.958C387.584 120.121 389.754 120.779 391.474 122.084C393.195 123.39 394.049 125.208 394.049 127.536C394.049 129.868 393.189 131.687 391.463 132.992C389.743 134.297 387.572 134.95 384.958 134.95H371.925C371.51 134.95 371.156 134.8 370.866 134.506C370.569 134.206 370.421 133.853 370.421 133.447ZM376.71 130.515H384.958C386.826 130.515 387.761 129.52 387.761 127.53C387.761 125.54 386.826 124.545 384.958 124.545H376.71V130.515Z" fill="#FF781F"/>
<path fill-rule="evenodd" clip-rule="evenodd" d="M247.835 18.1801C283.593 26.7633 311.091 55.9106 316.485 92.0804H313.174C307.849 57.6862 281.778 29.9549 247.835 21.4829V18.1801ZM208.846 20.4376C172.605 27.4123 144.327 56.0983 138.756 92.0802H135.445C141.075 54.3238 170.791 24.2164 208.846 17.1675V20.4376H208.846Z" fill="#FF781F"/>
</svg>
