<svg width="269" height="62" viewBox="0 0 269 62" fill="none" xmlns="http://www.w3.org/2000/svg">
<path fill-rule="evenodd" clip-rule="evenodd" d="M0 0.020306L185.217 0.116341L186.452 2.60449L3.043 2.62479V58.7654H265.957V2.62479L186.452 2.60449L185.159 0L269 0.020306V61.3699H0V0.020306Z" fill="#FF781F"/>
<path d="M13.5353 25.3346V12.1709C13.5353 11.8826 13.6404 11.6447 13.8544 11.4538C14.0687 11.2628 14.3352 11.1692 14.6583 11.1692H27.9875C28.2948 11.1692 28.5574 11.2665 28.7755 11.4646C28.9936 11.6592 29.1028 11.8971 29.1028 12.1709V13.1653C29.1028 13.4393 28.9976 13.6734 28.7875 13.8644C28.5773 14.0591 28.3188 14.1564 28.0117 14.1564H17.9956V16.7113H23.8462C25.7613 16.7113 27.3167 17.1149 28.5087 17.9184C29.7007 18.7256 30.2944 19.9219 30.2944 21.5075C30.2944 23.0966 29.7007 24.293 28.5087 25.1002C27.3167 25.9038 25.7613 26.3074 23.8462 26.3074H14.6018C14.2988 26.3074 14.0484 26.2137 13.8424 26.0263C13.6361 25.8425 13.5352 25.6118 13.5352 25.3343L13.5353 25.3346ZM17.9959 23.3203H23.8464C25.1717 23.3203 25.8342 22.7149 25.8342 21.5041C25.8342 20.2933 25.1718 19.6879 23.8464 19.6879H17.9959V23.3201V23.3203ZM35.9433 23.1293L37.9312 23.3203H38.1777C39.7492 23.3203 40.824 22.4049 41.3979 20.5744H40.3796C38.3918 20.5744 36.8403 20.2139 35.7293 19.4933C34.6182 18.7725 33.6605 17.5977 32.8647 15.9726L31.006 12.1709C30.8727 11.8898 30.8687 11.6519 30.9979 11.4573C31.1312 11.2664 31.3495 11.1691 31.6564 11.1691H34.1536C34.9131 11.1691 35.4383 11.4897 35.7293 12.1276L37.0907 15.0646C37.4908 15.9149 37.9957 16.5492 38.6059 16.9707C39.212 17.3887 40.012 17.5977 41.0099 17.5977H42.4645L44.6059 12.1491C44.719 11.8465 44.9089 11.6086 45.1878 11.4321C45.4624 11.2555 45.7614 11.1691 46.0846 11.1691H48.4763C48.7834 11.1691 48.9976 11.2446 49.1147 11.3961C49.236 11.5474 49.2925 11.6807 49.2925 11.796C49.2925 11.9112 49.2724 12.0229 49.2359 12.1274L45.3774 21.9796C44.8402 23.3671 44.032 24.4336 42.9491 25.1833C41.8662 25.9329 40.3553 26.3076 38.416 26.3076H35.5634C35.2563 26.3076 34.9896 26.2103 34.7715 26.0157C34.5494 25.8248 34.4401 25.5904 34.4401 25.3167V24.1238C34.4401 23.8464 34.5452 23.612 34.7592 23.4211C34.9695 23.2265 35.2399 23.1292 35.5634 23.1292H35.9433V23.1293ZM48.4763 25.3167V24.3005C48.4763 24.0265 48.5855 23.7961 48.8036 23.6049C49.0177 23.4139 49.2805 23.3203 49.5875 23.3203H50.5126L52.7147 15.3276C53.4782 12.5564 56.0439 11.1692 60.4075 11.1692H66.7996C67.1065 11.1692 67.3693 11.2628 67.5874 11.4538C67.8056 11.6447 67.9147 11.8754 67.9147 12.1493V25.3346C67.9147 25.6121 67.8056 25.8428 67.5874 26.0266C67.3692 26.214 67.1064 26.3076 66.7996 26.3076H49.5875C49.2804 26.3076 49.0176 26.2103 48.8036 26.0157C48.5855 25.8248 48.4763 25.5904 48.4763 25.3167ZM55.0704 23.3203H63.4622V14.1566H59.9228C59.1713 14.1566 58.553 14.3403 58.0643 14.7041C57.5754 15.0718 57.24 15.5799 57.0582 16.2356L55.0704 23.3203ZM71.3084 25.2951V12.1493C71.3084 11.8754 71.4174 11.6449 71.6397 11.4538C71.8618 11.2628 72.1246 11.1692 72.4317 11.1692H86.08C86.3871 11.1692 86.6497 11.2665 86.8679 11.4646C87.0862 11.6592 87.1951 11.8971 87.1951 12.1709V13.1653C87.1951 13.4393 87.0862 13.6734 86.8679 13.8644C86.6496 14.0591 86.3871 14.1564 86.08 14.1564H75.7689V17.2267H84.6497C84.9566 17.2267 85.2194 17.324 85.4375 17.5186C85.6516 17.7132 85.7606 17.9474 85.7606 18.2213V19.2122C85.7606 19.4862 85.6516 19.7203 85.4375 19.9149C85.2192 20.1095 84.9565 20.207 84.6497 20.207H75.7689V23.3204H86.0557C86.3588 23.3204 86.6133 23.4141 86.8274 23.605C87.0375 23.7961 87.1465 24.0266 87.1465 24.3006V25.3168C87.1465 25.5907 87.0375 25.8249 86.8152 26.0159C86.5931 26.2105 86.3305 26.3078 86.0234 26.3078H72.4315C72.1244 26.3078 71.8617 26.2105 71.6395 26.0159C71.4174 25.8249 71.3083 25.5834 71.3083 25.2951H71.3084ZM89.3729 25.2951V12.1926C89.3729 11.9043 89.478 11.6592 89.692 11.4646C89.9063 11.2665 90.1649 11.1692 90.472 11.1692H95.2922C95.5992 11.1692 95.8901 11.2665 96.1687 11.4646C96.4435 11.6592 96.6293 11.8971 96.7223 12.1709L100.217 21.1869L103.708 12.1709C103.801 11.897 103.987 11.6591 104.266 11.4646C104.54 11.2665 104.831 11.1692 105.138 11.1692H109.958C110.265 11.1692 110.524 11.2665 110.734 11.4646C110.94 11.6592 111.045 11.9043 111.045 12.1926V25.2951C111.045 25.5834 110.936 25.8249 110.722 26.0159C110.504 26.2105 110.241 26.3078 109.934 26.3078H107.801C107.494 26.3078 107.231 26.2105 107.017 26.0159C106.799 25.8249 106.69 25.5834 106.69 25.2951V14.9781L102.512 25.3563C102.403 25.6195 102.209 25.843 101.93 26.0267C101.656 26.2141 101.365 26.3078 101.058 26.3078H99.3648C99.0535 26.3078 98.7669 26.2141 98.492 26.0267C98.2213 25.843 98.0274 25.6195 97.9061 25.3563L93.7405 14.9781V25.2951C93.7405 25.5834 93.6314 25.8249 93.4133 26.0159C93.1991 26.2105 92.9364 26.3078 92.6294 26.3078H90.4962C90.1891 26.3078 89.9264 26.2105 89.7043 26.0159C89.4822 25.8249 89.3729 25.5834 89.3729 25.2951ZM124.157 24.5239C122.694 23.2771 121.963 21.3491 121.963 18.7439C121.963 16.1349 122.694 14.207 124.157 12.9565C125.619 11.7096 127.817 11.0828 130.746 11.0828H133.385C135.175 11.0828 136.758 11.5007 138.136 12.3295C139.514 13.1619 140.201 14.2972 140.201 15.7385C140.201 16.1565 140.063 16.4521 139.789 16.6322C139.51 16.8125 139.243 16.9025 138.985 16.9025H137.575C136.847 16.9025 136.286 16.5133 135.882 15.7385C135.3 14.6287 134.326 14.07 132.969 14.07H130.863C129.134 14.07 127.962 14.4015 127.348 15.0647C126.73 15.7241 126.423 16.9493 126.423 18.7367C126.423 20.524 126.73 21.7528 127.348 22.4159C127.963 23.0825 129.134 23.4141 130.863 23.4141H133.219C134.577 23.4141 135.542 22.8591 136.12 21.7457C136.52 20.9672 137.09 20.5745 137.821 20.5745H139.231C139.603 20.5745 139.898 20.697 140.112 20.9456C140.33 21.1907 140.439 21.4574 140.439 21.7458C140.439 23.1907 139.752 24.3257 138.378 25.151C137.005 25.9798 135.425 26.3907 133.631 26.3907H130.746C127.817 26.3907 125.619 25.7709 124.156 24.524L124.157 24.5239ZM141.041 13.1655V12.171C141.041 11.8828 141.146 11.6449 141.36 11.4539C141.57 11.263 141.841 11.1693 142.164 11.1693H157.186C157.51 11.1693 157.776 11.263 157.991 11.4539C158.205 11.6449 158.31 11.8828 158.31 12.171V13.1655C158.31 13.4537 158.205 13.6916 157.991 13.8754C157.776 14.0628 157.51 14.1566 157.186 14.1566H151.906V25.3346C151.906 25.6121 151.797 25.8428 151.583 26.0266C151.364 26.214 151.102 26.3076 150.795 26.3076H148.556C148.249 26.3076 147.986 26.214 147.768 26.0266C147.55 25.8428 147.445 25.6121 147.445 25.3346V14.1566H142.165C141.841 14.1566 141.571 14.0628 141.36 13.8754C141.146 13.6916 141.041 13.4537 141.041 13.1655H141.041ZM160.241 25.3168V12.171C160.241 11.8971 160.346 11.6592 160.56 11.4648C160.774 11.2667 161.033 11.1693 161.34 11.1693H170.374C175.146 11.1693 177.534 13.1297 177.534 17.0538C177.534 20.9781 175.146 22.9385 170.374 22.9385H164.701V25.317C164.701 25.5908 164.596 25.8251 164.378 26.016C164.16 26.2106 163.898 26.3079 163.59 26.3079H161.364C161.057 26.3079 160.794 26.2106 160.572 26.016C160.35 25.8251 160.241 25.5907 160.241 25.317L160.241 25.3168ZM164.701 19.951H169.025C170.35 19.951 171.356 19.7529 172.043 19.3565C172.73 18.9566 173.073 18.1925 173.073 17.0538C173.073 15.9187 172.73 15.1512 172.043 14.7512C171.356 14.3548 170.35 14.1567 169.025 14.1567H164.701V19.9512V19.951ZM195.376 24.7401C193.764 26.005 191.396 26.6356 188.277 26.6356C185.154 26.6356 182.786 26.005 181.166 24.7401C179.55 23.4753 178.742 21.4753 178.742 18.7366C178.742 16.0015 179.55 14.0014 181.166 12.7402C182.786 11.4827 185.154 10.8521 188.277 10.8521C191.396 10.8521 193.764 11.4827 195.376 12.7402C196.992 14.0014 197.8 16.0015 197.8 18.7366C197.8 21.4752 196.992 23.4753 195.376 24.7401ZM192.14 14.9673C191.344 14.124 190.055 13.7023 188.277 13.7023C186.495 13.7023 185.207 14.124 184.406 14.9673C183.603 15.814 183.203 17.0717 183.203 18.7438C183.203 20.4157 183.603 21.6698 184.406 22.5131C185.207 23.3527 186.495 23.7744 188.277 23.7744C190.055 23.7744 191.344 23.3527 192.14 22.5131C192.936 21.6698 193.336 20.4157 193.336 18.7438C193.336 17.0717 192.936 15.814 192.14 14.9673ZM200.224 25.3167V12.1709C200.224 11.8826 200.329 11.6447 200.543 11.4538C200.758 11.2628 201.024 11.1692 201.348 11.1692H203.433C203.74 11.1692 204.002 11.2628 204.22 11.4538C204.435 11.6447 204.544 11.8754 204.544 12.1493V22.7185L211.279 12.171C211.461 11.8971 211.711 11.6592 212.027 11.4648C212.341 11.2667 212.632 11.1693 212.903 11.1693H216.394C216.701 11.1693 216.964 11.2667 217.174 11.4648C217.388 11.6594 217.493 11.8973 217.493 12.171V25.3168C217.493 25.5907 217.384 25.8249 217.162 26.0159C216.943 26.2105 216.677 26.3078 216.37 26.3078H214.285C213.978 26.3078 213.715 26.2105 213.501 26.0159C213.283 25.8249 213.174 25.5905 213.174 25.3168V15.5187L206.996 25.3168C206.814 25.5907 206.556 25.8249 206.224 26.0159C205.893 26.2105 205.574 26.3078 205.267 26.3078H201.347C201.04 26.3078 200.778 26.2105 200.556 26.0159C200.333 25.8249 200.224 25.5905 200.224 25.3168L200.224 25.3167ZM219.424 13.1653V12.1709C219.424 11.8826 219.529 11.6447 219.743 11.4538C219.953 11.2628 220.224 11.1692 220.547 11.1692H235.569C235.893 11.1692 236.159 11.2628 236.373 11.4538C236.588 11.6447 236.693 11.8826 236.693 12.1709V13.1653C236.693 13.4536 236.587 13.6915 236.373 13.8752C236.159 14.0626 235.893 14.1564 235.569 14.1564H230.289V25.3345C230.289 25.612 230.18 25.8427 229.965 26.0264C229.747 26.2138 229.485 26.3075 229.178 26.3075H226.939C226.632 26.3075 226.369 26.2138 226.151 26.0264C225.933 25.8427 225.828 25.612 225.828 25.3345V14.1564H220.547C220.224 14.1564 219.953 14.0626 219.744 13.8752C219.529 13.6915 219.424 13.4536 219.424 13.1653H219.424ZM238.624 25.295V12.1709C238.624 11.8826 238.729 11.6447 238.943 11.4538C239.157 11.2628 239.424 11.1692 239.747 11.1692H241.973C242.28 11.1692 242.543 11.2665 242.761 11.4646C242.979 11.6592 243.085 11.8971 243.085 12.1709V16.3185H248.935C250.797 16.3185 252.337 16.7618 253.557 17.6411C254.778 18.5204 255.383 19.7456 255.383 21.3131C255.383 22.8842 254.773 24.1094 253.549 24.9888C252.329 25.8681 250.789 26.3076 248.935 26.3076H239.691C239.396 26.3076 239.146 26.2068 238.939 26.0085C238.729 25.8067 238.624 25.5688 238.624 25.295ZM243.085 23.3201H248.935C250.26 23.3201 250.923 22.65 250.923 21.3095C250.923 19.969 250.26 19.2985 248.935 19.2985H243.085V23.3201Z" fill="white" fill-opacity="0.72"/>
<path d="M16.2057 45.2834H17.4676C19.1499 45.2834 19.9913 44.7907 19.9913 43.8055C19.9913 43.4975 19.9198 43.2445 19.7773 43.0467C19.6348 42.8487 19.4486 42.6949 19.2177 42.5849C18.9872 42.4747 18.7193 42.3979 18.4138 42.3539C18.1086 42.3099 17.7864 42.2879 17.4473 42.2879C17.2437 42.2879 17.0367 42.2922 16.8264 42.301C16.6161 42.3099 16.4093 42.323 16.2057 42.3408V45.2834ZM16.2057 46.2335V49.5323C16.4635 49.5587 16.7178 49.5807 16.9689 49.5983C17.2199 49.6161 17.4676 49.6247 17.7118 49.6247C18.0919 49.6247 18.4512 49.5983 18.7906 49.5456C19.1297 49.4927 19.425 49.4048 19.676 49.2816C19.9271 49.1583 20.1236 48.9891 20.2661 48.7735C20.4086 48.558 20.4797 48.2919 20.4797 47.9752C20.4797 47.4299 20.2526 47.0031 19.7979 46.6952C19.3433 46.3873 18.6345 46.2333 17.6712 46.2333H16.2058L16.2057 46.2335ZM14.374 41.5226C14.849 41.4522 15.334 41.3972 15.8292 41.3577C16.3243 41.3179 16.8163 41.2983 17.3045 41.2983C17.915 41.2983 18.4952 41.3356 19.0446 41.4105C19.594 41.4853 20.0792 41.613 20.4998 41.7932C20.9206 41.9735 21.2562 42.211 21.5072 42.5058C21.7583 42.8003 21.8837 43.1677 21.8837 43.6075C21.8837 44.153 21.7074 44.5995 21.3545 44.9469C21.0019 45.2944 20.5474 45.5518 19.9913 45.7189C20.683 45.8949 21.2529 46.1631 21.7007 46.524C22.1483 46.8845 22.3722 47.3816 22.3722 48.015C22.3722 48.4901 22.2536 48.8904 22.0163 49.2159C21.7786 49.5414 21.4429 49.8074 21.0087 50.0142C20.5745 50.2209 20.0555 50.3705 19.452 50.4629C18.8481 50.5553 18.1868 50.6014 17.4677 50.6014C16.9928 50.6014 16.4975 50.5839 15.9819 50.5485C15.4666 50.5134 14.9305 50.4605 14.3742 50.3901V41.5227L14.374 41.5226ZM29.5158 50.7331C27.8604 50.7331 26.5918 50.3329 25.7098 49.5323C24.8278 48.7319 24.387 47.4959 24.387 45.8244C24.387 44.9711 24.5126 44.2497 24.7636 43.6603C25.0147 43.0708 25.3637 42.5915 25.8117 42.222C26.2595 41.8526 26.7886 41.5864 27.3993 41.4237C28.0098 41.261 28.6745 41.1796 29.3936 41.1796C29.9904 41.1796 30.547 41.2301 31.0623 41.3313C31.5778 41.4325 31.9985 41.5577 32.3242 41.7073L31.7748 42.697C31.4493 42.5562 31.0998 42.4419 30.7265 42.3539C30.3536 42.2659 29.9227 42.222 29.4344 42.222C28.3487 42.222 27.5619 42.5145 27.0735 43.0996C26.5849 43.6844 26.3408 44.5928 26.3408 45.8245C26.3408 47.0648 26.5985 48.0193 27.1141 48.688C27.6296 49.3566 28.4709 49.6908 29.6377 49.6908C30.194 49.6908 30.6451 49.6468 30.9911 49.559C31.337 49.471 31.6728 49.3568 31.9984 49.2159L32.5073 50.1527C32.1952 50.3112 31.7849 50.4475 31.2761 50.5618C30.7672 50.6761 30.1804 50.7332 29.5158 50.7332V50.7331ZM34.5222 50.5353V41.3907H40.8517V42.4068H36.3539V45.2438H40.4244V46.2335H36.3539V49.5192H41.1774V50.5353H34.5222ZM35.9875 40.4009C35.6756 40.4009 35.4077 40.3328 35.1837 40.1964C34.96 40.0599 34.8479 39.8774 34.8479 39.6488C34.8479 39.42 34.96 39.2375 35.1837 39.1013C35.4077 38.9649 35.6756 38.8966 35.9875 38.8966C36.2998 38.8966 36.5679 38.9649 36.7913 39.1013C37.0152 39.2376 37.1273 39.42 37.1273 39.6488C37.1273 39.8776 37.0152 40.0599 36.7913 40.1964C36.5677 40.3328 36.2996 40.4009 35.9875 40.4009ZM39.366 40.4009C39.0539 40.4009 38.7861 40.3328 38.5622 40.1964C38.3383 40.0599 38.2264 39.8774 38.2264 39.6488C38.2264 39.42 38.3383 39.2375 38.5622 39.1013C38.7861 38.9649 39.054 38.8966 39.366 38.8966C39.6779 38.8966 39.9458 38.9649 40.1698 39.1013C40.3937 39.2376 40.5056 39.42 40.5056 39.6488C40.5056 39.8776 40.3937 40.0599 40.1698 40.1964C39.9458 40.3328 39.6779 40.4009 39.366 40.4009ZM55.525 52.9764V50.5353H47.9135V52.9764H46.1632V49.5323H47.4048C47.8254 49.0925 48.1679 48.6086 48.4323 48.0808C48.697 47.5528 48.904 46.9811 49.0532 46.3652C49.2022 45.7495 49.3007 45.0875 49.3484 44.3792C49.3957 43.6711 49.4195 42.9079 49.4195 42.0899V41.3904H55.9321V49.532H57.2751V52.9762H55.5249L55.525 52.9764ZM51.2511 42.4066C51.2511 43.8318 51.1325 45.1404 50.8951 46.3323C50.6575 47.5243 50.1793 48.5912 49.4602 49.5323H54.1006V42.4068H51.2511V42.4066ZM68.4075 41.3906V50.5351H66.5757V42.3932H63.6246V42.9871C63.6246 43.4358 63.6147 43.8931 63.5942 44.3594C63.5739 44.8257 63.533 45.2896 63.472 45.7514C63.4109 46.2134 63.3228 46.6685 63.2073 47.1172C63.0921 47.566 62.9462 47.9925 62.7699 48.3973C62.4442 49.1451 61.9457 49.7103 61.274 50.093C60.6024 50.4756 59.7511 50.667 58.7199 50.667L58.5366 49.6509C59.1201 49.5894 59.6154 49.4531 60.0223 49.242C60.4292 49.0309 60.7686 48.6614 61.0398 48.1334C61.2299 47.7639 61.3791 47.3681 61.4877 46.9457C61.5962 46.5237 61.6742 46.0903 61.7218 45.6461C61.7694 45.2019 61.7998 44.7532 61.8134 44.3002C61.8268 43.8471 61.8336 43.4095 61.8336 42.9872V41.3906H68.4073H68.4075ZM78.8681 50.5351H77.0771V46.9723H76.5683C76.3374 46.9723 76.107 46.968 75.8764 46.9591C75.6458 46.9503 75.4217 46.9371 75.2048 46.9197C75.0147 47.1308 74.7976 47.3902 74.5535 47.6981C74.3093 48.0061 74.0651 48.3249 73.821 48.6548C73.5765 48.9848 73.346 49.3146 73.1221 49.6446C72.8982 49.9746 72.7116 50.2713 72.5623 50.5353H70.7274C70.8901 50.1922 71.0971 49.8293 71.3481 49.4466C71.5992 49.064 71.8569 48.6945 72.1215 48.3382C72.3859 47.9818 72.6403 47.6521 72.8847 47.3485C73.1288 47.045 73.3322 46.8009 73.4952 46.6162C72.8711 46.4137 72.3758 46.117 72.0095 45.7255C71.6431 45.3339 71.4601 44.8085 71.4601 44.1486C71.4601 43.6735 71.5721 43.2579 71.796 42.9016C72.0196 42.5452 72.3351 42.2485 72.7422 42.0109C73.1491 41.7733 73.6377 41.5952 74.2076 41.4765C74.7774 41.3579 75.4151 41.2985 76.1205 41.2985C77.0025 41.2985 77.9183 41.3731 78.8681 41.5227V50.5354V50.5351ZM77.0771 42.3801C76.7649 42.3537 76.4394 42.3406 76.1003 42.3406C75.6931 42.3406 75.3234 42.3714 74.991 42.433C74.6587 42.4945 74.3736 42.5935 74.1361 42.7298C73.8987 42.8663 73.7156 43.0511 73.5868 43.2842C73.4578 43.5173 73.3935 43.8054 73.3935 44.1485C73.3935 44.8259 73.6445 45.3032 74.1465 45.5803C74.6484 45.8574 75.3673 45.9958 76.3036 45.9958H77.0769V42.3802L77.0771 42.3801ZM90.7939 50.733C89.1386 50.733 87.87 50.3328 86.9883 49.5322C86.1063 48.7318 85.6654 47.4957 85.6654 45.8242C85.6654 44.9709 85.7909 44.2496 86.0419 43.6601C86.293 43.0707 86.642 42.5914 87.09 42.2219C87.5378 41.8524 88.0669 41.5863 88.6776 41.4236C89.2882 41.2608 89.953 41.1795 90.672 41.1795C91.2689 41.1795 91.8253 41.2299 92.3407 41.3312C92.8563 41.4323 93.277 41.5575 93.6025 41.7072L93.0532 42.6968C92.7276 42.5561 92.3782 42.4417 92.0048 42.3537C91.632 42.2657 91.2011 42.2219 90.7127 42.2219C89.6272 42.2219 88.8404 42.5144 88.3519 43.0994C87.8633 43.6842 87.6191 44.5927 87.6191 45.8244C87.6191 47.0646 87.877 48.0192 88.3927 48.6879C88.9082 49.3565 89.7494 49.6907 90.9161 49.6907C91.4726 49.6907 91.9237 49.6467 92.2697 49.5588C92.6156 49.4708 92.9514 49.3566 93.277 49.2157L93.7858 50.1525C93.4739 50.311 93.0635 50.4474 92.5545 50.5616C92.0458 50.676 91.4588 50.7331 90.7942 50.7331L90.7939 50.733ZM102.984 41.3906V42.4066H99.8503V50.5351H98.0188V42.4066H94.8846V41.3906H102.984ZM104.979 41.5224C105.929 41.3728 106.858 41.2982 107.767 41.2982C108.473 41.2982 109.113 41.3532 109.69 41.4631C110.267 41.5729 110.762 41.7445 111.176 41.9778C111.59 42.2109 111.908 42.5121 112.132 42.8816C112.356 43.2512 112.468 43.6952 112.468 44.2143C112.468 44.7422 112.353 45.193 112.122 45.5669C111.891 45.9407 111.566 46.2443 111.145 46.4774C110.725 46.7105 110.219 46.8799 109.629 46.9855C109.039 47.091 108.384 47.1439 107.665 47.1439H106.81V50.5351H104.979V41.5224H104.979ZM106.81 46.1013H107.543C108.005 46.1013 108.422 46.0683 108.795 46.0023C109.168 45.9362 109.483 45.8286 109.741 45.679C109.999 45.5293 110.196 45.3359 110.331 45.0984C110.467 44.8608 110.535 44.5662 110.535 44.2142C110.535 43.8624 110.467 43.5654 110.331 43.3235C110.196 43.0815 110.009 42.8881 109.772 42.7429C109.534 42.5977 109.246 42.4943 108.907 42.4329C108.567 42.3712 108.194 42.3405 107.787 42.3405C107.435 42.3405 107.109 42.3536 106.81 42.38V46.1012V46.1013ZM124.415 45.9695C124.415 46.682 124.316 47.3307 124.12 47.9157C123.923 48.5008 123.618 49.0021 123.204 49.4199C122.79 49.8379 122.268 50.1611 121.637 50.3899C121.006 50.6186 120.263 50.733 119.408 50.733C118.554 50.733 117.811 50.6186 117.18 50.3899C116.549 50.1611 116.027 49.8379 115.613 49.4199C115.199 49.0021 114.891 48.5008 114.687 47.9157C114.483 47.3306 114.382 46.6819 114.382 45.9695C114.382 45.2568 114.483 44.6058 114.687 44.0165C114.891 43.427 115.199 42.9233 115.613 42.5055C116.027 42.0876 116.549 41.7622 117.18 41.529C117.811 41.2959 118.554 41.1795 119.408 41.1795C120.263 41.1795 121.006 41.2959 121.637 41.529C122.268 41.7622 122.79 42.0876 123.204 42.5055C123.618 42.9233 123.923 43.427 124.12 44.0165C124.316 44.6058 124.415 45.2568 124.415 45.9695ZM122.461 45.9695C122.461 45.4151 122.407 44.9093 122.298 44.452C122.19 43.9945 122.013 43.6008 121.769 43.2709C121.525 42.9409 121.209 42.6837 120.823 42.499C120.436 42.3142 119.965 42.2219 119.408 42.2219C118.852 42.2219 118.381 42.3142 117.994 42.499C117.607 42.6837 117.292 42.9409 117.048 43.2709C116.803 43.6009 116.623 43.9946 116.508 44.452C116.393 44.9094 116.335 45.4151 116.335 45.9695C116.335 46.5237 116.393 47.0295 116.508 47.4868C116.623 47.9444 116.803 48.3359 117.048 48.6614C117.292 48.9869 117.607 49.2397 117.994 49.4201C118.38 49.6006 118.852 49.6905 119.408 49.6905C119.965 49.6905 120.436 49.6004 120.823 49.4201C121.209 49.2397 121.525 48.987 121.769 48.6614C122.013 48.3359 122.19 47.9444 122.298 47.4868C122.407 47.0294 122.461 46.5237 122.461 45.9695ZM127.264 50.5351V41.3906H128.974V47.9487C129.679 46.8843 130.449 45.822 131.287 44.7619C132.128 43.7019 133.101 42.5781 134.21 41.3904H135.669V50.535H133.959V43.5281C133.498 44.0471 133.03 44.6079 132.555 45.2106C132.08 45.8132 131.616 46.4203 131.161 47.0315C130.707 47.6429 130.273 48.2499 129.859 48.8526C129.445 49.4552 129.075 50.016 128.749 50.5351H127.264ZM131.599 39.6883C131.965 39.6883 132.25 39.6134 132.453 39.4641C132.657 39.3145 132.8 39.0725 132.881 38.7383L134.163 38.923C134.027 39.4947 133.729 39.9039 133.268 40.1502C132.806 40.3964 132.25 40.5196 131.599 40.5196C130.947 40.5196 130.391 40.3964 129.93 40.1502C129.469 39.9039 129.17 39.4947 129.035 38.923L130.317 38.7383C130.398 39.0725 130.541 39.3145 130.744 39.4641C130.947 39.6136 131.233 39.6883 131.599 39.6883ZM147.147 41.3906C146.849 41.6897 146.513 42.0195 146.14 42.378C145.766 42.7386 145.384 43.1103 144.993 43.4929C144.6 43.8756 144.203 44.2496 143.803 44.6191C143.402 44.9885 143.019 45.3316 142.653 45.6482C143.06 45.9122 143.501 46.2443 143.976 46.6445C144.451 47.0449 144.919 47.4692 145.38 47.9136C145.838 48.3578 146.272 48.8086 146.679 49.2661C147.086 49.7258 147.412 50.148 147.656 50.5351H145.6C145.315 50.1304 144.986 49.7148 144.613 49.2925C144.24 48.8701 143.847 48.4633 143.433 48.0697C143.019 47.6781 142.598 47.3154 142.171 46.981C141.744 46.6445 141.326 46.3631 140.919 46.1343V50.5351H139.088V41.3906H140.919V45.4219C141.272 45.1315 141.645 44.8015 142.039 44.4345C142.432 44.065 142.822 43.6954 143.209 43.3282C143.596 42.9587 143.958 42.6045 144.298 42.2659C144.637 41.9294 144.922 41.6369 145.152 41.3906H147.147H147.147ZM149.569 50.5351V41.3906H151.278V47.9487C151.984 46.8843 152.754 45.822 153.592 44.7619C154.433 43.7019 155.406 42.5781 156.515 41.3904H157.974V50.535H156.264V43.5281C155.803 44.0471 155.335 44.6079 154.86 45.2106C154.385 45.8132 153.92 46.4203 153.466 47.0315C153.012 47.6429 152.577 48.2499 152.163 48.8526C151.75 49.4552 151.38 50.016 151.055 50.5351H149.569ZM165.361 50.5351V41.3906H167.071V47.9487C167.777 46.8843 168.546 45.822 169.384 44.7619C170.226 43.7019 171.199 42.5781 172.308 41.3904H173.767V50.535H172.057V43.5281C171.596 44.0471 171.128 44.6079 170.653 45.2106C170.178 45.8132 169.713 46.4203 169.259 47.0315C168.804 47.6429 168.37 48.2499 167.956 48.8526C167.542 49.4552 167.173 50.016 166.847 50.5351H165.361H165.361ZM181.154 41.5224C182.104 41.3728 183.033 41.2982 183.942 41.2982C184.648 41.2982 185.289 41.3532 185.865 41.4631C186.442 41.5729 186.937 41.7445 187.351 41.9778C187.765 42.2109 188.084 42.5121 188.308 42.8816C188.532 43.2512 188.643 43.6952 188.643 44.2143C188.643 44.7422 188.528 45.193 188.297 45.5669C188.067 45.9407 187.741 46.2443 187.321 46.4774C186.9 46.7105 186.395 46.8799 185.804 46.9855C185.214 47.091 184.56 47.1439 183.84 47.1439H182.986V50.5351H181.154V41.5224ZM182.986 46.1013H183.719C184.18 46.1013 184.597 46.0683 184.97 46.0023C185.343 45.9362 185.659 45.8286 185.916 45.679C186.174 45.5293 186.371 45.3359 186.507 45.0984C186.642 44.8608 186.71 44.5662 186.71 44.2142C186.71 43.8624 186.642 43.5654 186.507 43.3235C186.371 43.0815 186.184 42.8881 185.947 42.7429C185.71 42.5977 185.421 42.4943 185.082 42.4329C184.743 42.3712 184.37 42.3405 183.963 42.3405C183.61 42.3405 183.284 42.3536 182.986 42.38V46.1012V46.1013ZM191.025 50.5351V41.3906H197.354V42.4066H192.857V45.2436H196.927V46.2333H192.857V49.5191H197.68V50.5351H191.025ZM205.21 49.2683C204.939 48.6349 204.66 48.0279 204.376 47.4472C204.091 46.8666 203.816 46.3189 203.551 45.8043C203.287 45.2896 203.032 44.8213 202.788 44.3989C202.544 43.9766 202.32 43.6071 202.116 43.2905C202.062 43.7918 202.018 44.3439 201.984 44.9465C201.95 45.5491 201.916 46.1672 201.882 46.8005C201.849 47.4338 201.821 48.0695 201.801 48.7072C201.781 49.3451 201.764 49.9542 201.75 50.5348H200C200.041 49.743 200.082 48.9447 200.122 48.1399C200.163 47.3348 200.214 46.5431 200.275 45.7646C200.336 44.986 200.404 44.2273 200.478 43.4882C200.553 42.7493 200.638 42.05 200.733 41.3903H202.537C202.781 41.7685 203.06 42.2193 203.375 42.7428C203.687 43.2661 204.002 43.8138 204.321 44.3857C204.64 44.9574 204.949 45.5292 205.251 46.101C205.549 46.6727 205.807 47.1963 206.024 47.6713C206.241 47.1963 206.492 46.6729 206.777 46.101C207.062 45.5291 207.357 44.9574 207.669 44.3857C207.981 43.8137 208.29 43.2661 208.595 42.7428C208.9 42.2193 209.175 41.7685 209.419 41.3903H211.234C211.329 42.05 211.414 42.7494 211.488 43.4882C211.563 44.2273 211.631 44.986 211.692 45.7646C211.753 46.543 211.804 47.3348 211.845 48.1399C211.885 48.9448 211.926 49.7431 211.967 50.5348H210.217C210.189 49.9542 210.166 49.3428 210.145 48.7006C210.125 48.0584 210.098 47.4141 210.064 46.7675C210.03 46.1208 209.993 45.492 209.952 44.8805C209.911 44.2691 209.864 43.7084 209.809 43.198C209.687 43.4179 209.535 43.6928 209.351 44.0227C209.168 44.3527 208.978 44.7112 208.782 45.0981C208.585 45.4851 208.381 45.8833 208.171 46.2923C207.961 46.7014 207.764 47.0949 207.581 47.4733C207.398 47.8515 207.235 48.1969 207.092 48.5092C206.95 48.8214 206.838 49.0744 206.757 49.268H205.21V49.2683ZM224.544 45.9695C224.544 46.682 224.445 47.3307 224.249 47.9157C224.052 48.5008 223.747 49.0021 223.333 49.4199C222.919 49.8379 222.397 50.1611 221.766 50.3899C221.135 50.6186 220.392 50.733 219.538 50.733C218.683 50.733 217.94 50.6186 217.309 50.3899C216.678 50.1611 216.156 49.8379 215.742 49.4199C215.328 49.0021 215.02 48.5008 214.816 47.9157C214.612 47.3306 214.511 46.6819 214.511 45.9695C214.511 45.2568 214.612 44.6058 214.816 44.0165C215.02 43.427 215.328 42.9233 215.742 42.5055C216.156 42.0876 216.678 41.7622 217.309 41.529C217.94 41.2959 218.683 41.1795 219.538 41.1795C220.392 41.1795 221.135 41.2959 221.766 41.529C222.397 41.7622 222.919 42.0876 223.333 42.5055C223.747 42.9233 224.052 43.427 224.249 44.0165C224.445 44.6058 224.544 45.2568 224.544 45.9695ZM222.59 45.9695C222.59 45.4151 222.536 44.9093 222.427 44.452C222.319 43.9945 222.142 43.6008 221.898 43.2709C221.654 42.9409 221.339 42.6837 220.952 42.499C220.565 42.3142 220.094 42.2219 219.538 42.2219C218.981 42.2219 218.51 42.3142 218.123 42.499C217.736 42.6837 217.421 42.9409 217.177 43.2709C216.933 43.6009 216.753 43.9946 216.637 44.452C216.522 44.9094 216.464 45.4151 216.464 45.9695C216.464 46.5237 216.522 47.0295 216.637 47.4868C216.753 47.9444 216.933 48.3359 217.177 48.6614C217.421 48.9869 217.736 49.2397 218.123 49.4201C218.51 49.6006 218.981 49.6905 219.538 49.6905C220.094 49.6905 220.565 49.6004 220.952 49.4201C221.339 49.2397 221.654 48.987 221.898 48.6614C222.142 48.3359 222.319 47.9444 222.427 47.4868C222.536 47.0294 222.59 46.5237 222.59 45.9695ZM233.865 41.3906H235.697V50.5351H233.865V46.2861H229.225V50.5351H227.393V41.3906H229.225V45.2568H233.865V41.3906ZM245.791 41.3906V42.4066H242.657V50.5351H240.825V42.4066H237.691V41.3906H245.791ZM251.56 41.3906C251.886 42.0481 252.208 42.7146 252.527 43.3875C252.843 44.0605 253.155 44.7664 253.46 45.5054C253.765 46.2443 254.07 47.0273 254.376 47.8542C254.681 48.6834 254.986 49.5762 255.295 50.5351H253.463C253.358 50.1393 253.25 49.7478 253.134 49.3607C253.019 48.9735 252.904 48.5865 252.781 48.1996H248.335C248.196 48.5865 248.074 48.9736 247.965 49.3607C247.857 49.7477 247.748 50.1391 247.643 50.5351H245.872C246.171 49.5762 246.479 48.6834 246.791 47.8563C247.104 47.0295 247.415 46.2487 247.721 45.5097C248.026 44.7708 248.342 44.0649 248.66 43.3918C248.979 42.7188 249.305 42.0525 249.631 41.3906H251.56H251.56ZM250.563 42.7365C250.234 43.4688 249.912 44.2033 249.6 44.9423C249.284 45.6812 248.986 46.4355 248.701 47.2097H252.395C252.124 46.4355 251.832 45.6791 251.523 44.9402C251.211 44.2012 250.892 43.4665 250.563 42.7365Z" fill="white" fill-opacity="0.72"/>
<path fill-rule="evenodd" clip-rule="evenodd" d="M14.1005 32.4268H254.877C255.358 32.4268 255.752 32.801 255.752 33.2588C255.752 33.7165 255.358 34.0908 254.877 34.0908H14.1005C13.6191 34.0908 13.2256 33.7165 13.2256 33.2588C13.2256 32.801 13.6191 32.4268 14.1005 32.4268Z" fill="white" fill-opacity="0.72"/>
</svg>
