<svg width="312" height="72" viewBox="0 0 312 72" fill="none" xmlns="http://www.w3.org/2000/svg">
<path fill-rule="evenodd" clip-rule="evenodd" d="M0 0.848746L214.808 0.960124L216.242 3.84579L3.52917 3.86934V68.9795H308.448V3.86934L216.242 3.84579L214.741 0.825195L311.978 0.848746V72.0001H0V0.848746Z" fill="white" fill-opacity="0.72"/>
<path d="M15.6974 30.2078V14.9409C15.6974 14.6066 15.8194 14.3307 16.0675 14.1092C16.316 13.8878 16.6251 13.7792 16.9998 13.7792H32.4586C32.815 13.7792 33.1196 13.892 33.3725 14.1218C33.6255 14.3475 33.7521 14.6234 33.7521 14.9409V16.0942C33.7521 16.412 33.6302 16.6835 33.3865 16.905C33.1426 17.1308 32.8428 17.2437 32.4867 17.2437H20.8704V20.2067H27.6556C29.8767 20.2067 31.6806 20.6748 33.0632 21.6067C34.4455 22.5428 35.1341 23.9302 35.1341 25.7692C35.1341 27.6122 34.4455 28.9998 33.0632 29.9359C31.6806 30.8679 29.8767 31.3359 27.6556 31.3359H16.9343C16.583 31.3359 16.2925 31.2273 16.0536 31.01C15.8144 30.7969 15.6973 30.5293 15.6973 30.2074L15.6974 30.2078ZM20.8707 27.8716H27.656C29.1929 27.8716 29.9613 27.1695 29.9613 25.7653C29.9613 24.361 29.1931 23.6589 27.656 23.6589H20.8707V27.8715V27.8716ZM41.6855 27.6502L43.991 27.8716H44.2768C46.0995 27.8716 47.346 26.81 48.0115 24.687H46.8306C44.5252 24.687 42.7258 24.269 41.4373 23.4332C40.1487 22.5973 39.038 21.2348 38.115 19.35L35.9594 14.9409C35.8048 14.6149 35.8002 14.339 35.95 14.1133C36.1046 13.8919 36.3577 13.779 36.7137 13.779H39.6099C40.4907 13.779 41.0999 14.151 41.4373 14.8907L43.0162 18.2969C43.4802 19.2831 44.0658 20.0188 44.7735 20.5076C45.4764 20.9924 46.4042 21.2348 47.5616 21.2348H49.2486L51.7321 14.9157C51.8633 14.5647 52.0835 14.2888 52.407 14.0841C52.7255 13.8793 53.0722 13.779 53.4471 13.779H56.2209C56.5771 13.779 56.8254 13.8667 56.9613 14.0424C57.102 14.2178 57.1675 14.3724 57.1675 14.5062C57.1675 14.6398 57.1441 14.7693 57.1018 14.8905L52.6269 26.3168C52.0038 27.9259 51.0666 29.1628 49.8106 30.0323C48.5546 30.9017 46.8023 31.3363 44.5532 31.3363H41.2449C40.8887 31.3363 40.5795 31.2234 40.3265 30.9977C40.0689 30.7763 39.9421 30.5044 39.9421 30.187V28.8035C39.9421 28.4818 40.0641 28.21 40.3122 27.9886C40.5561 27.7629 40.8698 27.65 41.2449 27.65H41.6855V27.6502ZM56.2209 30.187V29.0085C56.2209 28.6907 56.3475 28.4234 56.6005 28.2017C56.8488 27.9802 57.1536 27.8716 57.5096 27.8716H58.5825L61.1364 18.602C62.0219 15.388 64.9975 13.7792 70.0583 13.7792H77.4716C77.8276 13.7792 78.1324 13.8878 78.3854 14.1092C78.6383 14.3307 78.7649 14.5983 78.7649 14.9159V30.2078C78.7649 30.5296 78.6383 30.7972 78.3854 31.0103C78.1322 31.2277 77.8275 31.3363 77.4716 31.3363H57.5096C57.1534 31.3363 56.8487 31.2234 56.6005 30.9977C56.3475 30.7763 56.2209 30.5044 56.2209 30.187ZM63.8685 27.8716H73.6011V17.2438H69.4961C68.6245 17.2438 67.9076 17.4569 67.3407 17.8789C66.7737 18.3053 66.3847 18.8945 66.1739 19.655L63.8685 27.8716ZM82.7008 30.162V14.9159C82.7008 14.5983 82.8272 14.3309 83.085 14.1092C83.3427 13.8878 83.6474 13.7792 84.0036 13.7792H99.8325C100.189 13.7792 100.493 13.892 100.746 14.1218C100.999 14.3475 101.126 14.6234 101.126 14.9409V16.0942C101.126 16.412 100.999 16.6835 100.746 16.905C100.493 17.1308 100.189 17.2437 99.8325 17.2437H87.8739V20.8045H98.1736C98.5296 20.8045 98.8343 20.9173 99.0873 21.143C99.3356 21.3687 99.462 21.6404 99.462 21.958V23.1073C99.462 23.425 99.3356 23.6965 99.0873 23.9222C98.8341 24.1479 98.5294 24.2609 98.1736 24.2609H87.8739V27.8718H99.8043C100.156 27.8718 100.451 27.9804 100.699 28.2018C100.943 28.4234 101.069 28.6908 101.069 29.0086V30.1872C101.069 30.5048 100.943 30.7764 100.685 30.9979C100.428 31.2236 100.123 31.3364 99.7668 31.3364H84.0034C83.6472 31.3364 83.3425 31.2236 83.0849 30.9979C82.8272 30.7764 82.7007 30.4963 82.7007 30.162H82.7008ZM103.651 30.162V14.9661C103.651 14.6318 103.773 14.3475 104.022 14.1218C104.27 13.892 104.57 13.7792 104.926 13.7792H110.516C110.872 13.7792 111.21 13.892 111.533 14.1218C111.852 14.3475 112.067 14.6234 112.175 14.9409L116.228 25.3974L120.277 14.9409C120.385 14.6233 120.6 14.3474 120.924 14.1218C121.242 13.892 121.58 13.7792 121.936 13.7792H127.526C127.882 13.7792 128.182 13.892 128.425 14.1218C128.665 14.3475 128.786 14.6318 128.786 14.9661V30.162C128.786 30.4963 128.66 30.7764 128.412 30.9979C128.158 31.2236 127.854 31.3364 127.498 31.3364H125.024C124.668 31.3364 124.363 31.2236 124.115 30.9979C123.862 30.7764 123.735 30.4963 123.735 30.162V18.1967L118.89 30.233C118.764 30.5381 118.539 30.7974 118.215 31.0105C117.897 31.2278 117.559 31.3364 117.203 31.3364H115.24C114.879 31.3364 114.546 31.2278 114.227 31.0105C113.914 30.7974 113.689 30.5381 113.548 30.233L108.717 18.1967V30.162C108.717 30.4963 108.59 30.7764 108.337 30.9979C108.089 31.2236 107.784 31.3364 107.428 31.3364H104.954C104.598 31.3364 104.293 31.2236 104.036 30.9979C103.778 30.7764 103.651 30.4963 103.651 30.162ZM143.992 29.2675C142.296 27.8216 141.448 25.5855 141.448 22.5641C141.448 19.5383 142.296 17.3024 143.992 15.852C145.689 14.4059 148.238 13.6789 151.635 13.6789H154.695C156.771 13.6789 158.608 14.1637 160.206 15.1249C161.803 16.0903 162.6 17.4069 162.6 19.0785C162.6 19.5633 162.441 19.9061 162.122 20.1149C161.799 20.3241 161.489 20.4285 161.19 20.4285H159.554C158.711 20.4285 158.059 19.9771 157.591 19.0785C156.916 17.7914 155.787 17.1434 154.212 17.1434H151.771C149.765 17.1434 148.406 17.5279 147.694 18.2971C146.977 19.0619 146.621 20.4828 146.621 22.5558C146.621 24.6286 146.977 26.0538 147.694 26.8228C148.406 27.5959 149.765 27.9804 151.771 27.9804H154.503C156.077 27.9804 157.197 27.3368 157.867 26.0454C158.331 25.1426 158.992 24.6871 159.84 24.6871H161.475C161.906 24.6871 162.248 24.8293 162.497 25.1176C162.75 25.4019 162.876 25.7111 162.876 26.0456C162.876 27.7213 162.08 29.0377 160.486 29.9948C158.893 30.956 157.061 31.4326 154.981 31.4326H151.635C148.238 31.4326 145.689 30.7138 143.992 29.2677L143.992 29.2675ZM163.575 16.0944V14.9411C163.575 14.6068 163.697 14.3309 163.945 14.1094C164.188 13.888 164.502 13.7794 164.877 13.7794H182.299C182.674 13.7794 182.984 13.888 183.232 14.1094C183.48 14.3309 183.602 14.6068 183.602 14.9411V16.0944C183.602 16.4287 183.48 16.7046 183.232 16.9177C182.984 17.1351 182.675 17.2438 182.299 17.2438H176.175V30.2078C176.175 30.5296 176.049 30.7972 175.8 31.0103C175.547 31.2277 175.242 31.3363 174.887 31.3363H172.291C171.934 31.3363 171.63 31.2277 171.377 31.0103C171.124 30.7972 171.002 30.5296 171.002 30.2078V17.2438H164.878C164.503 17.2438 164.189 17.1351 163.945 16.9177C163.697 16.7046 163.575 16.4287 163.575 16.0944H163.575ZM185.842 30.1872V14.9411C185.842 14.6234 185.964 14.3475 186.212 14.122C186.461 13.8922 186.76 13.7794 187.117 13.7794H197.594C203.128 13.7794 205.898 16.0529 205.898 20.604C205.898 25.1552 203.129 27.4289 197.594 27.4289H191.015V30.1873C191.015 30.5049 190.893 30.7766 190.64 30.998C190.387 31.2237 190.083 31.3366 189.727 31.3366H187.144C186.788 31.3366 186.484 31.2237 186.226 30.998C185.968 30.7766 185.842 30.5048 185.842 30.1873L185.842 30.1872ZM191.015 23.9641H196.029C197.566 23.9641 198.733 23.7343 199.53 23.2746C200.326 22.8107 200.724 21.9246 200.724 20.604C200.724 19.2875 200.326 18.3974 199.53 17.9335C198.733 17.4738 197.566 17.244 196.029 17.244H191.015V23.9643V23.9641ZM226.591 29.5182C224.721 30.9853 221.975 31.7167 218.358 31.7167C214.735 31.7167 211.99 30.9853 210.11 29.5182C208.236 28.0514 207.299 25.7319 207.299 22.5556C207.299 19.3836 208.236 17.0639 210.11 15.6011C211.99 14.1428 214.735 13.4114 218.358 13.4114C221.975 13.4114 224.721 14.1428 226.591 15.6011C228.465 17.0639 229.402 19.3836 229.402 22.5556C229.402 25.7317 228.465 28.0514 226.591 29.5182ZM222.837 18.1841C221.914 17.2061 220.419 16.717 218.358 16.717C216.291 16.717 214.796 17.2061 213.868 18.1841C212.936 19.166 212.472 20.6247 212.472 22.5639C212.472 24.503 212.936 25.9574 213.868 26.9355C214.796 27.9092 216.291 28.3983 218.358 28.3983C220.419 28.3983 221.914 27.9092 222.837 26.9355C223.76 25.9574 224.224 24.503 224.224 22.5639C224.224 20.6247 223.76 19.166 222.837 18.1841ZM232.213 30.187V14.9409C232.213 14.6066 232.335 14.3307 232.583 14.1092C232.832 13.8878 233.141 13.7792 233.516 13.7792H235.934C236.29 13.7792 236.595 13.8878 236.848 14.1092C237.096 14.3307 237.223 14.5983 237.223 14.9159V27.1738L245.034 14.9411C245.245 14.6234 245.535 14.3475 245.901 14.122C246.266 13.8922 246.604 13.7794 246.918 13.7794H250.966C251.323 13.7794 251.627 13.8922 251.871 14.122C252.119 14.3477 252.241 14.6236 252.241 14.9411V30.1872C252.241 30.5048 252.115 30.7764 251.857 30.9979C251.604 31.2236 251.294 31.3364 250.938 31.3364H248.52C248.164 31.3364 247.859 31.2236 247.611 30.9979C247.358 30.7764 247.232 30.5046 247.232 30.1872V18.8236L240.067 30.1872C239.856 30.5048 239.556 30.7764 239.172 30.9979C238.788 31.2236 238.417 31.3364 238.061 31.3364H233.516C233.16 31.3364 232.855 31.2236 232.598 30.9979C232.34 30.7764 232.213 30.5046 232.213 30.1872L232.213 30.187ZM254.481 16.0942V14.9409C254.481 14.6066 254.602 14.3307 254.851 14.1092C255.094 13.8878 255.408 13.7792 255.783 13.7792H273.205C273.58 13.7792 273.889 13.8878 274.138 14.1092C274.386 14.3307 274.508 14.6066 274.508 14.9409V16.0942C274.508 16.4285 274.386 16.7044 274.138 16.9176C273.889 17.1349 273.58 17.2437 273.205 17.2437H267.081V30.2076C267.081 30.5295 266.954 30.797 266.706 31.0101C266.453 31.2275 266.149 31.3361 265.792 31.3361H263.197C262.84 31.3361 262.535 31.2275 262.283 31.0101C262.029 30.797 261.908 30.5295 261.908 30.2076V17.2437H255.783C255.409 17.2437 255.094 17.1349 254.851 16.9176C254.603 16.7044 254.481 16.4285 254.481 16.0942H254.481ZM276.748 30.1618V14.9409C276.748 14.6066 276.87 14.3307 277.118 14.1092C277.367 13.8878 277.676 13.7792 278.05 13.7792H280.633C280.989 13.7792 281.293 13.892 281.546 14.1218C281.799 14.3475 281.921 14.6234 281.921 14.9409V19.7512H288.706C290.866 19.7512 292.652 20.2653 294.067 21.2852C295.482 22.3049 296.185 23.7258 296.185 25.5438C296.185 27.3659 295.478 28.7868 294.058 29.8067C292.643 30.8265 290.857 31.3363 288.707 31.3363H277.985C277.643 31.3363 277.353 31.2193 277.114 30.9894C276.87 30.7553 276.748 30.4794 276.748 30.1618ZM281.921 27.8715H288.707C290.243 27.8715 291.012 27.0943 291.012 25.5396C291.012 23.9849 290.243 23.2073 288.707 23.2073H281.921V27.8715Z" fill="white" fill-opacity="0.72"/>
<path d="M18.7942 53.3433H20.2577C22.2088 53.3433 23.1846 52.7718 23.1846 51.6293C23.1846 51.2721 23.1017 50.9787 22.9365 50.7492C22.7712 50.5196 22.5552 50.3411 22.2874 50.2136C22.0202 50.0858 21.7094 49.9967 21.3551 49.9457C21.0012 49.8947 20.6275 49.8692 20.2342 49.8692C19.9981 49.8692 19.758 49.8742 19.5141 49.8844C19.2702 49.8947 19.0303 49.9099 18.7942 49.9305V53.3433ZM18.7942 54.4451V58.271C19.0933 58.3016 19.3882 58.3271 19.6794 58.3476C19.9705 58.3682 20.2577 58.3781 20.541 58.3781C20.9818 58.3781 21.3985 58.3476 21.7921 58.2864C22.1854 58.2251 22.5279 58.1232 22.819 57.9802C23.1102 57.8373 23.338 57.641 23.5033 57.391C23.6686 57.1411 23.7511 56.8324 23.7511 56.4651C23.7511 55.8327 23.4877 55.3378 22.9604 54.9806C22.4331 54.6235 21.611 54.4449 20.4939 54.4449H18.7944L18.7942 54.4451ZM16.6699 48.9816C17.2208 48.8999 17.7833 48.8362 18.3575 48.7904C18.9318 48.7443 19.5024 48.7215 20.0686 48.7215C20.7766 48.7215 21.4496 48.7647 22.0867 48.8515C22.7239 48.9384 23.2866 49.0864 23.7744 49.2954C24.2624 49.5046 24.6516 49.78 24.9428 50.1218C25.2339 50.4635 25.3794 50.8895 25.3794 51.3996C25.3794 52.0323 25.175 52.5501 24.7656 52.953C24.3567 53.356 23.8296 53.6545 23.1846 53.8483C23.9869 54.0524 24.6478 54.3635 25.1672 54.782C25.6862 55.2002 25.9459 55.7767 25.9459 56.5112C25.9459 57.0622 25.8083 57.5266 25.5332 57.904C25.2575 58.2815 24.8681 58.5901 24.3646 58.8299C23.861 59.0696 23.2591 59.2432 22.5592 59.3503C21.8589 59.4574 21.0918 59.5109 20.2579 59.5109C19.7071 59.5109 19.1327 59.4906 18.5347 59.4496C17.9371 59.4088 17.3154 59.3475 16.6701 59.2659V48.9817L16.6699 48.9816ZM34.2308 59.6637C32.311 59.6637 30.8398 59.1995 29.8168 58.271C28.7939 57.3427 28.2826 55.9092 28.2826 53.9707C28.2826 52.981 28.4283 52.1445 28.7194 51.4608C29.0106 50.7772 29.4154 50.2213 29.935 49.7928C30.4544 49.3643 31.068 49.0556 31.7762 48.8669C32.4842 48.6782 33.2552 48.5838 34.0891 48.5838C34.7813 48.5838 35.4268 48.6424 36.0244 48.7598C36.6224 48.8771 37.1103 49.0223 37.4879 49.1958L36.8508 50.3436C36.4733 50.1804 36.0679 50.0477 35.635 49.9457C35.2025 49.8436 34.7027 49.7928 34.1364 49.7928C32.8774 49.7928 31.9648 50.132 31.3983 50.8105C30.8317 51.4888 30.5486 52.5424 30.5486 53.9708C30.5486 55.4092 30.8475 56.5163 31.4455 57.2918C32.0433 58.0672 33.0191 58.4549 34.3722 58.4549C35.0175 58.4549 35.5406 58.4038 35.9418 58.3019C36.3431 58.1999 36.7324 58.0674 37.1101 57.904L37.7003 58.9905C37.3383 59.1743 36.8624 59.3325 36.2724 59.4649C35.6822 59.5976 35.0016 59.6638 34.2308 59.6638V59.6637ZM40.0372 59.4342V48.8286H47.3779V50.007H42.1615V53.2973H46.8823V54.4451H42.1615V58.2558H47.7556V59.4342H40.0372ZM41.7365 47.6807C41.3748 47.6807 41.0641 47.6017 40.8044 47.4435C40.5449 47.2852 40.4148 47.0736 40.4148 46.8085C40.4148 46.543 40.5449 46.3314 40.8044 46.1734C41.0641 46.0153 41.3748 45.9361 41.7365 45.9361C42.0987 45.9361 42.4096 46.0153 42.6688 46.1734C42.9285 46.3316 43.0585 46.543 43.0585 46.8085C43.0585 47.0738 42.9285 47.2852 42.6688 47.4435C42.4094 47.6017 42.0985 47.6807 41.7365 47.6807ZM45.6549 47.6807C45.2928 47.6807 44.9822 47.6017 44.7226 47.4435C44.4629 47.2852 44.3332 47.0736 44.3332 46.8085C44.3332 46.543 44.4629 46.3314 44.7226 46.1734C44.9822 46.0153 45.293 45.9361 45.6549 45.9361C46.0165 45.9361 46.3273 46.0153 46.587 46.1734C46.8467 46.3316 46.9765 46.543 46.9765 46.8085C46.9765 47.0738 46.8467 47.2852 46.587 47.4435C46.3273 47.6017 46.0165 47.6807 45.6549 47.6807ZM64.3955 62.2654V59.4342H55.5679V62.2654H53.538V58.271H54.978C55.4657 57.7609 55.863 57.1998 56.1696 56.5876C56.4766 55.9753 56.7167 55.3122 56.8897 54.5979C57.0625 53.8838 57.1767 53.1161 57.2321 52.2946C57.287 51.4734 57.3145 50.5883 57.3145 49.6395V48.8283H64.8676V58.2707H66.4252V62.2651H64.3954L64.3955 62.2654ZM59.4388 50.0069C59.4388 51.6597 59.3012 53.1774 59.0258 54.5598C58.7503 55.9422 58.1957 57.1795 57.3618 58.271H62.7435V50.007H59.4388V50.0069ZM79.3362 48.8285V59.434H77.2117V49.9913H73.7892V50.68C73.7892 51.2004 73.7777 51.7308 73.7539 52.2717C73.7304 52.8124 73.6829 53.3505 73.6122 53.8861C73.5414 54.4219 73.4392 54.9497 73.3052 55.4701C73.1716 55.9905 73.0024 56.4852 72.7979 56.9546C72.4202 57.8219 71.842 58.4774 71.063 58.9213C70.2841 59.365 69.2968 59.5869 68.1008 59.5869L67.8882 58.4086C68.565 58.3373 69.1394 58.1791 69.6113 57.9343C70.0832 57.6894 70.4769 57.2609 70.7914 56.6486C71.0119 56.2201 71.1849 55.761 71.3108 55.2712C71.4367 54.7817 71.5271 54.2791 71.5823 53.7639C71.6376 53.2487 71.6728 52.7283 71.6886 52.203C71.7041 51.6775 71.712 51.17 71.712 50.6802V48.8285H79.336H79.3362ZM91.4681 59.434H89.3909V55.3019H88.8008C88.5331 55.3019 88.2658 55.297 87.9984 55.2867C87.731 55.2764 87.4711 55.2612 87.2195 55.2409C86.999 55.4858 86.7472 55.7867 86.4642 56.1437C86.1809 56.5009 85.8977 56.8707 85.6146 57.2533C85.331 57.636 85.0637 58.0185 84.8041 58.4012C84.5444 58.7839 84.328 59.128 84.1548 59.4342H82.0268C82.2154 59.0363 82.4555 58.6155 82.7467 58.1716C83.0378 57.7279 83.3367 57.2994 83.6435 56.8861C83.9502 56.4728 84.2453 56.0904 84.5287 55.7383C84.8118 55.3863 85.0478 55.1032 85.2368 54.889C84.5129 54.6541 83.9385 54.31 83.5137 53.856C83.0887 53.4018 82.8765 52.7924 82.8765 52.0272C82.8765 51.4762 83.0064 50.9942 83.2661 50.5809C83.5254 50.1676 83.8914 49.8235 84.3634 49.5479C84.8354 49.2723 85.402 49.0658 86.0629 48.9281C86.7239 48.7905 87.4634 48.7217 88.2815 48.7217C89.3044 48.7217 90.3665 48.8082 91.4681 48.9817V59.4343V59.434ZM89.3909 49.9761C89.0289 49.9455 88.6514 49.9303 88.2581 49.9303C87.7858 49.9303 87.3571 49.966 86.9715 50.0374C86.5861 50.1088 86.2556 50.2236 85.98 50.3817C85.7047 50.54 85.4923 50.7543 85.343 51.0246C85.1934 51.295 85.1188 51.6291 85.1188 52.027C85.1188 52.8127 85.4099 53.3662 85.9921 53.6875C86.5742 54.0089 87.408 54.1695 88.4939 54.1695H89.3907V49.9763L89.3909 49.9761ZM105.299 59.6635C103.379 59.6635 101.908 59.1993 100.886 58.2709C99.8627 57.3426 99.3514 55.909 99.3514 53.9705C99.3514 52.9808 99.4969 52.1443 99.788 51.4606C100.079 50.777 100.484 50.2211 101.004 49.7926C101.523 49.3641 102.137 49.0555 102.845 48.8668C103.553 48.678 104.324 48.5836 105.158 48.5836C105.85 48.5836 106.495 48.6422 107.093 48.7596C107.691 48.8769 108.179 49.0221 108.557 49.1957L107.92 50.3434C107.542 50.1802 107.137 50.0476 106.704 49.9455C106.271 49.8435 105.772 49.7926 105.205 49.7926C103.946 49.7926 103.034 50.1318 102.467 50.8104C101.9 51.4886 101.617 52.5422 101.617 53.9707C101.617 55.4091 101.916 56.5161 102.514 57.2917C103.112 58.0671 104.088 58.4547 105.441 58.4547C106.086 58.4547 106.61 58.4037 107.011 58.3018C107.412 58.1997 107.801 58.0672 108.179 57.9038L108.769 58.9903C108.407 59.1742 107.931 59.3323 107.341 59.4648C106.751 59.5974 106.07 59.6637 105.3 59.6637L105.299 59.6635ZM119.437 48.8285V50.0069H115.803V59.434H113.678V50.0069H110.043V48.8285H119.437ZM121.75 48.9814C122.852 48.8079 123.93 48.7214 124.984 48.7214C125.802 48.7214 126.546 48.7851 127.215 48.9125C127.883 49.0399 128.458 49.239 128.938 49.5095C129.417 49.7798 129.787 50.1292 130.047 50.5577C130.307 50.9864 130.436 51.5014 130.436 52.1034C130.436 52.7156 130.303 53.2384 130.035 53.672C129.767 54.1056 129.39 54.4577 128.902 54.728C128.414 54.9984 127.828 55.1948 127.144 55.3173C126.459 55.4397 125.7 55.501 124.866 55.501H123.875V59.434H121.75V48.9814H121.75ZM123.875 54.2919H124.725C125.26 54.2919 125.743 54.2536 126.176 54.177C126.609 54.1003 126.975 53.9756 127.273 53.802C127.572 53.6285 127.801 53.4041 127.958 53.1287C128.115 52.8531 128.194 52.5115 128.194 52.1032C128.194 51.6952 128.115 51.3507 127.958 51.0703C127.801 50.7896 127.584 50.5652 127.309 50.3969C127.034 50.2285 126.699 50.1086 126.306 50.0373C125.912 49.9658 125.48 49.9301 125.008 49.9301C124.599 49.9301 124.221 49.9454 123.875 49.976V54.2917V54.2919ZM144.291 54.1389C144.291 54.9654 144.177 55.7177 143.949 56.3961C143.721 57.0747 143.367 57.6561 142.887 58.1407C142.407 58.6254 141.802 59.0003 141.07 59.2656C140.338 59.5309 139.477 59.6635 138.485 59.6635C137.494 59.6635 136.633 59.5309 135.901 59.2656C135.169 59.0003 134.564 58.6254 134.083 58.1407C133.604 57.6561 133.246 57.0747 133.01 56.3961C132.774 55.7175 132.656 54.9652 132.656 54.1389C132.656 53.3124 132.774 52.5574 133.01 51.8739C133.246 51.1903 133.604 50.6061 134.083 50.1215C134.564 49.6369 135.169 49.2594 135.901 48.9891C136.633 48.7187 137.494 48.5836 138.485 48.5836C139.477 48.5836 140.338 48.7187 141.07 48.9891C141.802 49.2594 142.407 49.6369 142.887 50.1215C143.367 50.6061 143.721 51.1903 143.949 51.8739C144.177 52.5574 144.291 53.3124 144.291 54.1389ZM142.026 54.1389C142.026 53.496 141.963 52.9094 141.837 52.379C141.711 51.8484 141.506 51.3918 141.223 51.0093C140.94 50.6265 140.574 50.3282 140.126 50.114C139.677 49.8997 139.13 49.7926 138.485 49.7926C137.84 49.7926 137.293 49.8997 136.845 50.114C136.396 50.3282 136.03 50.6265 135.747 51.0093C135.464 51.392 135.256 51.8486 135.122 52.379C134.988 52.9095 134.921 53.496 134.921 54.1389C134.921 54.7817 134.988 55.3683 135.122 55.8987C135.256 56.4295 135.464 56.8835 135.747 57.2609C136.03 57.6384 136.396 57.9317 136.845 58.1408C137.293 58.3502 137.84 58.4545 138.485 58.4545C139.13 58.4545 139.677 58.35 140.126 58.1408C140.574 57.9317 140.94 57.6386 141.223 57.2609C141.506 56.8835 141.711 56.4295 141.837 55.8987C141.963 55.3682 142.026 54.7817 142.026 54.1389ZM147.596 59.434V48.8285H149.579V56.4344C150.397 55.1999 151.29 53.9679 152.261 52.7385C153.237 51.5091 154.366 50.2057 155.652 48.8283H157.344V59.4339H155.361V51.3076C154.826 51.9094 154.283 52.5599 153.733 53.2589C153.182 53.9577 152.643 54.6618 152.116 55.3706C151.589 56.0798 151.085 56.7837 150.605 57.4827C150.125 58.1816 149.697 58.832 149.319 59.434H147.596ZM152.623 46.8543C153.048 46.8543 153.379 46.7674 153.615 46.5942C153.851 46.4207 154.016 46.1401 154.111 45.7524L155.597 45.9667C155.44 46.6297 155.094 47.1043 154.559 47.3899C154.024 47.6755 153.379 47.8184 152.623 47.8184C151.868 47.8184 151.223 47.6755 150.688 47.3899C150.153 47.1043 149.807 46.6297 149.649 45.9667L151.136 45.7524C151.231 46.1401 151.396 46.4207 151.632 46.5942C151.868 46.7676 152.199 46.8543 152.623 46.8543ZM170.656 48.8285C170.31 49.1754 169.92 49.5579 169.488 49.9737C169.055 50.3918 168.611 50.823 168.158 51.2667C167.702 51.7106 167.242 52.1443 166.777 52.5728C166.313 53.0013 165.868 53.3992 165.443 53.7664C165.916 54.0725 166.427 54.4577 166.978 54.9218C167.529 55.3862 168.071 55.8783 168.606 56.3936C169.138 56.9088 169.641 57.4317 170.113 57.9622C170.585 58.4954 170.963 58.9851 171.246 59.434H168.862C168.531 58.9646 168.15 58.4827 167.717 57.9928C167.284 57.503 166.828 57.0312 166.348 56.5747C165.868 56.1205 165.381 55.6999 164.885 55.3121C164.389 54.9219 163.905 54.5954 163.433 54.3301V59.434H161.309V48.8285H163.433V53.5039C163.842 53.1671 164.275 52.7844 164.731 52.3587C165.188 51.9302 165.64 51.5015 166.089 51.0756C166.537 50.6471 166.958 50.2363 167.351 49.8436C167.744 49.4534 168.075 49.1142 168.342 48.8285H170.655H170.656ZM173.464 59.434V48.8285H175.447V56.4344C176.265 55.1999 177.158 53.9679 178.13 52.7385C179.106 51.5091 180.235 50.2057 181.521 48.8283H183.212V59.4339H181.23V51.3076C180.695 51.9094 180.152 52.5599 179.601 53.2589C179.05 53.9577 178.511 54.6618 177.984 55.3706C177.458 56.0798 176.954 56.7837 176.474 57.4827C175.994 58.1816 175.565 58.832 175.188 59.434H173.464ZM191.78 59.434V48.8285H193.763V56.4344C194.581 55.1999 195.474 53.9679 196.446 52.7385C197.422 51.5091 198.551 50.2057 199.837 48.8283H201.528V59.4339H199.546V51.3076C199.011 51.9094 198.468 52.5599 197.917 53.2589C197.366 53.9577 196.827 54.6618 196.3 55.3706C195.773 56.0798 195.269 56.7837 194.789 57.4827C194.31 58.1816 193.881 58.832 193.503 59.434H191.78H191.78ZM210.096 48.9814C211.198 48.8079 212.276 48.7214 213.33 48.7214C214.148 48.7214 214.891 48.7851 215.56 48.9125C216.229 49.0399 216.803 49.239 217.283 49.5095C217.763 49.7798 218.133 50.1292 218.393 50.5577C218.652 50.9864 218.782 51.5014 218.782 52.1034C218.782 52.7156 218.648 53.2384 218.381 53.672C218.113 54.1056 217.735 54.4577 217.248 54.728C216.76 54.9984 216.174 55.1948 215.489 55.3173C214.805 55.4397 214.046 55.501 213.212 55.501H212.22V59.434H210.096V48.9814ZM212.22 54.2919H213.07C213.605 54.2919 214.089 54.2536 214.522 54.177C214.954 54.1003 215.32 53.9756 215.619 53.802C215.918 53.6285 216.147 53.4041 216.304 53.1287C216.461 52.8531 216.54 52.5115 216.54 52.1032C216.54 51.6952 216.461 51.3507 216.304 51.0703C216.147 50.7896 215.93 50.5652 215.655 50.3969C215.379 50.2285 215.045 50.1086 214.652 50.0373C214.258 49.9658 213.826 49.9301 213.353 49.9301C212.944 49.9301 212.567 49.9454 212.22 49.976V54.2917V54.2919ZM221.544 59.434V48.8285H228.885V50.0069H223.668V53.2971H228.389V54.4449H223.668V58.2557H229.262V59.434H221.544ZM237.995 57.9649C237.68 57.2302 237.358 56.5263 237.028 55.8528C236.697 55.1794 236.378 54.5442 236.071 53.9474C235.765 53.3505 235.47 52.8073 235.186 52.3175C234.903 51.8277 234.644 51.3992 234.408 51.032C234.345 51.6134 234.294 52.2537 234.254 52.9526C234.215 53.6514 234.176 54.3682 234.136 55.1027C234.097 55.8372 234.065 56.5745 234.042 57.3141C234.018 58.0538 233.999 58.7604 233.983 59.4337H231.953C232 58.5154 232.048 57.5895 232.094 56.6561C232.142 55.7224 232.201 54.8043 232.272 53.9013C232.343 52.9983 232.421 52.1185 232.508 51.2613C232.594 50.4043 232.693 49.5932 232.803 48.8282H234.896C235.179 49.2668 235.501 49.7897 235.867 50.3968C236.229 51.0037 236.595 51.6389 236.965 52.3021C237.334 52.9651 237.692 53.6283 238.042 54.2915C238.389 54.9546 238.688 55.5618 238.939 56.1127C239.191 55.5618 239.482 54.9547 239.813 54.2915C240.143 53.6282 240.485 52.9651 240.847 52.3021C241.209 51.6388 241.567 51.0037 241.921 50.3968C242.275 49.7897 242.594 49.2668 242.877 48.8282H244.982C245.092 49.5932 245.19 50.4045 245.277 51.2613C245.364 52.1185 245.442 52.9983 245.513 53.9013C245.584 54.8041 245.643 55.7224 245.69 56.6561C245.737 57.5897 245.784 58.5155 245.832 59.4337H243.802C243.77 58.7604 243.743 58.0512 243.719 57.3064C243.696 56.5616 243.664 55.8143 243.625 55.0645C243.585 54.3144 243.542 53.5852 243.495 52.876C243.448 52.1669 243.393 51.5166 243.33 50.9247C243.188 51.1797 243.011 51.4986 242.798 51.8811C242.586 52.2638 242.366 52.6796 242.137 53.1284C241.91 53.5772 241.673 54.039 241.429 54.5133C241.186 54.9878 240.958 55.4442 240.745 55.883C240.533 56.3217 240.344 56.7222 240.178 57.0845C240.013 57.4466 239.884 57.74 239.789 57.9645H237.995V57.9649ZM260.418 54.1389C260.418 54.9654 260.304 55.7177 260.076 56.3961C259.848 57.0747 259.494 57.6561 259.014 58.1407C258.534 58.6254 257.928 59.0003 257.196 59.2656C256.465 59.5309 255.603 59.6635 254.612 59.6635C253.62 59.6635 252.759 59.5309 252.028 59.2656C251.296 59.0003 250.69 58.6254 250.21 58.1407C249.73 57.6561 249.372 57.0747 249.136 56.3961C248.9 55.7175 248.782 54.9652 248.782 54.1389C248.782 53.3124 248.9 52.5574 249.136 51.8739C249.372 51.1903 249.73 50.6061 250.21 50.1215C250.69 49.6369 251.296 49.2594 252.028 48.9891C252.759 48.7187 253.621 48.5836 254.612 48.5836C255.603 48.5836 256.465 48.7187 257.196 48.9891C257.928 49.2594 258.534 49.6369 259.014 50.1215C259.494 50.6061 259.848 51.1903 260.076 51.8739C260.304 52.5574 260.418 53.3124 260.418 54.1389ZM258.152 54.1389C258.152 53.496 258.089 52.9094 257.963 52.379C257.838 51.8484 257.633 51.3918 257.35 51.0093C257.067 50.6265 256.701 50.3282 256.252 50.114C255.804 49.8997 255.257 49.7926 254.612 49.7926C253.967 49.7926 253.42 49.8997 252.971 50.114C252.523 50.3282 252.157 50.6265 251.874 51.0093C251.591 51.392 251.382 51.8486 251.248 52.379C251.115 52.9095 251.048 53.496 251.048 54.1389C251.048 54.7817 251.115 55.3683 251.248 55.8987C251.382 56.4295 251.591 56.8835 251.874 57.2609C252.157 57.6384 252.523 57.9317 252.971 58.1408C253.42 58.3502 253.967 58.4545 254.612 58.4545C255.257 58.4545 255.804 58.35 256.252 58.1408C256.701 57.9317 257.067 57.6386 257.35 57.2609C257.633 56.8835 257.838 56.4295 257.963 55.8987C258.089 55.3682 258.152 54.7817 258.152 54.1389ZM271.228 48.8285H273.353V59.434H271.228V54.5061H265.847V59.434H263.722V48.8285H265.847V53.3124H271.228V48.8285ZM285.06 48.8285V50.0069H281.425V59.434H279.301V50.0069H275.666V48.8285H285.06ZM291.751 48.8285C292.129 49.5911 292.502 50.364 292.872 51.1445C293.238 51.925 293.6 52.7437 293.954 53.6007C294.308 54.4577 294.662 55.3657 295.016 56.3248C295.37 57.2865 295.724 58.3219 296.082 59.434H293.958C293.836 58.9749 293.71 58.5209 293.576 58.072C293.443 57.6229 293.309 57.1741 293.167 56.7253H288.01C287.849 57.1741 287.707 57.623 287.581 58.072C287.456 58.5208 287.329 58.9748 287.208 59.434H285.154C285.5 58.3219 285.858 57.2865 286.22 56.3272C286.582 55.3683 286.944 54.4628 287.298 53.6058C287.652 52.7488 288.018 51.93 288.388 51.1494C288.757 50.369 289.135 49.5962 289.513 48.8285H291.751H291.751ZM290.595 50.3894C290.213 51.2387 289.839 52.0906 289.477 52.9476C289.111 53.8046 288.766 54.6795 288.435 55.5774H292.719C292.404 54.6795 292.066 53.8022 291.708 52.9452C291.346 52.0882 290.976 51.2361 290.595 50.3894Z" fill="white" fill-opacity="0.72"/>
<path fill-rule="evenodd" clip-rule="evenodd" d="M16.3545 38.4324H295.599C296.157 38.4324 296.614 38.8664 296.614 39.3973C296.614 39.9282 296.157 40.3623 295.599 40.3623H16.3545C15.7963 40.3623 15.3398 39.9282 15.3398 39.3973C15.3398 38.8664 15.7963 38.4324 16.3545 38.4324Z" fill="white" fill-opacity="0.72"/>
</svg>
