<svg width="335" height="159" viewBox="0 0 335 159" fill="none" xmlns="http://www.w3.org/2000/svg">
<rect x="2.81641" y="120.987" width="329.446" height="35.1972" fill="#FF781F"/>
<path fill-rule="evenodd" clip-rule="evenodd" d="M0 78.6401L110.408 78.7659L109.557 82.1775L3.78542 82.0517V155.589H330.844V82.0517L231.942 82.0251L230.333 78.6135L334.629 78.6401V159H0V78.6401Z" fill="#FF781F"/>
<path fill-rule="evenodd" clip-rule="evenodd" d="M126 63.1277L145.269 65.3162V81.9995H140.918V66.7977L139.733 66.6647V81.9994H138.233V66.4962L137.048 66.3634V81.9994H135.697V66.2117L134.512 66.0785V81.9994H133.117V65.9223L131.932 65.789V81.9994H130.59V65.6383L129.404 65.5055V81.9994H126V63.1276L126 63.1277ZM213 62.8874V81.9995H211.815V62.257L213 62.8876V62.8874ZM210.209 61.6992V81.9995H209.024V61.0575L210.209 61.6992ZM207.344 60.3589V81.9995H206.158V59.704L207.344 60.3589ZM204.642 58.9919V81.9995H203.457V58.3235L204.642 58.9919ZM179.017 81.9995V51.7163L179.016 51.7151V11.5938L180.201 12.7806V38.3399L184.366 36.5577V15.6642L185.551 16.8509V36.0506L188.592 34.7498L188.37 54.6267L191.838 54.1312V38.0822L193.024 39.2687V53.962L194.892 53.6951V40.1653L196.078 41.352V53.5257L197.34 53.3458V81.9999H179.017L179.017 81.9995ZM200.7 81.9995V57.1259L201.885 57.8054V81.9995H200.7ZM203.381 45.8395L203.413 56.4142L204.601 57.0085L204.566 46.7928L203.381 45.8395ZM200.639 44.0506L200.673 55.0419L201.86 55.6367L201.824 45.0178L200.639 44.0506ZM197.842 42.2532L197.874 53.6143L199.061 54.2135L199.027 43.3525L197.841 42.2532H197.842ZM181.701 13.616V37.6983L182.886 37.1911V14.8027L181.701 13.616ZM173.799 7.59126V47.7124L174.985 48.7895V8.77794L173.799 7.59126ZM176.388 9.74951V81.9997H177.573V10.8391L176.388 9.74951ZM170.172 0L161.052 9.79042V40.9563L147.05 42.6303V81.9997H150.254V43.983L151.439 43.7419V81.9999H153.045V43.7113L154.23 43.459V81.9999H155.91V43.312L157.095 43.0465V81.9999H158.612V42.8321L159.797 42.553V81.9999H161.369V42.5516L162.554 42.261V82H165.759V41.1922L170.026 44.2353L170.172 0.000150959V0Z" fill="#FF781F"/>
<path d="M16.8371 111.799V94.5563C16.8371 94.1788 16.9679 93.8671 17.2341 93.617C17.5006 93.3669 17.8321 93.2443 18.2341 93.2443H34.8153C35.1975 93.2443 35.5242 93.3717 35.7955 93.6313C36.0669 93.8862 36.2027 94.1978 36.2027 94.5563V95.859C36.2027 96.2179 36.0719 96.5245 35.8105 96.7746C35.5489 97.0297 35.2274 97.1571 34.8454 97.1571H22.3856V100.504H29.6635C32.0459 100.504 33.9808 101.032 35.4637 102.085C36.9464 103.142 37.685 104.709 37.685 106.786C37.685 108.868 36.9464 110.435 35.4637 111.492C33.9808 112.545 32.0459 113.073 29.6635 113.073H18.1638C17.7869 113.073 17.4753 112.951 17.2191 112.705C16.9625 112.464 16.8369 112.162 16.8369 111.799L16.8371 111.799ZM22.386 109.161H29.6639C31.3125 109.161 32.1367 108.368 32.1367 106.782C32.1367 105.196 31.3127 104.403 29.6639 104.403H22.386V109.16V109.161ZM44.7121 108.91L47.185 109.161H47.4916C49.4466 109.161 50.7836 107.962 51.4974 105.564H50.2307C47.758 105.564 45.8279 105.092 44.4459 104.148C43.0637 103.204 41.8724 101.665 40.8824 99.5361L38.5703 94.5563C38.4044 94.1882 38.3995 93.8766 38.5601 93.6217C38.726 93.3716 38.9975 93.2441 39.3793 93.2441H42.4857C43.4306 93.2441 44.084 93.6642 44.4459 94.4996L46.1395 98.3467C46.6371 99.4606 47.2652 100.291 48.0243 100.844C48.7782 101.391 49.7734 101.665 51.0149 101.665H52.8243L55.4882 94.5279C55.6289 94.1315 55.865 93.8199 56.212 93.5886C56.5536 93.3573 56.9255 93.2441 57.3277 93.2441H60.3029C60.6849 93.2441 60.9513 93.3431 61.097 93.5415C61.2479 93.7397 61.3182 93.9143 61.3182 94.0654C61.3182 94.2163 61.2931 94.3626 61.2477 94.4994L56.4479 107.404C55.7796 109.222 54.7743 110.619 53.4271 111.601C52.08 112.583 50.2005 113.074 47.788 113.074H44.2395C43.8574 113.074 43.5258 112.946 43.2544 112.691C42.9781 112.441 42.8421 112.134 42.8421 111.776V110.213C42.8421 109.85 42.9729 109.543 43.2391 109.293C43.5007 109.038 43.8371 108.91 44.2395 108.91H44.7121V108.91ZM60.3029 111.776V110.445C60.3029 110.086 60.4387 109.784 60.71 109.533C60.9764 109.283 61.3033 109.161 61.6851 109.161H62.836L65.5753 98.6912C66.5251 95.0613 69.7167 93.2443 75.145 93.2443H83.0966C83.4784 93.2443 83.8053 93.3669 84.0767 93.617C84.348 93.8671 84.4838 94.1694 84.4838 94.5281V111.799C84.4838 112.163 84.348 112.465 84.0767 112.705C83.8051 112.951 83.4782 113.074 83.0966 113.074H61.6851C61.3031 113.074 60.9762 112.946 60.71 112.691C60.4387 112.441 60.3029 112.134 60.3029 111.776ZM68.5057 109.161H78.945V97.1573H74.542C73.6071 97.1573 72.8381 97.398 72.2301 97.8746C71.6219 98.3561 71.2046 99.0217 70.9785 99.8806L68.5057 109.161ZM88.7054 111.747V94.5281C88.7054 94.1694 88.841 93.8673 89.1175 93.617C89.3939 93.3669 89.7207 93.2443 90.1028 93.2443H107.081C107.463 93.2443 107.79 93.3717 108.061 93.6313C108.333 93.8862 108.468 94.1978 108.468 94.5563V95.859C108.468 96.2179 108.333 96.5245 108.061 96.7746C107.79 97.0297 107.463 97.1571 107.081 97.1571H94.2542V101.179H105.302C105.683 101.179 106.01 101.306 106.282 101.561C106.548 101.816 106.684 102.123 106.684 102.482V103.78C106.684 104.139 106.548 104.445 106.282 104.7C106.01 104.955 105.683 105.083 105.302 105.083H94.2542V109.161H107.051C107.428 109.161 107.744 109.283 108.011 109.534C108.272 109.784 108.408 110.086 108.408 110.445V111.776C108.408 112.135 108.272 112.441 107.996 112.691C107.719 112.946 107.393 113.074 107.011 113.074H90.1026C89.7206 113.074 89.3937 112.946 89.1174 112.691C88.841 112.441 88.7053 112.125 88.7053 111.747H88.7054ZM111.177 111.747V94.5848C111.177 94.2072 111.308 93.8862 111.574 93.6313C111.841 93.3717 112.162 93.2443 112.544 93.2443H118.541C118.923 93.2443 119.284 93.3717 119.631 93.6313C119.973 93.8862 120.204 94.1978 120.32 94.5563L124.667 106.366L129.01 94.5563C129.126 94.1976 129.357 93.886 129.703 93.6313C130.045 93.3717 130.407 93.2443 130.789 93.2443H136.785C137.167 93.2443 137.489 93.3717 137.75 93.6313C138.006 93.8862 138.137 94.2072 138.137 94.5848V111.747C138.137 112.125 138.002 112.441 137.735 112.691C137.464 112.946 137.137 113.074 136.755 113.074H134.101C133.719 113.074 133.393 112.946 133.126 112.691C132.855 112.441 132.719 112.125 132.719 111.747V98.2335L127.522 111.828C127.387 112.172 127.145 112.465 126.799 112.706C126.457 112.951 126.095 113.074 125.713 113.074H123.607C123.22 113.074 122.863 112.951 122.521 112.706C122.184 112.465 121.943 112.172 121.792 111.828L116.61 98.2335V111.747C116.61 112.125 116.475 112.441 116.203 112.691C115.937 112.946 115.61 113.074 115.228 113.074H112.575C112.193 113.074 111.866 112.946 111.59 112.691C111.313 112.441 111.177 112.125 111.177 111.747ZM154.447 110.737C152.628 109.104 151.718 106.579 151.718 103.166C151.718 99.7487 152.628 97.2235 154.447 95.5854C156.267 93.9521 159.001 93.1311 162.645 93.1311H165.927C168.153 93.1311 170.124 93.6786 171.838 94.7641C173.552 95.8545 174.406 97.3415 174.406 99.2295C174.406 99.777 174.235 100.164 173.893 100.4C173.547 100.636 173.215 100.754 172.893 100.754H171.139C170.234 100.754 169.536 100.244 169.033 99.2295C168.309 97.7758 167.098 97.0439 165.409 97.0439H162.791C160.639 97.0439 159.182 97.4782 158.418 98.3469C157.649 99.2106 157.267 100.815 157.267 103.157C157.267 105.498 157.649 107.107 158.418 107.976C159.182 108.849 160.639 109.283 162.791 109.283H165.721C167.41 109.283 168.611 108.557 169.329 107.098C169.827 106.078 170.536 105.564 171.445 105.564H173.199C173.662 105.564 174.029 105.724 174.295 106.05C174.567 106.371 174.702 106.72 174.702 107.098C174.702 108.991 173.848 110.478 172.139 111.559C170.43 112.644 168.465 113.182 166.233 113.182H162.645C159.001 113.182 156.267 112.371 154.447 110.737L154.447 110.737ZM175.451 95.8591V94.5565C175.451 94.1789 175.582 93.8673 175.848 93.6172C176.11 93.3671 176.446 93.2445 176.849 93.2445H195.536C195.938 93.2445 196.27 93.3671 196.536 93.6172C196.802 93.8673 196.933 94.1789 196.933 94.5565V95.8591C196.933 96.2367 196.802 96.5483 196.536 96.789C196.27 97.0345 195.938 97.1573 195.536 97.1573H188.967V111.799C188.967 112.163 188.831 112.465 188.565 112.705C188.293 112.951 187.966 113.074 187.585 113.074H184.8C184.418 113.074 184.091 112.951 183.82 112.705C183.548 112.465 183.418 112.163 183.418 111.799V97.1573H176.849C176.447 97.1573 176.11 97.0345 175.848 96.789C175.582 96.5483 175.452 96.2367 175.452 95.8591H175.451ZM199.336 111.776V94.5565C199.336 94.1978 199.466 93.8862 199.732 93.6315C199.999 93.3719 200.321 93.2445 200.703 93.2445H211.941C217.877 93.2445 220.847 95.8122 220.847 100.952C220.847 106.093 217.877 108.661 211.941 108.661H204.884V111.776C204.884 112.135 204.753 112.442 204.482 112.692C204.211 112.947 203.884 113.074 203.502 113.074H200.733C200.351 113.074 200.024 112.947 199.747 112.692C199.471 112.442 199.335 112.135 199.335 111.776L199.336 111.776ZM204.884 104.747H210.262C211.911 104.747 213.162 104.488 214.017 103.969C214.871 103.445 215.298 102.444 215.298 100.952C215.298 99.4655 214.871 98.4601 214.017 97.9363C213.162 97.417 211.911 97.1575 210.262 97.1575H204.884V104.748V104.747ZM243.043 111.02C241.037 112.677 238.092 113.503 234.212 113.503C230.327 113.503 227.382 112.677 225.366 111.02C223.355 109.364 222.35 106.744 222.35 103.157C222.35 99.574 223.355 96.9541 225.366 95.302C227.382 93.6549 230.327 92.8289 234.212 92.8289C238.092 92.8289 241.037 93.6549 243.043 95.302C245.053 96.9541 246.058 99.574 246.058 103.157C246.058 106.744 245.053 109.364 243.043 111.02ZM239.017 98.2193C238.026 97.1147 236.423 96.5624 234.212 96.5624C231.995 96.5624 230.392 97.1147 229.397 98.2193C228.397 99.3283 227.899 100.976 227.899 103.166C227.899 105.356 228.397 106.999 229.397 108.103C230.392 109.203 231.995 109.755 234.212 109.755C236.423 109.755 238.026 109.203 239.017 108.103C240.007 106.999 240.505 105.356 240.505 103.166C240.505 100.976 240.007 99.3283 239.017 98.2193ZM249.074 111.776V94.5563C249.074 94.1788 249.205 93.8671 249.471 93.617C249.737 93.3669 250.069 93.2443 250.471 93.2443H253.065C253.447 93.2443 253.773 93.3669 254.045 93.617C254.311 93.8671 254.447 94.1694 254.447 94.5281V108.372L262.825 94.5565C263.051 94.1978 263.363 93.8862 263.755 93.6315C264.147 93.3719 264.509 93.2445 264.846 93.2445H269.188C269.57 93.2445 269.897 93.3719 270.159 93.6315C270.425 93.8864 270.555 94.198 270.555 94.5565V111.776C270.555 112.135 270.42 112.441 270.143 112.691C269.872 112.946 269.54 113.074 269.158 113.074H266.565C266.183 113.074 265.856 112.946 265.59 112.691C265.318 112.441 265.183 112.134 265.183 111.776V98.9415L257.498 111.776C257.271 112.135 256.95 112.441 256.538 112.691C256.125 112.946 255.728 113.074 255.346 113.074H250.471C250.089 113.074 249.762 112.946 249.486 112.691C249.21 112.441 249.074 112.134 249.074 111.776L249.074 111.776ZM272.958 95.859V94.5563C272.958 94.1788 273.088 93.8671 273.355 93.617C273.616 93.3669 273.953 93.2443 274.355 93.2443H293.042C293.444 93.2443 293.776 93.3669 294.042 93.617C294.309 93.8671 294.439 94.1788 294.439 94.5563V95.859C294.439 96.2365 294.309 96.5481 294.042 96.7888C293.776 97.0343 293.444 97.1571 293.042 97.1571H286.473V111.799C286.473 112.162 286.337 112.465 286.071 112.705C285.799 112.951 285.473 113.073 285.091 113.073H282.307C281.924 113.073 281.597 112.951 281.326 112.705C281.055 112.465 280.924 112.162 280.924 111.799V97.1571H274.355C273.953 97.1571 273.616 97.0343 273.355 96.7888C273.089 96.5481 272.958 96.2365 272.958 95.859H272.958ZM296.842 111.747V94.5563C296.842 94.1788 296.973 93.8671 297.239 93.617C297.506 93.3669 297.837 93.2443 298.239 93.2443H301.009C301.391 93.2443 301.717 93.3717 301.989 93.6313C302.26 93.8862 302.391 94.1978 302.391 94.5563V99.9892H309.669C311.986 99.9892 313.901 100.57 315.418 101.722C316.937 102.873 317.69 104.478 317.69 106.532C317.69 108.589 316.931 110.194 315.408 111.346C313.891 112.498 311.976 113.074 309.669 113.074H298.169C297.802 113.074 297.491 112.942 297.234 112.682C296.973 112.418 296.842 112.106 296.842 111.747ZM302.391 109.16H309.669C311.317 109.16 312.142 108.283 312.142 106.527C312.142 104.771 311.317 103.893 309.669 103.893H302.391V109.16Z" fill="white"/>
<path d="M20.1604 137.929H21.7302C23.8229 137.929 24.8696 137.283 24.8696 135.993C24.8696 135.589 24.7807 135.258 24.6034 134.999C24.4261 134.74 24.1944 134.538 23.9072 134.394C23.6206 134.25 23.2872 134.149 22.9072 134.091C22.5276 134.034 22.1268 134.005 21.7049 134.005C21.4516 134.005 21.1941 134.011 20.9325 134.022C20.671 134.034 20.4136 134.051 20.1604 134.074V137.929ZM20.1604 139.173V143.494C20.4811 143.529 20.7975 143.558 21.1098 143.581C21.4221 143.604 21.7302 143.615 22.034 143.615C22.5068 143.615 22.9537 143.581 23.376 143.512C23.7978 143.442 24.1651 143.327 24.4774 143.166C24.7897 143.004 25.0341 142.783 25.2114 142.5C25.3887 142.218 25.4772 141.869 25.4772 141.455C25.4772 140.74 25.1946 140.181 24.629 139.778C24.0635 139.375 23.1817 139.173 21.9834 139.173H20.1605L20.1604 139.173ZM17.8818 133.003C18.4727 132.91 19.0761 132.838 19.692 132.787C20.3079 132.734 20.92 132.709 21.5272 132.709C22.2867 132.709 23.0085 132.758 23.6919 132.856C24.3754 132.954 24.979 133.121 25.5021 133.357C26.0256 133.593 26.4431 133.904 26.7554 134.29C27.0677 134.676 27.2237 135.157 27.2237 135.734C27.2237 136.448 27.0044 137.033 26.5654 137.488C26.1267 137.943 25.5613 138.28 24.8696 138.499C25.7301 138.73 26.439 139.081 26.9961 139.554C27.5528 140.026 27.8314 140.677 27.8314 141.507C27.8314 142.129 27.6838 142.653 27.3886 143.08C27.0929 143.506 26.6753 143.855 26.1352 144.125C25.5951 144.396 24.9495 144.592 24.1987 144.713C23.4475 144.834 22.6248 144.895 21.7303 144.895C21.1395 144.895 20.5234 144.872 19.882 144.825C19.241 144.779 18.5741 144.71 17.882 144.618V133.003L17.8818 133.003ZM36.7178 145.067C34.6586 145.067 33.0805 144.543 31.9833 143.494C30.8861 142.446 30.3377 140.827 30.3377 138.637C30.3377 137.52 30.4939 136.575 30.8062 135.803C31.1185 135.031 31.5528 134.403 32.11 133.919C32.6671 133.435 33.3253 133.086 34.0849 132.873C34.8444 132.66 35.6713 132.553 36.5658 132.553C37.3083 132.553 38.0006 132.619 38.6416 132.752C39.283 132.884 39.8063 133.049 40.2114 133.244L39.528 134.541C39.1231 134.356 38.6883 134.207 38.224 134.091C37.76 133.976 37.224 133.919 36.6165 133.919C35.2661 133.919 34.2873 134.302 33.6797 135.068C33.0718 135.834 32.7682 137.024 32.7682 138.637C32.7682 140.262 33.0888 141.512 33.7302 142.388C34.3714 143.264 35.4181 143.702 36.8694 143.702C37.5615 143.702 38.1227 143.644 38.5531 143.529C38.9834 143.414 39.401 143.264 39.8061 143.08L40.4392 144.307C40.0509 144.514 39.5405 144.693 38.9076 144.843C38.2745 144.992 37.5446 145.067 36.7178 145.067V145.067ZM42.9457 144.808V132.83H50.8195V134.161H45.2243V137.877H50.2878V139.173H45.2243V143.477H51.2245V144.808H42.9457ZM44.7684 131.533C44.3805 131.533 44.0472 131.444 43.7686 131.265C43.4903 131.087 43.3508 130.848 43.3508 130.548C43.3508 130.248 43.4903 130.009 43.7686 129.831C44.0472 129.652 44.3805 129.563 44.7684 129.563C45.1569 129.563 45.4904 129.652 45.7684 129.831C46.047 130.01 46.1864 130.248 46.1864 130.548C46.1864 130.848 46.047 131.087 45.7684 131.265C45.4903 131.444 45.1567 131.533 44.7684 131.533ZM48.9713 131.533C48.583 131.533 48.2499 131.444 47.9713 131.265C47.6928 131.087 47.5537 130.848 47.5537 130.548C47.5537 130.248 47.6928 130.009 47.9713 129.831C48.2499 129.652 48.5832 129.563 48.9713 129.563C49.3592 129.563 49.6926 129.652 49.9711 129.831C50.2496 130.01 50.3889 130.248 50.3889 130.548C50.3889 130.848 50.2496 131.087 49.9711 131.265C49.6926 131.444 49.3592 131.533 48.9713 131.533ZM69.0727 148.006V144.808H59.6041V148.006H57.4268V143.494H58.9714C59.4945 142.918 59.9206 142.284 60.2495 141.593C60.5788 140.901 60.8363 140.153 61.0219 139.346C61.2073 138.539 61.3298 137.672 61.3892 136.744C61.448 135.817 61.4775 134.817 61.4775 133.746V132.829H69.5791V143.494H71.2498V148.005H69.0725L69.0727 148.006ZM63.756 134.161C63.756 136.027 63.6085 137.741 63.3131 139.303C63.0176 140.864 62.4227 142.261 61.5282 143.494H67.3007V134.161H63.756V134.161ZM85.0982 132.83V144.808H82.8195V134.143H79.1484V134.921C79.1484 135.509 79.136 136.108 79.1106 136.718C79.0853 137.329 79.0344 137.937 78.9586 138.542C78.8826 139.147 78.773 139.743 78.6293 140.331C78.486 140.919 78.3045 141.477 78.0851 142.007C77.68 142.987 77.0599 143.727 76.2242 144.229C75.3888 144.73 74.3298 144.98 73.047 144.98L72.819 143.65C73.5449 143.569 74.161 143.39 74.6672 143.114C75.1734 142.837 75.5956 142.353 75.933 141.662C76.1695 141.178 76.355 140.659 76.4901 140.106C76.6251 139.553 76.7221 138.986 76.7813 138.404C76.8405 137.822 76.8784 137.234 76.8953 136.641C76.9119 136.047 76.9204 135.474 76.9204 134.921V132.83H85.098H85.0982ZM98.1109 144.808H95.8829V140.141H95.25C94.9628 140.141 94.6762 140.135 94.3893 140.124C94.1025 140.112 93.8237 140.095 93.5539 140.072C93.3174 140.349 93.0473 140.688 92.7437 141.092C92.4399 141.495 92.1361 141.913 91.8324 142.345C91.5283 142.777 91.2416 143.209 90.9631 143.641C90.6845 144.074 90.4524 144.462 90.2667 144.808H87.9841C88.1865 144.359 88.444 143.883 88.7563 143.382C89.0686 142.881 89.3892 142.397 89.7183 141.93C90.0472 141.463 90.3637 141.031 90.6677 140.634C90.9714 140.236 91.2244 139.916 91.4272 139.674C90.6507 139.409 90.0346 139.021 89.579 138.508C89.1232 137.995 88.8956 137.307 88.8956 136.442C88.8956 135.82 89.0348 135.276 89.3134 134.809C89.5916 134.342 89.9841 133.953 90.4904 133.642C90.9966 133.331 91.6044 133.098 92.3133 132.942C93.0222 132.787 93.8154 132.709 94.6929 132.709C95.7901 132.709 96.9294 132.807 98.1109 133.003V144.808V144.808ZM95.8829 134.126C95.4946 134.091 95.0897 134.074 94.6679 134.074C94.1613 134.074 93.7014 134.114 93.2879 134.195C92.8745 134.276 92.5199 134.405 92.2244 134.584C91.9291 134.763 91.7013 135.005 91.5412 135.31C91.3807 135.615 91.3006 135.993 91.3006 136.442C91.3006 137.329 91.6129 137.955 92.2373 138.318C92.8618 138.681 93.7561 138.862 94.9208 138.862H95.8828V134.126L95.8829 134.126ZM112.946 145.067C110.887 145.067 109.309 144.543 108.212 143.494C107.115 142.446 106.567 140.827 106.567 138.637C106.567 137.519 106.723 136.575 107.035 135.802C107.347 135.03 107.782 134.402 108.339 133.919C108.896 133.435 109.554 133.086 110.314 132.873C111.073 132.66 111.9 132.553 112.795 132.553C113.537 132.553 114.229 132.619 114.871 132.752C115.512 132.884 116.035 133.048 116.44 133.244L115.757 134.541C115.352 134.356 114.917 134.207 114.453 134.091C113.989 133.976 113.453 133.919 112.845 133.919C111.495 133.919 110.516 134.302 109.909 135.068C109.301 135.834 108.997 137.024 108.997 138.637C108.997 140.262 109.318 141.512 109.959 142.388C110.601 143.264 111.647 143.702 113.098 143.702C113.791 143.702 114.352 143.644 114.782 143.529C115.213 143.414 115.63 143.264 116.035 143.08L116.668 144.307C116.28 144.514 115.77 144.693 115.137 144.842C114.504 144.992 113.774 145.067 112.947 145.067L112.946 145.067ZM128.111 132.83V134.161H124.212V144.808H121.934V134.161H118.035V132.83H128.111ZM130.592 133.002C131.774 132.806 132.93 132.709 134.06 132.709C134.938 132.709 135.735 132.781 136.453 132.925C137.17 133.068 137.786 133.293 138.301 133.599C138.816 133.904 139.212 134.299 139.491 134.783C139.769 135.267 139.909 135.848 139.909 136.528C139.909 137.22 139.765 137.81 139.478 138.3C139.191 138.79 138.786 139.187 138.263 139.493C137.74 139.798 137.111 140.02 136.377 140.158C135.643 140.296 134.828 140.366 133.934 140.366H132.87V144.808H130.592V133.002H130.592ZM132.87 139H133.782C134.356 139 134.875 138.957 135.339 138.87C135.803 138.784 136.196 138.643 136.516 138.447C136.837 138.251 137.082 137.997 137.25 137.686C137.419 137.375 137.504 136.989 137.504 136.528C137.504 136.067 137.419 135.678 137.25 135.362C137.081 135.045 136.849 134.791 136.554 134.601C136.259 134.411 135.9 134.275 135.478 134.195C135.056 134.114 134.592 134.074 134.086 134.074C133.647 134.074 133.242 134.091 132.87 134.126V139V139ZM154.77 138.827C154.77 139.761 154.647 140.61 154.403 141.377C154.158 142.143 153.778 142.8 153.264 143.347C152.749 143.895 152.099 144.318 151.314 144.618C150.53 144.917 149.605 145.067 148.542 145.067C147.479 145.067 146.555 144.917 145.77 144.618C144.985 144.318 144.336 143.895 143.821 143.347C143.306 142.8 142.922 142.143 142.669 141.377C142.415 140.61 142.289 139.761 142.289 138.827C142.289 137.894 142.415 137.041 142.669 136.269C142.922 135.497 143.306 134.837 143.821 134.29C144.336 133.743 144.985 133.316 145.77 133.011C146.555 132.706 147.479 132.553 148.542 132.553C149.606 132.553 150.53 132.706 151.314 133.011C152.099 133.316 152.749 133.743 153.264 134.29C153.778 134.837 154.158 135.497 154.403 136.269C154.647 137.041 154.77 137.894 154.77 138.827ZM152.34 138.827C152.34 138.101 152.272 137.439 152.137 136.84C152.002 136.24 151.782 135.725 151.479 135.293C151.175 134.86 150.782 134.523 150.302 134.281C149.821 134.04 149.234 133.919 148.542 133.919C147.85 133.919 147.263 134.04 146.782 134.281C146.301 134.523 145.909 134.86 145.605 135.293C145.302 135.725 145.078 136.241 144.934 136.84C144.791 137.439 144.719 138.101 144.719 138.827C144.719 139.553 144.791 140.216 144.934 140.815C145.078 141.414 145.302 141.927 145.605 142.353C145.909 142.78 146.301 143.111 146.782 143.347C147.263 143.584 147.85 143.701 148.542 143.701C149.234 143.701 149.82 143.583 150.302 143.347C150.782 143.111 151.175 142.78 151.479 142.353C151.782 141.927 152.002 141.414 152.137 140.815C152.272 140.216 152.34 139.553 152.34 138.827ZM158.314 144.808V132.83H160.441V141.42C161.318 140.026 162.276 138.634 163.318 137.246C164.365 135.857 165.576 134.385 166.956 132.829H168.77V144.808H166.643V135.63C166.069 136.309 165.487 137.044 164.896 137.833C164.306 138.623 163.728 139.418 163.162 140.218C162.597 141.019 162.057 141.814 161.542 142.604C161.027 143.393 160.567 144.128 160.162 144.808H158.314ZM163.706 130.6C164.162 130.6 164.517 130.502 164.77 130.306C165.023 130.11 165.2 129.793 165.302 129.355L166.896 129.597C166.728 130.346 166.357 130.882 165.783 131.205C165.209 131.527 164.517 131.689 163.706 131.689C162.896 131.689 162.204 131.527 161.631 131.205C161.057 130.882 160.685 130.346 160.517 129.597L162.112 129.355C162.213 129.793 162.39 130.11 162.643 130.306C162.896 130.502 163.251 130.6 163.706 130.6ZM183.048 132.83C182.677 133.221 182.26 133.653 181.795 134.123C181.331 134.595 180.855 135.082 180.369 135.583C179.88 136.085 179.386 136.575 178.888 137.059C178.39 137.542 177.913 137.992 177.458 138.407C177.964 138.752 178.513 139.187 179.103 139.712C179.694 140.236 180.276 140.792 180.85 141.374C181.42 141.956 181.96 142.546 182.466 143.145C182.972 143.748 183.378 144.301 183.681 144.808H181.124C180.77 144.278 180.36 143.733 179.896 143.18C179.432 142.627 178.943 142.094 178.428 141.578C177.913 141.065 177.39 140.59 176.858 140.152C176.327 139.712 175.808 139.343 175.301 139.043V144.808H173.023V132.83H175.301V138.11C175.74 137.73 176.204 137.298 176.694 136.817C177.183 136.333 177.668 135.849 178.149 135.368C178.63 134.884 179.082 134.42 179.504 133.976C179.925 133.535 180.28 133.152 180.567 132.83H183.048H183.048ZM186.061 144.808V132.83H188.188V141.42C189.065 140.026 190.023 138.634 191.065 137.246C192.112 135.857 193.323 134.385 194.702 132.829H196.517V144.808H194.39V135.63C193.816 136.309 193.234 137.044 192.643 137.833C192.052 138.623 191.474 139.418 190.909 140.218C190.344 141.019 189.804 141.814 189.289 142.604C188.774 143.393 188.314 144.128 187.909 144.808H186.061ZM205.707 144.808V132.83H207.833V141.42C208.711 140.026 209.669 138.634 210.711 137.246C211.758 135.857 212.968 134.385 214.348 132.829H216.162V144.808H214.036V135.63C213.462 136.309 212.88 137.044 212.289 137.833C211.698 138.623 211.12 139.418 210.555 140.218C209.989 141.019 209.449 141.814 208.934 142.604C208.42 143.393 207.96 144.128 207.555 144.808H205.706H205.707ZM225.352 133.002C226.534 132.806 227.69 132.709 228.821 132.709C229.699 132.709 230.496 132.781 231.213 132.925C231.93 133.068 232.546 133.293 233.061 133.599C233.576 133.904 233.973 134.299 234.251 134.783C234.53 135.267 234.669 135.848 234.669 136.528C234.669 137.22 234.525 137.81 234.238 138.3C233.952 138.79 233.546 139.187 233.023 139.493C232.5 139.798 231.872 140.02 231.137 140.158C230.403 140.296 229.589 140.366 228.694 140.366H227.631V144.808H225.352V133.002ZM227.631 139H228.542C229.116 139 229.635 138.957 230.099 138.87C230.563 138.784 230.956 138.643 231.276 138.447C231.597 138.251 231.842 137.997 232.011 137.686C232.179 137.375 232.264 136.989 232.264 136.528C232.264 136.067 232.179 135.678 232.011 135.362C231.842 135.045 231.61 134.791 231.314 134.601C231.019 134.411 230.66 134.275 230.239 134.195C229.817 134.114 229.352 134.074 228.846 134.074C228.407 134.074 228.002 134.091 227.631 134.126V139V139ZM237.631 144.808V132.83H245.505V134.161H239.91V137.877H244.973V139.173H239.91V143.477H245.91V144.808H237.631ZM255.277 143.148C254.94 142.319 254.594 141.524 254.239 140.763C253.885 140.003 253.543 139.285 253.214 138.611C252.885 137.937 252.568 137.323 252.264 136.77C251.961 136.217 251.682 135.733 251.429 135.318C251.361 135.975 251.307 136.698 251.264 137.487C251.222 138.277 251.18 139.086 251.138 139.916C251.096 140.745 251.062 141.578 251.037 142.413C251.011 143.249 250.99 144.047 250.973 144.807H248.796C248.847 143.77 248.898 142.725 248.948 141.67C248.999 140.616 249.062 139.579 249.138 138.559C249.214 137.539 249.298 136.545 249.391 135.577C249.484 134.609 249.589 133.693 249.708 132.829H251.952C252.256 133.325 252.602 133.915 252.995 134.601C253.382 135.286 253.775 136.004 254.172 136.753C254.568 137.502 254.952 138.251 255.328 139C255.699 139.749 256.02 140.434 256.29 141.057C256.56 140.434 256.872 139.749 257.227 139C257.581 138.25 257.948 137.502 258.336 136.753C258.725 136.004 259.108 135.286 259.488 134.601C259.868 133.915 260.21 133.325 260.513 132.829H262.771C262.889 133.693 262.995 134.61 263.088 135.577C263.181 136.545 263.265 137.539 263.341 138.559C263.417 139.579 263.48 140.616 263.531 141.67C263.581 142.725 263.632 143.77 263.683 144.807H261.505C261.471 144.047 261.442 143.246 261.416 142.405C261.391 141.564 261.357 140.72 261.315 139.873C261.273 139.026 261.227 138.202 261.176 137.401C261.125 136.6 261.067 135.866 260.999 135.197C260.847 135.485 260.657 135.845 260.429 136.277C260.201 136.71 259.965 137.179 259.72 137.686C259.476 138.193 259.222 138.715 258.961 139.25C258.699 139.786 258.455 140.302 258.227 140.797C257.999 141.293 257.796 141.745 257.619 142.154C257.442 142.563 257.303 142.894 257.201 143.148H255.277V143.148ZM279.328 138.827C279.328 139.761 279.206 140.61 278.961 141.377C278.716 142.143 278.337 142.8 277.822 143.347C277.307 143.895 276.657 144.318 275.872 144.618C275.088 144.917 274.163 145.067 273.1 145.067C272.037 145.067 271.113 144.917 270.328 144.618C269.543 144.318 268.894 143.895 268.379 143.347C267.864 142.8 267.48 142.143 267.227 141.377C266.974 140.61 266.847 139.761 266.847 138.827C266.847 137.894 266.974 137.041 267.227 136.269C267.48 135.497 267.864 134.837 268.379 134.29C268.894 133.743 269.543 133.316 270.328 133.011C271.113 132.706 272.037 132.553 273.1 132.553C274.163 132.553 275.088 132.706 275.872 133.011C276.657 133.316 277.307 133.743 277.822 134.29C278.337 134.837 278.716 135.497 278.961 136.269C279.206 137.041 279.328 137.894 279.328 138.827ZM276.898 138.827C276.898 138.101 276.83 137.439 276.695 136.84C276.56 136.24 276.341 135.725 276.037 135.293C275.733 134.86 275.341 134.523 274.86 134.281C274.379 134.04 273.792 133.919 273.1 133.919C272.408 133.919 271.822 134.04 271.341 134.281C270.86 134.523 270.467 134.86 270.164 135.293C269.86 135.725 269.636 136.241 269.493 136.84C269.349 137.439 269.277 138.101 269.277 138.827C269.277 139.553 269.349 140.216 269.493 140.815C269.636 141.414 269.86 141.927 270.164 142.353C270.467 142.78 270.86 143.111 271.341 143.347C271.822 143.584 272.408 143.701 273.1 143.701C273.792 143.701 274.379 143.583 274.86 143.347C275.341 143.111 275.733 142.78 276.037 142.353C276.341 141.927 276.56 141.414 276.695 140.815C276.83 140.216 276.898 139.553 276.898 138.827ZM290.923 132.83H293.202V144.808H290.923V139.242H285.151V144.808H282.872V132.83H285.151V137.894H290.923V132.83ZM305.759 132.83V134.161H301.86V144.808H299.582V134.161H295.683V132.83H305.759ZM312.936 132.83C313.341 133.691 313.742 134.564 314.139 135.445C314.531 136.327 314.919 137.252 315.299 138.219C315.679 139.187 316.058 140.213 316.438 141.296C316.818 142.382 317.198 143.552 317.582 144.808H315.303C315.172 144.289 315.037 143.776 314.894 143.269C314.751 142.762 314.607 142.255 314.455 141.748H308.924C308.75 142.255 308.599 142.762 308.464 143.269C308.329 143.776 308.193 144.289 308.063 144.808H305.86C306.231 143.552 306.615 142.382 307.003 141.299C307.392 140.216 307.78 139.193 308.16 138.225C308.539 137.257 308.932 136.333 309.328 135.451C309.725 134.569 310.13 133.697 310.535 132.83H312.936H312.936ZM311.695 134.593C311.286 135.552 310.885 136.514 310.497 137.482C310.105 138.45 309.734 139.438 309.379 140.452H313.974C313.637 139.438 313.274 138.447 312.89 137.479C312.502 136.511 312.105 135.549 311.695 134.593Z" fill="#333333"/>
<path fill-rule="evenodd" clip-rule="evenodd" d="M17.5395 121.088H317.059C317.658 121.088 318.148 121.578 318.148 122.178C318.148 122.777 317.658 123.268 317.059 123.268H17.5395C16.9407 123.268 16.4512 122.777 16.4512 122.178C16.4512 121.578 16.9407 121.088 17.5395 121.088Z" fill="#FF781F"/>
<path fill-rule="evenodd" clip-rule="evenodd" d="M190.5 14.8381C219.929 21.9418 242.561 46.0649 247 76H244.275C239.893 47.5344 218.435 24.5833 190.5 17.5715V14.8381ZM158.41 16.7064C128.583 22.4789 105.31 46.2202 100.725 75.9999H98C102.633 44.7516 127.091 19.8338 158.411 14V16.7064H158.41Z" fill="#FF781F"/>
</svg>
