<svg width="384" height="88" viewBox="0 0 384 88" fill="none" xmlns="http://www.w3.org/2000/svg">
<rect x="3" y="1" width="378" height="87" fill="white"/>
<rect x="3" y="46" width="378" height="42" fill="#FF781F"/>
<path fill-rule="evenodd" clip-rule="evenodd" d="M0 0.0289869L264.399 0.166078L266.163 3.71793L4.34391 3.74691V83.8882H379.656V3.74691L266.163 3.71793L264.316 0L384 0.0289869V87.6061H0V0.0289869Z" fill="#FF781F"/>
<path d="M19.3225 36.1652V17.3738C19.3225 16.9624 19.4726 16.6228 19.778 16.3502C20.0839 16.0776 20.4643 15.944 20.9255 15.944H39.9531C40.3917 15.944 40.7666 16.0828 41.078 16.3657C41.3894 16.6435 41.5452 16.9831 41.5452 17.3738V18.7934C41.5452 19.1846 41.3951 19.5187 41.0952 19.7913C40.795 20.0693 40.426 20.2082 39.9876 20.2082H25.6896V23.8553H34.0413C36.7752 23.8553 38.9955 24.4314 40.6972 25.5785C42.3987 26.7307 43.2463 28.4384 43.2463 30.7019C43.2463 32.9704 42.3987 34.6783 40.6972 35.8306C38.9955 36.9777 36.7752 37.5538 34.0413 37.5538H20.8449C20.4124 37.5538 20.0549 37.4201 19.7609 37.1526C19.4664 36.8903 19.3223 36.5609 19.3223 36.1648L19.3225 36.1652ZM25.6901 33.2897H34.0417C35.9335 33.2897 36.8793 32.4255 36.8793 30.6971C36.8793 28.9687 35.9337 28.1045 34.0417 28.1045H25.6901V33.2895V33.2897ZM51.31 33.0171L54.1478 33.2897H54.4997C56.7431 33.2897 58.2773 31.983 59.0965 29.3699H57.6429C54.8053 29.3699 52.5905 28.8553 51.0046 27.8267C49.4185 26.7978 48.0514 25.1207 46.9153 22.8008L44.2621 17.3738C44.0718 16.9726 44.0661 16.633 44.2505 16.3552C44.4408 16.0826 44.7524 15.9437 45.1906 15.9437H48.7553C49.8395 15.9437 50.5893 16.4015 51.0046 17.312L52.948 21.5046C53.5192 22.7185 54.2399 23.624 55.111 24.2257C55.9761 24.8224 57.1182 25.1207 58.5428 25.1207H60.6192L63.676 17.3428C63.8376 16.9108 64.1085 16.5712 64.5067 16.3192C64.8987 16.0671 65.3255 15.9437 65.7869 15.9437H69.2011C69.6395 15.9437 69.9452 16.0516 70.1124 16.2679C70.2856 16.4839 70.3662 16.6741 70.3662 16.8388C70.3662 17.0032 70.3374 17.1627 70.2854 17.3118L64.7774 31.3759C64.0105 33.3566 62.8568 34.879 61.3109 35.9492C59.765 37.0193 57.6082 37.5542 54.8398 37.5542H50.7677C50.3293 37.5542 49.9487 37.4153 49.6373 37.1375C49.3202 36.8649 49.1642 36.5304 49.1642 36.1396V34.4368C49.1642 34.0408 49.3143 33.7062 49.6198 33.4336C49.9199 33.1558 50.306 33.0169 50.7677 33.0169H51.31V33.0171ZM69.2011 36.1396V34.689C69.2011 34.2979 69.3569 33.9689 69.6683 33.696C69.974 33.4234 70.3491 33.2897 70.7873 33.2897H72.1079L75.2514 21.8801C76.3414 17.9242 80.0039 15.944 86.233 15.944H95.3577C95.7959 15.944 96.171 16.0776 96.4824 16.3502C96.7938 16.6228 96.9496 16.9521 96.9496 17.343V36.1652C96.9496 36.5614 96.7938 36.8907 96.4824 37.153C96.1708 37.4205 95.7957 37.5542 95.3577 37.5542H70.7873C70.3489 37.5542 69.9738 37.4153 69.6683 37.1375C69.3569 36.8649 69.2011 36.5304 69.2011 36.1396ZM78.6142 33.2897H90.5936V20.2084H85.541C84.4682 20.2084 83.5857 20.4707 82.888 20.9901C82.1901 21.5149 81.7113 22.2402 81.4518 23.1763L78.6142 33.2897ZM101.794 36.1088V17.343C101.794 16.9521 101.95 16.623 102.267 16.3502C102.584 16.0776 102.959 15.944 103.398 15.944H122.881C123.319 15.944 123.694 16.0828 124.005 16.3657C124.317 16.6435 124.473 16.9831 124.473 17.3738V18.7934C124.473 19.1846 124.317 19.5187 124.005 19.7913C123.694 20.0693 123.319 20.2082 122.881 20.2082H108.161V24.5911H120.839C121.277 24.5911 121.652 24.73 121.964 25.0078C122.269 25.2856 122.425 25.6199 122.425 26.0109V27.4255C122.425 27.8166 122.269 28.1508 121.964 28.4286C121.652 28.7064 121.277 28.8455 120.839 28.8455H108.161V33.2899H122.846C123.279 33.2899 123.642 33.4236 123.948 33.6961C124.248 33.9689 124.403 34.2981 124.403 34.6892V36.1398C124.403 36.5307 124.248 36.8651 123.93 37.1377C123.613 37.4155 123.238 37.5544 122.8 37.5544H103.397C102.959 37.5544 102.584 37.4155 102.267 37.1377C101.95 36.8651 101.794 36.5203 101.794 36.1088H101.794ZM127.581 36.1088V17.4048C127.581 16.9934 127.731 16.6435 128.037 16.3657C128.343 16.0828 128.712 15.944 129.15 15.944H136.031C136.469 15.944 136.885 16.0828 137.282 16.3657C137.675 16.6435 137.94 16.9831 138.073 17.3738L143.062 30.2444L148.045 17.3738C148.178 16.9829 148.443 16.6433 148.841 16.3657C149.233 16.0828 149.648 15.944 150.086 15.944H156.967C157.406 15.944 157.775 16.0828 158.075 16.3657C158.369 16.6435 158.519 16.9934 158.519 17.4048V36.1088C158.519 36.5203 158.363 36.8651 158.057 37.1377C157.746 37.4155 157.371 37.5544 156.933 37.5544H153.888C153.449 37.5544 153.074 37.4155 152.769 37.1377C152.457 36.8651 152.302 36.5203 152.302 36.1088V21.3812L146.338 36.1962C146.182 36.5718 145.905 36.8909 145.507 37.1532C145.115 37.4207 144.7 37.5544 144.261 37.5544H141.845C141.401 37.5544 140.991 37.4207 140.599 37.1532C140.213 36.8909 139.936 36.5718 139.763 36.1962L133.816 21.3812V36.1088C133.816 36.5203 133.66 36.8651 133.349 37.1377C133.043 37.4155 132.668 37.5544 132.23 37.5544H129.185C128.746 37.5544 128.372 37.4155 128.054 37.1377C127.737 36.8651 127.581 36.5203 127.581 36.1088ZM177.235 35.0079C175.147 33.2281 174.104 30.4759 174.104 26.7569C174.104 23.0325 175.147 20.2805 177.235 18.4953C179.323 16.7154 182.461 15.8205 186.642 15.8205H190.409C192.964 15.8205 195.225 16.4172 197.191 17.6003C199.158 18.7886 200.139 20.4091 200.139 22.4667C200.139 23.0633 199.942 23.4853 199.55 23.7424C199.152 23.9998 198.772 24.1283 198.403 24.1283H196.39C195.352 24.1283 194.55 23.5727 193.973 22.4667C193.143 20.8824 191.753 20.0848 189.815 20.0848H186.81C184.341 20.0848 182.668 20.5581 181.792 21.5048C180.909 22.4461 180.471 24.1951 180.471 26.7467C180.471 29.298 180.909 31.0522 181.792 31.9987C182.668 32.9503 184.341 33.4236 186.81 33.4236H190.172C192.11 33.4236 193.489 32.6314 194.313 31.0419C194.884 29.9307 195.697 29.3701 196.741 29.3701H198.754C199.285 29.3701 199.706 29.545 200.012 29.8999C200.323 30.2498 200.479 30.6305 200.479 31.0421C200.479 33.1047 199.498 34.725 197.537 35.9031C195.576 37.0862 193.321 37.6728 190.76 37.6728H186.642C182.461 37.6728 179.323 36.788 177.235 35.0081L177.235 35.0079ZM201.338 18.7936V17.374C201.338 16.9626 201.488 16.623 201.794 16.3504C202.094 16.0778 202.48 15.9442 202.942 15.9442H224.386C224.847 15.9442 225.228 16.0778 225.534 16.3504C225.84 16.623 225.989 16.9626 225.989 17.374V18.7936C225.989 19.2051 225.839 19.5447 225.534 19.807C225.228 20.0746 224.848 20.2084 224.386 20.2084H216.848V36.1652C216.848 36.5614 216.692 36.8907 216.386 37.153C216.075 37.4205 215.7 37.5542 215.262 37.5542H212.066C211.628 37.5542 211.253 37.4205 210.942 37.153C210.63 36.8907 210.48 36.5614 210.48 36.1652V20.2084H202.942C202.481 20.2084 202.094 20.0746 201.794 19.807C201.488 19.5447 201.338 19.2051 201.338 18.7936H201.338ZM228.746 36.1398V17.374C228.746 16.9831 228.896 16.6435 229.202 16.3659C229.508 16.0831 229.877 15.9442 230.315 15.9442H243.212C250.023 15.9442 253.432 18.7425 253.432 24.3443C253.432 29.9462 250.023 32.7448 243.212 32.7448H235.113V36.14C235.113 36.531 234.963 36.8653 234.652 37.1379C234.341 37.4157 233.966 37.5546 233.528 37.5546H230.349C229.911 37.5546 229.536 37.4157 229.219 37.1379C228.902 36.8653 228.746 36.5308 228.746 36.14L228.746 36.1398ZM235.113 28.4801H241.285C243.177 28.4801 244.613 28.1973 245.594 27.6314C246.574 27.0605 247.064 25.9698 247.064 24.3443C247.064 22.7239 246.574 21.6282 245.594 21.0573C244.613 20.4915 243.177 20.2086 241.285 20.2086H235.113V28.4803V28.4801ZM278.902 35.3165C276.6 37.1222 273.221 38.0224 268.768 38.0224C264.31 38.0224 260.93 37.1222 258.617 35.3165C256.31 33.511 255.157 30.656 255.157 26.7465C255.157 22.8421 256.31 19.987 258.617 18.1865C260.93 16.3915 264.31 15.4912 268.768 15.4912C273.221 15.4912 276.6 16.3915 278.902 18.1865C281.209 19.987 282.362 22.8421 282.362 26.7465C282.362 30.6558 281.209 33.511 278.902 35.3165ZM274.282 21.3657C273.146 20.1619 271.306 19.56 268.768 19.56C266.224 19.56 264.385 20.1619 263.243 21.3657C262.095 22.5744 261.524 24.3698 261.524 26.7567C261.524 29.1434 262.095 30.9336 263.243 32.1374C264.385 33.336 266.224 33.9379 268.768 33.9379C271.306 33.9379 273.146 33.336 274.282 32.1374C275.418 30.9336 275.989 29.1434 275.989 26.7567C275.989 24.3698 275.418 22.5744 274.282 21.3657ZM285.823 36.1396V17.3738C285.823 16.9624 285.973 16.6228 286.278 16.3502C286.584 16.0776 286.965 15.944 287.426 15.944H290.403C290.841 15.944 291.216 16.0776 291.527 16.3502C291.833 16.6228 291.989 16.9521 291.989 17.343V32.4307L301.603 17.374C301.863 16.9831 302.22 16.6435 302.671 16.3659C303.12 16.0831 303.535 15.9442 303.922 15.9442H308.905C309.344 15.9442 309.718 16.0831 310.018 16.3659C310.324 16.6437 310.474 16.9833 310.474 17.374V36.1398C310.474 36.5307 310.318 36.8651 310.001 37.1377C309.689 37.4155 309.309 37.5544 308.87 37.5544H305.894C305.456 37.5544 305.081 37.4155 304.775 37.1377C304.464 36.8651 304.308 36.5305 304.308 36.1398V22.1528L295.489 36.1398C295.23 36.5307 294.861 36.8651 294.388 37.1377C293.915 37.4155 293.459 37.5544 293.021 37.5544H287.426C286.988 37.5544 286.613 37.4155 286.296 37.1377C285.979 36.8651 285.823 36.5305 285.823 36.1398L285.823 36.1396ZM313.231 18.7934V17.3738C313.231 16.9624 313.38 16.6228 313.686 16.3502C313.986 16.0776 314.373 15.944 314.834 15.944H336.278C336.74 15.944 337.12 16.0776 337.426 16.3502C337.732 16.6228 337.882 16.9624 337.882 17.3738V18.7934C337.882 19.2049 337.731 19.5445 337.426 19.8068C337.12 20.0744 336.74 20.2082 336.278 20.2082H328.74V36.165C328.74 36.5611 328.584 36.8905 328.278 37.1528C327.967 37.4203 327.592 37.554 327.154 37.554H323.959C323.52 37.554 323.145 37.4203 322.834 37.1528C322.522 36.8905 322.372 36.5611 322.372 36.165V20.2082H314.834C314.373 20.2082 313.986 20.0744 313.687 19.8068C313.381 19.5445 313.231 19.2049 313.231 18.7934H313.231ZM340.639 36.1086V17.3738C340.639 16.9624 340.789 16.6228 341.094 16.3502C341.4 16.0776 341.781 15.944 342.242 15.944H345.42C345.858 15.944 346.233 16.0828 346.545 16.3657C346.856 16.6435 347.006 16.9831 347.006 17.3738V23.2947H355.358C358.016 23.2947 360.214 23.9274 361.956 25.1827C363.698 26.4379 364.563 28.1868 364.563 30.4245C364.563 32.6673 363.692 34.4162 361.944 35.6716C360.203 36.9267 358.005 37.5542 355.358 37.5542H342.162C341.741 37.5542 341.383 37.4103 341.089 37.1272C340.789 36.8391 340.639 36.4995 340.639 36.1086ZM347.006 33.2895H355.358C357.25 33.2895 358.196 32.3329 358.196 30.4193C358.196 28.5057 357.25 27.5487 355.358 27.5487H347.006V33.2895Z" fill="#333333"/>
<path d="M23.1342 64.6421H24.9356C27.3371 64.6421 28.5382 63.9387 28.5382 62.5324C28.5382 62.0927 28.4362 61.7316 28.2328 61.4491C28.0293 61.1665 27.7635 60.9469 27.4339 60.7899C27.1049 60.6326 26.7224 60.5229 26.2864 60.4601C25.8507 60.3973 25.3907 60.3659 24.9066 60.3659C24.616 60.3659 24.3205 60.3721 24.0203 60.3846C23.7202 60.3973 23.4249 60.416 23.1342 60.4414V64.6421ZM23.1342 65.9983V70.7074C23.5023 70.7451 23.8654 70.7765 24.2237 70.8016C24.5821 70.827 24.9356 70.8393 25.2843 70.8393C25.8268 70.8393 26.3397 70.8016 26.8242 70.7264C27.3084 70.6509 27.7298 70.5254 28.0882 70.3495C28.4466 70.1736 28.727 69.932 28.9305 69.6242C29.1339 69.3166 29.2355 68.9367 29.2355 68.4846C29.2355 67.7061 28.9112 67.097 28.2622 66.6573C27.6132 66.2179 26.6013 65.9981 25.2263 65.9981H23.1344L23.1342 65.9983ZM20.5195 59.2734C21.1975 59.173 21.89 59.0945 22.5968 59.0381C23.3036 58.9813 24.0059 58.9533 24.7028 58.9533C25.5743 58.9533 26.4026 59.0065 27.1869 59.1134C27.9711 59.2203 28.6638 59.4025 29.2641 59.6597C29.8648 59.9172 30.3439 60.2562 30.7022 60.6769C31.0606 61.0975 31.2397 61.6219 31.2397 62.2497C31.2397 63.0284 30.988 63.6657 30.4842 64.1617C29.9808 64.6578 29.332 65.0251 28.5382 65.2637C29.5257 65.5149 30.3392 65.8978 30.9785 66.4129C31.6173 66.9277 31.937 67.6373 31.937 68.5414C31.937 69.2196 31.7676 69.7911 31.4289 70.2557C31.0896 70.7203 30.6104 71.1002 29.9906 71.3953C29.3708 71.6904 28.6299 71.904 27.7683 72.0358C26.9064 72.1677 25.9623 72.2335 24.9358 72.2335C24.2578 72.2335 23.5508 72.2086 22.8148 72.158C22.0792 72.1079 21.314 72.0324 20.5197 71.932V59.2736L20.5195 59.2734ZM42.1345 72.4216C39.7715 72.4216 37.9606 71.8502 36.7015 70.7074C35.4424 69.5648 34.8131 67.8004 34.8131 65.4143C34.8131 64.1962 34.9924 63.1665 35.3508 62.325C35.7091 61.4836 36.2074 60.7993 36.8469 60.2719C37.4862 59.7445 38.2415 59.3646 39.1132 59.1323C39.9847 58.9 40.9336 58.7838 41.9601 58.7838C42.8121 58.7838 43.6065 58.8559 44.3421 59.0004C45.0781 59.1448 45.6787 59.3235 46.1435 59.5371L45.3593 60.9499C44.8946 60.749 44.3957 60.5857 43.8629 60.4601C43.3305 60.3345 42.7154 60.2719 42.0183 60.2719C40.4686 60.2719 39.3454 60.6894 38.6481 61.5246C37.9506 62.3594 37.6022 63.6563 37.6022 65.4145C37.6022 67.185 37.9701 68.5476 38.7061 69.5022C39.4419 70.4566 40.643 70.9337 42.3085 70.9337C43.1027 70.9337 43.7467 70.8709 44.2405 70.7455C44.7344 70.6198 45.2136 70.4568 45.6785 70.2557L46.405 71.593C45.9594 71.8192 45.3737 72.0139 44.6474 72.177C43.9209 72.3402 43.0833 72.4218 42.1345 72.4218V72.4216ZM49.2813 72.1391V59.0852H58.3167V60.5356H51.896V64.5855H57.7066V65.9983H51.896V70.6887H58.7815V72.1391H49.2813ZM51.3729 57.6722C50.9277 57.6722 50.5452 57.575 50.2256 57.3803C49.9062 57.1855 49.7461 56.925 49.7461 56.5987C49.7461 56.2719 49.9062 56.0114 50.2256 55.817C50.5452 55.6223 50.9277 55.5249 51.3729 55.5249C51.8187 55.5249 52.2014 55.6223 52.5204 55.817C52.8401 56.0116 53.0001 56.2719 53.0001 56.5987C53.0001 56.9252 52.8401 57.1855 52.5204 57.3803C52.2012 57.575 51.8185 57.6722 51.3729 57.6722ZM56.1959 57.6722C55.7503 57.6722 55.368 57.575 55.0483 57.3803C54.7287 57.1855 54.5691 56.925 54.5691 56.5987C54.5691 56.2719 54.7287 56.0114 55.0483 55.817C55.368 55.6223 55.7505 55.5249 56.1959 55.5249C56.641 55.5249 57.0235 55.6223 57.3432 55.817C57.6628 56.0116 57.8226 56.2719 57.8226 56.5987C57.8226 56.9252 57.6628 57.1855 57.3432 57.3803C57.0235 57.575 56.641 57.6722 56.1959 57.6722ZM79.263 75.6239V72.1391H68.3974V75.6239H65.8989V70.7074H67.6713C68.2716 70.0795 68.7606 69.3889 69.138 68.6354C69.5159 67.8817 69.8114 67.0656 70.0244 66.1863C70.2371 65.3074 70.3777 64.3624 70.4458 63.3513C70.5133 62.3405 70.5472 61.2511 70.5472 60.0833V59.0848H79.844V70.707H81.7612V75.6235H79.2628L79.263 75.6239ZM73.1619 60.5354C73.1619 62.5698 72.9925 64.4379 72.6536 66.1394C72.3145 67.841 71.6319 69.3639 70.6054 70.7074H77.2296V60.5356H73.1619V60.5354ZM97.6528 59.085V72.1389H95.0379V60.5163H90.8252V61.364C90.8252 62.0045 90.811 62.6574 90.7818 63.3231C90.7528 63.9886 90.6944 64.6509 90.6074 65.3102C90.5202 65.9697 90.3944 66.6193 90.2295 67.2599C90.0651 67.9004 89.8568 68.5094 89.6051 69.0871C89.1402 70.1546 88.4286 70.9615 87.4696 71.5078C86.5109 72.054 85.2957 72.3271 83.8236 72.3271L83.562 70.8767C84.395 70.789 85.102 70.5943 85.6828 70.2929C86.2637 69.9916 86.7482 69.4641 87.1354 68.7105C87.4068 68.183 87.6197 67.618 87.7747 67.0151C87.9296 66.4125 88.041 65.7939 88.1089 65.1598C88.1769 64.5257 88.2203 63.8852 88.2397 63.2386C88.2588 62.5918 88.2685 61.9671 88.2685 61.3642V59.085H97.6526H97.6528ZM112.585 72.1389H110.029V67.0529H109.302C108.973 67.0529 108.644 67.0469 108.315 67.0342C107.986 67.0215 107.666 67.0028 107.356 66.9778C107.085 67.2792 106.775 67.6496 106.426 68.089C106.078 68.5287 105.729 68.9838 105.381 69.4547C105.032 69.9258 104.703 70.3966 104.383 70.8677C104.063 71.3387 103.797 71.7623 103.584 72.1391H100.965C101.197 71.6493 101.492 71.1314 101.851 70.585C102.209 70.0389 102.577 69.5115 102.955 69.0028C103.332 68.4941 103.695 68.0234 104.044 67.59C104.392 67.1568 104.683 66.8083 104.916 66.5446C104.025 66.2555 103.318 65.832 102.795 65.2732C102.272 64.7141 102.01 63.9641 102.01 63.0222C102.01 62.344 102.17 61.7507 102.49 61.242C102.809 60.7333 103.26 60.3097 103.841 59.9705C104.421 59.6313 105.119 59.3771 105.932 59.2076C106.746 59.0383 107.656 58.9535 108.663 58.9535C109.922 58.9535 111.23 59.06 112.585 59.2736V72.1393V72.1389ZM110.029 60.4976C109.583 60.4599 109.118 60.4412 108.634 60.4412C108.053 60.4412 107.525 60.4851 107.051 60.5731C106.576 60.6608 106.17 60.8021 105.83 60.9968C105.492 61.1917 105.23 61.4554 105.046 61.7881C104.862 62.1209 104.77 62.5322 104.77 63.0219C104.77 63.989 105.129 64.6702 105.845 65.0658C106.562 65.4614 107.588 65.6591 108.925 65.6591H110.029V60.4978L110.029 60.4976ZM129.61 72.4213C127.247 72.4213 125.436 71.85 124.177 70.7072C122.918 69.5646 122.289 67.8001 122.289 65.4141C122.289 64.196 122.468 63.1663 122.826 62.3248C123.184 61.4834 123.683 60.7991 124.322 60.2717C124.962 59.7443 125.717 59.3644 126.589 59.1321C127.46 58.8998 128.409 58.7836 129.436 58.7836C130.288 58.7836 131.082 58.8557 131.818 59.0002C132.554 59.1446 133.154 59.3234 133.619 59.5369L132.835 60.9497C132.37 60.7488 131.871 60.5855 131.338 60.4599C130.806 60.3343 130.191 60.2717 129.494 60.2717C127.944 60.2717 126.821 60.6892 126.124 61.5244C125.426 62.3592 125.078 63.6561 125.078 65.4143C125.078 67.1848 125.446 68.5474 126.182 69.502C126.918 70.4564 128.119 70.9335 129.784 70.9335C130.579 70.9335 131.222 70.8707 131.716 70.7453C132.21 70.6196 132.689 70.4566 133.154 70.2555L133.881 71.5928C133.435 71.819 132.849 72.0137 132.123 72.1768C131.397 72.34 130.559 72.4216 129.61 72.4216L129.61 72.4213ZM147.012 59.085V60.5354H142.538V72.1389H139.923V60.5354H135.449V59.085H147.012ZM149.859 59.2732C151.215 59.0596 152.541 58.9531 153.839 58.9531C154.846 58.9531 155.761 59.0316 156.584 59.1885C157.407 59.3453 158.114 59.5903 158.705 59.9232C159.296 60.256 159.751 60.686 160.07 61.2134C160.39 61.741 160.55 62.3749 160.55 63.1159C160.55 63.8694 160.385 64.513 160.056 65.0467C159.726 65.5803 159.262 66.0138 158.661 66.3465C158.061 66.6793 157.34 66.9211 156.497 67.0718C155.654 67.2224 154.72 67.2979 153.693 67.2979H152.473V72.1389H149.858V59.2732H149.859ZM152.473 65.8096H153.519C154.178 65.8096 154.773 65.7625 155.306 65.6683C155.839 65.5739 156.289 65.4203 156.657 65.2067C157.025 64.9931 157.306 64.7169 157.499 64.3779C157.693 64.0387 157.79 63.6182 157.79 63.1158C157.79 62.6135 157.693 62.1895 157.499 61.8443C157.306 61.4989 157.039 61.2227 156.7 61.0155C156.361 60.8082 155.95 60.6606 155.466 60.5729C154.982 60.4849 154.449 60.441 153.868 60.441C153.365 60.441 152.9 60.4597 152.473 60.4974V65.8094V65.8096ZM177.604 65.6214C177.604 66.6386 177.463 67.5646 177.182 68.3997C176.902 69.2349 176.466 69.9505 175.875 70.547C175.284 71.1437 174.539 71.6051 173.638 71.9316C172.738 72.2581 171.677 72.4213 170.457 72.4213C169.237 72.4213 168.176 72.2581 167.276 71.9316C166.375 71.6051 165.63 71.1437 165.039 70.547C164.448 69.9505 164.008 69.2349 163.717 68.3997C163.427 67.5644 163.281 66.6384 163.281 65.6214C163.281 64.604 163.427 63.6748 163.717 62.8335C164.008 61.9921 164.448 61.273 165.039 60.6765C165.63 60.0801 166.375 59.6154 167.276 59.2827C168.176 58.9499 169.237 58.7836 170.457 58.7836C171.677 58.7836 172.738 58.9499 173.638 59.2827C174.539 59.6154 175.284 60.0801 175.875 60.6765C176.466 61.273 176.902 61.9921 177.182 62.8335C177.463 63.6748 177.604 64.604 177.604 65.6214ZM174.815 65.6214C174.815 64.8301 174.737 64.108 174.582 63.4552C174.427 62.8021 174.176 62.2401 173.827 61.7692C173.478 61.2982 173.028 60.931 172.476 60.6673C171.924 60.4036 171.251 60.2717 170.457 60.2717C169.663 60.2717 168.99 60.4036 168.438 60.6673C167.886 60.931 167.435 61.2982 167.087 61.7692C166.739 62.2403 166.482 62.8023 166.317 63.4552C166.153 64.1082 166.07 64.8301 166.07 65.6214C166.07 66.4126 166.153 67.1346 166.317 67.7875C166.482 68.4407 166.739 68.9995 167.087 69.4642C167.435 69.9288 167.886 70.2897 168.438 70.5472C168.99 70.8049 169.663 70.9333 170.457 70.9333C171.251 70.9333 171.924 70.8047 172.476 70.5472C173.028 70.2897 173.478 69.929 173.827 69.4642C174.176 68.9995 174.427 68.4407 174.582 67.7875C174.737 67.1344 174.815 66.4126 174.815 65.6214ZM181.671 72.1389V59.085H184.111V68.4468C185.118 66.9273 186.217 65.4108 187.413 63.8976C188.615 62.3844 190.004 60.7802 191.587 59.0848H193.669V72.1387H191.229V62.1364C190.57 62.8772 189.902 63.6778 189.224 64.5382C188.546 65.3984 187.883 66.265 187.234 67.1375C186.585 68.0103 185.966 68.8767 185.375 69.7371C184.784 70.5973 184.256 71.3979 183.792 72.1389H181.671ZM187.859 56.655C188.382 56.655 188.789 56.5481 189.079 56.3349C189.37 56.1214 189.573 55.7759 189.689 55.2988L191.519 55.5625C191.326 56.3786 190.9 56.9628 190.241 57.3143C189.583 57.6658 188.789 57.8417 187.859 57.8417C186.929 57.8417 186.135 57.6658 185.477 57.3143C184.818 56.9628 184.392 56.3786 184.198 55.5625L186.029 55.2988C186.145 55.7759 186.348 56.1214 186.639 56.3349C186.929 56.5483 187.336 56.655 187.859 56.655ZM210.054 59.085C209.628 59.512 209.149 59.9828 208.616 60.4945C208.083 61.0093 207.537 61.5399 206.98 62.0861C206.418 62.6324 205.852 63.1663 205.28 63.6937C204.709 64.2211 204.162 64.7109 203.639 65.1628C204.22 65.5397 204.849 66.0138 205.527 66.5851C206.205 67.1566 206.873 67.7623 207.532 68.3966C208.186 69.0307 208.805 69.6743 209.386 70.3274C209.967 70.9836 210.432 71.5863 210.781 72.1389H207.846C207.439 71.5612 206.97 70.9679 206.437 70.365C205.904 69.7621 205.343 69.1813 204.752 68.6195C204.161 68.0604 203.561 67.5427 202.951 67.0654C202.341 66.5851 201.745 66.1833 201.164 65.8567V72.1389H198.549V59.085H201.164V64.8398C201.668 64.4253 202.2 63.9542 202.762 63.4302C203.324 62.9028 203.881 62.3751 204.433 61.8509C204.984 61.3235 205.502 60.8178 205.987 60.3345C206.471 59.8542 206.878 59.4367 207.207 59.085H210.054H210.054ZM213.511 72.1389V59.085H215.952V68.4468C216.959 66.9273 218.058 65.4108 219.254 63.8976C220.455 62.3844 221.844 60.7802 223.428 59.0848H225.51V72.1387H223.069V62.1364C222.411 62.8772 221.743 63.6778 221.065 64.5382C220.387 65.3984 219.723 66.265 219.075 67.1375C218.426 68.0103 217.806 68.8767 217.215 69.7371C216.625 70.5973 216.097 71.3979 215.632 72.1389H213.511ZM236.055 72.1389V59.085H238.496V68.4468C239.503 66.9273 240.602 65.4108 241.798 63.8976C242.999 62.3844 244.389 60.7802 245.972 59.0848H248.054V72.1387H245.613V62.1364C244.955 62.8772 244.287 63.6778 243.609 64.5382C242.931 65.3984 242.268 66.265 241.619 67.1375C240.97 68.0103 240.35 68.8767 239.759 69.7371C239.169 70.5973 238.641 71.3979 238.176 72.1389H236.055H236.055ZM258.6 59.2732C259.956 59.0596 261.282 58.9531 262.58 58.9531C263.587 58.9531 264.502 59.0316 265.325 59.1885C266.148 59.3453 266.855 59.5903 267.446 59.9232C268.037 60.256 268.492 60.686 268.811 61.2134C269.131 61.741 269.291 62.3749 269.291 63.1159C269.291 63.8694 269.126 64.513 268.797 65.0467C268.468 65.5803 268.003 66.0138 267.402 66.3465C266.802 66.6793 266.081 66.9211 265.238 67.0718C264.395 67.2224 263.461 67.2979 262.434 67.2979H261.214V72.1389H258.6V59.2732ZM261.214 65.8096H262.261C262.919 65.8096 263.515 65.7625 264.047 65.6683C264.579 65.5739 265.03 65.4203 265.398 65.2067C265.766 64.9931 266.047 64.7169 266.24 64.3779C266.434 64.0387 266.531 63.6182 266.531 63.1158C266.531 62.6135 266.434 62.1895 266.24 61.8443C266.047 61.4989 265.78 61.2227 265.441 61.0155C265.103 60.8082 264.691 60.6606 264.207 60.5729C263.723 60.4849 263.19 60.441 262.609 60.441C262.105 60.441 261.641 60.4597 261.214 60.4974V65.8094V65.8096ZM272.69 72.1389V59.085H281.726V60.5354H275.305V64.5853H281.115V65.9981H275.305V70.6885H282.19V72.1389H272.69ZM292.939 70.3306C292.552 69.4263 292.155 68.5599 291.749 67.7309C291.342 66.9021 290.949 66.1202 290.572 65.3857C290.194 64.6509 289.831 63.9824 289.482 63.3795C289.134 62.7766 288.814 62.2491 288.524 61.7972C288.446 62.5128 288.383 63.301 288.335 64.1611C288.287 65.0213 288.238 65.9037 288.19 66.8077C288.141 67.7118 288.102 68.6193 288.073 69.5296C288.045 70.4401 288.02 71.3097 288.001 72.1385H285.502C285.56 71.0082 285.619 69.8686 285.676 68.7197C285.735 67.5705 285.807 66.4403 285.895 65.3289C285.982 64.2175 286.079 63.1345 286.185 62.0794C286.292 61.0246 286.413 60.0263 286.548 59.0846H289.124C289.473 59.6245 289.87 60.2681 290.32 61.0153C290.765 61.7624 291.216 62.5442 291.671 63.3605C292.126 64.1766 292.567 64.9929 292.998 65.8092C293.424 66.6253 293.792 67.3728 294.102 68.0508C294.412 67.3728 294.77 66.6255 295.177 65.8092C295.583 64.9927 296.004 64.1766 296.45 63.3605C296.896 62.544 297.336 61.7624 297.772 61.0153C298.207 60.2681 298.6 59.6245 298.948 59.0846H301.539C301.675 60.0263 301.796 61.0248 301.902 62.0794C302.009 63.1345 302.106 64.2175 302.193 65.3289C302.28 66.4401 302.352 67.5705 302.411 68.7197C302.469 69.8688 302.527 71.0084 302.585 72.1385H300.087C300.048 71.3097 300.014 70.4369 299.985 69.5201C299.956 68.6034 299.917 67.6836 299.868 66.7606C299.82 65.8374 299.767 64.9398 299.709 64.0669C299.651 63.1941 299.583 62.3937 299.505 61.6651C299.331 61.979 299.113 62.3715 298.852 62.8424C298.59 63.3134 298.319 63.8252 298.038 64.3776C297.758 64.9299 297.467 65.4984 297.167 66.0822C296.866 66.6662 296.586 67.228 296.324 67.7682C296.063 68.3081 295.83 68.8011 295.627 69.2469C295.423 69.6926 295.264 70.0538 295.147 70.3302H292.939V70.3306ZM320.539 65.6214C320.539 66.6386 320.398 67.5646 320.118 68.3997C319.837 69.2349 319.401 69.9505 318.81 70.547C318.22 71.1437 317.474 71.6051 316.573 71.9316C315.673 72.2581 314.612 72.4213 313.392 72.4213C312.172 72.4213 311.112 72.2581 310.211 71.9316C309.31 71.6051 308.565 71.1437 307.974 70.547C307.384 69.9505 306.943 69.2349 306.652 68.3997C306.362 67.5644 306.217 66.6384 306.217 65.6214C306.217 64.604 306.362 63.6748 306.652 62.8335C306.943 61.9921 307.384 61.273 307.974 60.6765C308.565 60.0801 309.311 59.6154 310.211 59.2827C311.112 58.9499 312.172 58.7836 313.392 58.7836C314.612 58.7836 315.673 58.9499 316.573 59.2827C317.474 59.6154 318.22 60.0801 318.81 60.6765C319.401 61.273 319.837 61.9921 320.118 62.8335C320.398 63.6748 320.539 64.604 320.539 65.6214ZM317.75 65.6214C317.75 64.8301 317.672 64.108 317.518 63.4552C317.363 62.8021 317.111 62.2401 316.762 61.7692C316.414 61.2982 315.963 60.931 315.412 60.6673C314.86 60.4036 314.186 60.2717 313.392 60.2717C312.598 60.2717 311.925 60.4036 311.373 60.6673C310.821 60.931 310.371 61.2982 310.022 61.7692C309.674 62.2403 309.417 62.8023 309.252 63.4552C309.088 64.1082 309.005 64.8301 309.005 65.6214C309.005 66.4126 309.088 67.1346 309.252 67.7875C309.417 68.4407 309.674 68.9995 310.022 69.4642C310.371 69.9288 310.821 70.2897 311.373 70.5472C311.925 70.8049 312.598 70.9333 313.392 70.9333C314.186 70.9333 314.859 70.8047 315.412 70.5472C315.963 70.2897 316.414 69.929 316.762 69.4642C317.111 68.9995 317.363 68.4407 317.518 67.7875C317.673 67.1344 317.75 66.4126 317.75 65.6214ZM333.845 59.085H336.459V72.1389H333.845V66.0733H327.221V72.1389H324.606V59.085H327.221V64.604H333.845V59.085ZM350.869 59.085V60.5354H346.395V72.1389H343.781V60.5354H339.307V59.085H350.869ZM359.105 59.085C359.57 60.0237 360.03 60.9751 360.485 61.9357C360.936 62.8963 361.381 63.9041 361.816 64.9589C362.253 66.0138 362.688 67.1314 363.124 68.3119C363.56 69.4956 363.996 70.77 364.437 72.1389H361.822C361.672 71.5739 361.517 71.015 361.352 70.4624C361.188 69.9096 361.023 69.3573 360.848 68.8049H354.501C354.302 69.3573 354.128 69.9098 353.973 70.4624C353.818 71.0148 353.663 71.5737 353.513 72.1389H350.986C351.412 70.77 351.852 69.4956 352.297 68.3149C352.743 67.1346 353.188 66.02 353.624 64.9652C354.06 63.9103 354.51 62.9026 354.965 61.9417C355.421 60.9811 355.885 60.0299 356.35 59.085H359.105H359.105ZM357.682 61.0063C357.212 62.0516 356.752 63.1002 356.307 64.1551C355.856 65.2099 355.431 66.2867 355.024 67.3919H360.296C359.909 66.2867 359.493 65.2069 359.052 64.1521C358.607 63.0972 358.152 62.0484 357.682 61.0063Z" fill="white"/>
</svg>