<svg width="380" height="187" viewBox="0 0 380 187" fill="none" xmlns="http://www.w3.org/2000/svg">
<path fill-rule="evenodd" clip-rule="evenodd" d="M0 95.9257L125.129 96.0682L124.164 99.9346L4.29014 99.7921V183.134H374.957V99.7921L262.868 99.7619L261.044 95.8955L379.247 95.9257V187H0V95.9257Z" fill="#FF781F"/>
<path fill-rule="evenodd" clip-rule="evenodd" d="M135.782 76.8957L159.286 79.5614V99.8834H153.979V81.366L152.533 81.204V99.8832H150.704V80.9988L149.258 80.837V99.8832H147.61V80.6522L146.165 80.49V99.8832H144.463V80.2997L143.017 80.1373V99.8832H141.38V79.9538L139.934 79.792V99.8832H135.781V76.8955L135.782 76.8957ZM241.908 76.6029V99.8834H240.462V75.8351L241.908 76.6031V76.6029ZM238.503 75.1556V99.8834H237.058V74.3739L238.503 75.1556ZM235.008 73.5229V99.8834H233.562V72.7252L235.008 73.5229ZM231.712 71.8579V99.8834H230.266V71.0436L231.712 71.8579ZM200.454 99.8834V62.9955L200.452 62.994V14.1223L201.898 15.568V46.7017L206.979 44.5308V19.0805L208.425 20.526V43.9131L212.134 42.3286L211.863 66.5405L216.094 65.937V46.3878L217.54 47.8331V65.7309L219.82 65.4058V48.9252L221.265 50.3707V65.1995L222.805 64.9803V99.8837H200.454L200.454 99.8834ZM226.904 99.8834V69.5849L228.349 70.4125V99.8834H226.904ZM230.174 55.8369L230.214 68.7179L231.662 69.4418L231.62 56.9982L230.174 55.8369ZM226.829 53.6579L226.87 67.0464L228.319 67.7709L228.275 54.8361L226.829 53.6579ZM223.417 51.4684L223.456 65.3074L224.904 66.0373L224.863 52.8075L223.417 51.4684H223.417ZM203.728 16.5856V45.9202L205.173 45.3023V18.0311L203.728 16.5856ZM194.089 9.24688V58.1184L195.535 59.4304V10.6924L194.089 9.24688ZM197.246 11.8758V99.8835H198.692V13.2031L197.246 11.8758ZM189.664 0L178.539 11.9257V49.8887L161.459 51.9278V99.8835H165.367V53.5756L166.813 53.2819V99.8837H168.772V53.2446L170.218 52.9373V99.8837H172.267V52.7582L173.713 52.4347V99.8837H175.563V52.1736L177.009 51.8336V99.8837H178.926V51.832L180.372 51.478V99.8839H184.281V50.1761L189.486 53.8828L189.664 0.000183882V0Z" fill="#FF781F"/>
<path d="M19.0822 133.505V113.964C19.0822 113.536 19.2305 113.183 19.5321 112.899C19.8342 112.616 20.2099 112.477 20.6655 112.477H39.4575C39.8907 112.477 40.261 112.621 40.5685 112.915C40.876 113.204 41.0299 113.557 41.0299 113.964V115.44C41.0299 115.847 40.8817 116.194 40.5854 116.478C40.289 116.767 39.9246 116.911 39.4916 116.911H25.3706V120.704H33.6189C36.3189 120.704 38.5117 121.303 40.1924 122.496C41.8728 123.694 42.7099 125.47 42.7099 127.824C42.7099 130.183 41.8728 131.959 40.1924 133.158C38.5117 134.35 36.3189 134.95 33.6189 134.95H20.5858C20.1587 134.95 19.8056 134.811 19.5152 134.532C19.2244 134.26 19.082 133.917 19.082 133.505L19.0822 133.505ZM25.371 130.515H33.6193C35.4877 130.515 36.4218 129.616 36.4218 127.819C36.4218 126.022 35.4879 125.123 33.6193 125.123H25.371V130.515V130.515ZM50.6739 130.232L53.4765 130.515H53.824C56.0396 130.515 57.5549 129.156 58.364 126.439H56.9283C54.1259 126.439 51.9385 125.904 50.3722 124.834C48.8057 123.764 47.4556 122.02 46.3335 119.607L43.7132 113.964C43.5252 113.546 43.5196 113.193 43.7017 112.904C43.8896 112.621 44.1974 112.476 44.6301 112.476H48.1507C49.2215 112.476 49.962 112.953 50.3722 113.899L52.2916 118.259C52.8556 119.522 53.5675 120.463 54.4278 121.089C55.2822 121.71 56.4101 122.02 57.8171 122.02H59.8677L62.8868 113.931C63.0463 113.482 63.3139 113.129 63.7071 112.867C64.0943 112.605 64.5158 112.476 64.9715 112.476H68.3435C68.7765 112.476 69.0783 112.589 69.2435 112.814C69.4145 113.038 69.4942 113.236 69.4942 113.407C69.4942 113.578 69.4657 113.744 69.4143 113.899L63.9745 128.525C63.2171 130.585 62.0777 132.168 60.551 133.281C59.0242 134.394 56.8941 134.95 54.16 134.95H50.1382C49.7053 134.95 49.3294 134.805 49.0219 134.517C48.7087 134.233 48.5546 133.885 48.5546 133.479V131.708C48.5546 131.296 48.7028 130.948 49.0045 130.665C49.301 130.376 49.6823 130.231 50.1382 130.231H50.6739V130.232ZM68.3435 133.479V131.97C68.3435 131.564 68.4974 131.221 68.8049 130.938C69.1068 130.654 69.4772 130.515 69.91 130.515H71.2143L74.3189 118.65C75.3953 114.536 79.0125 112.477 85.1645 112.477H94.1763C94.6091 112.477 94.9795 112.616 95.2871 112.899C95.5946 113.183 95.7485 113.525 95.7485 113.932V133.505C95.7485 133.917 95.5946 134.26 95.2871 134.533C94.9793 134.811 94.6089 134.95 94.1763 134.95H69.91C69.477 134.95 69.1066 134.805 68.8049 134.517C68.4974 134.233 68.3435 133.885 68.3435 133.479ZM77.64 130.515H89.4712V116.911H84.4811C83.4216 116.911 82.55 117.184 81.861 117.724C81.1717 118.27 80.6988 119.024 80.4425 119.998L77.64 130.515ZM100.533 133.447V113.932C100.533 113.525 100.687 113.183 101 112.899C101.313 112.616 101.684 112.477 102.117 112.477H121.359C121.792 112.477 122.162 112.621 122.469 112.915C122.777 113.204 122.931 113.557 122.931 113.964V115.44C122.931 115.847 122.777 116.194 122.469 116.478C122.162 116.767 121.792 116.911 121.359 116.911H106.822V121.469H119.342C119.775 121.469 120.145 121.614 120.453 121.902C120.755 122.191 120.908 122.539 120.908 122.946V124.417C120.908 124.823 120.755 125.171 120.453 125.46C120.145 125.749 119.775 125.893 119.342 125.893H106.822V130.515H121.324C121.752 130.515 122.11 130.654 122.412 130.938C122.709 131.221 122.862 131.564 122.862 131.971V133.479C122.862 133.886 122.709 134.233 122.395 134.517C122.082 134.806 121.712 134.95 121.279 134.95H102.116C101.683 134.95 101.313 134.806 101 134.517C100.687 134.233 100.533 133.875 100.533 133.447H100.533ZM126.001 133.447V113.996C126.001 113.568 126.149 113.204 126.451 112.915C126.753 112.621 127.118 112.477 127.551 112.477H134.346C134.779 112.477 135.189 112.621 135.582 112.915C135.969 113.204 136.231 113.557 136.363 113.964L141.29 127.348L146.211 113.964C146.342 113.557 146.604 113.204 146.997 112.915C147.385 112.621 147.795 112.477 148.228 112.477H155.023C155.456 112.477 155.821 112.621 156.117 112.915C156.408 113.204 156.556 113.568 156.556 113.996V133.447C156.556 133.875 156.402 134.233 156.1 134.517C155.792 134.806 155.422 134.95 154.989 134.95H151.982C151.549 134.95 151.178 134.806 150.877 134.517C150.569 134.233 150.415 133.875 150.415 133.447V118.131L144.525 133.538C144.372 133.928 144.098 134.26 143.705 134.533C143.318 134.811 142.908 134.95 142.475 134.95H140.088C139.649 134.95 139.245 134.811 138.857 134.533C138.476 134.26 138.202 133.928 138.031 133.538L132.159 118.131V133.447C132.159 133.875 132.005 134.233 131.697 134.517C131.395 134.806 131.025 134.95 130.592 134.95H127.585C127.152 134.95 126.781 134.806 126.468 134.517C126.155 134.233 126.001 133.875 126.001 133.447ZM175.04 132.302C172.978 130.451 171.947 127.589 171.947 123.721C171.947 119.848 172.978 116.986 175.04 115.13C177.102 113.279 180.201 112.348 184.331 112.348H188.051C190.574 112.348 192.807 112.969 194.749 114.199C196.692 115.435 197.66 117.12 197.66 119.26C197.66 119.88 197.466 120.319 197.079 120.587C196.686 120.854 196.31 120.988 195.946 120.988H193.958C192.932 120.988 192.14 120.41 191.571 119.26C190.751 117.612 189.378 116.783 187.464 116.783H184.496C182.058 116.783 180.406 117.275 179.541 118.26C178.669 119.239 178.236 121.057 178.236 123.711C178.236 126.364 178.669 128.188 179.541 129.173C180.406 130.162 182.058 130.654 184.496 130.654H187.817C189.731 130.654 191.092 129.831 191.907 128.178C192.471 127.022 193.274 126.439 194.305 126.439H196.293C196.817 126.439 197.233 126.621 197.535 126.99C197.842 127.354 197.996 127.75 197.996 128.178C197.996 130.323 197.028 132.008 195.091 133.233C193.154 134.463 190.927 135.073 188.398 135.073H184.331C180.201 135.073 177.102 134.153 175.04 132.302L175.04 132.302ZM198.845 115.44V113.964C198.845 113.536 198.993 113.183 199.295 112.899C199.591 112.616 199.973 112.477 200.429 112.477H221.607C222.063 112.477 222.439 112.616 222.741 112.899C223.043 113.183 223.191 113.536 223.191 113.964V115.44C223.191 115.868 223.043 116.221 222.741 116.494C222.439 116.772 222.063 116.911 221.607 116.911H214.162V133.505C214.162 133.917 214.009 134.26 213.707 134.533C213.399 134.811 213.029 134.95 212.596 134.95H209.44C209.007 134.95 208.637 134.811 208.329 134.533C208.022 134.26 207.874 133.917 207.874 133.505V116.911H200.429C199.973 116.911 199.591 116.772 199.295 116.494C198.993 116.221 198.845 115.868 198.845 115.44H198.845ZM225.914 133.479V113.964C225.914 113.557 226.062 113.204 226.363 112.915C226.666 112.621 227.03 112.477 227.463 112.477H240.2C246.927 112.477 250.294 115.387 250.294 121.212C250.294 127.038 246.928 129.948 240.2 129.948H232.202V133.479C232.202 133.886 232.054 134.234 231.747 134.517C231.439 134.806 231.069 134.95 230.636 134.95H227.497C227.064 134.95 226.694 134.806 226.381 134.517C226.067 134.234 225.914 133.886 225.914 133.479L225.914 133.479ZM232.202 125.513H238.298C240.166 125.513 241.584 125.219 242.553 124.631C243.521 124.037 244.005 122.903 244.005 121.212C244.005 119.527 243.521 118.388 242.553 117.794C241.584 117.206 240.165 116.912 238.298 116.912H232.202V125.514V125.513ZM275.448 132.623C273.176 134.501 269.838 135.437 265.44 135.437C261.037 135.437 257.699 134.501 255.415 132.623C253.136 130.745 251.997 127.776 251.997 123.711C251.997 119.65 253.136 116.681 255.415 114.809C257.699 112.942 261.037 112.006 265.44 112.006C269.838 112.006 273.176 112.942 275.448 114.809C277.727 116.681 278.866 119.65 278.866 123.711C278.866 127.776 277.727 130.745 275.448 132.623ZM270.886 118.115C269.763 116.863 267.946 116.237 265.44 116.237C262.928 116.237 261.111 116.863 259.983 118.115C258.85 119.372 258.286 121.239 258.286 123.721C258.286 126.203 258.85 128.065 259.983 129.317C261.111 130.563 262.928 131.189 265.44 131.189C267.947 131.189 269.763 130.563 270.886 129.317C272.008 128.065 272.572 126.203 272.572 123.721C272.572 121.239 272.008 119.372 270.886 118.115ZM282.284 133.479V113.964C282.284 113.536 282.432 113.183 282.734 112.899C283.036 112.616 283.412 112.477 283.867 112.477H286.807C287.24 112.477 287.61 112.616 287.918 112.899C288.22 113.183 288.373 113.525 288.373 113.932V129.622L297.869 113.964C298.125 113.557 298.478 113.204 298.923 112.915C299.367 112.621 299.777 112.477 300.159 112.477H305.08C305.513 112.477 305.884 112.621 306.18 112.915C306.482 113.204 306.63 113.558 306.63 113.964V133.479C306.63 133.886 306.476 134.233 306.163 134.517C305.855 134.806 305.479 134.95 305.046 134.95H302.107C301.674 134.95 301.303 134.806 301.002 134.517C300.694 134.233 300.54 133.885 300.54 133.479V118.934L291.831 133.479C291.574 133.886 291.21 134.233 290.743 134.517C290.276 134.806 289.826 134.95 289.393 134.95H283.867C283.434 134.95 283.064 134.806 282.751 134.517C282.438 134.233 282.284 133.885 282.284 133.479L282.284 133.479ZM309.353 115.44V113.964C309.353 113.536 309.5 113.183 309.802 112.899C310.098 112.616 310.48 112.477 310.936 112.477H332.114C332.57 112.477 332.946 112.616 333.248 112.899C333.55 113.183 333.698 113.536 333.698 113.964V115.44C333.698 115.868 333.55 116.221 333.248 116.494C332.946 116.772 332.57 116.911 332.114 116.911H324.669V133.505C324.669 133.917 324.516 134.26 324.214 134.532C323.906 134.811 323.536 134.95 323.103 134.95H319.948C319.514 134.95 319.144 134.811 318.837 134.532C318.529 134.26 318.381 133.917 318.381 133.505V116.911H310.936C310.48 116.911 310.098 116.772 309.803 116.494C309.501 116.221 309.353 115.868 309.353 115.44H309.353ZM336.421 133.447V113.964C336.421 113.536 336.569 113.183 336.871 112.899C337.173 112.616 337.549 112.477 338.004 112.477H341.143C341.576 112.477 341.947 112.621 342.254 112.915C342.562 113.204 342.71 113.557 342.71 113.964V120.121H350.958C353.584 120.121 355.754 120.779 357.474 122.084C359.195 123.39 360.049 125.208 360.049 127.536C360.049 129.868 359.189 131.687 357.463 132.992C355.743 134.297 353.572 134.95 350.958 134.95H337.925C337.51 134.95 337.156 134.8 336.866 134.506C336.569 134.206 336.421 133.853 336.421 133.447ZM342.71 130.515H350.958C352.826 130.515 353.761 129.52 353.761 127.53C353.761 125.54 352.826 124.545 350.958 124.545H342.71V130.515Z" fill="#FF781F"/>
<path fill-rule="evenodd" clip-rule="evenodd" d="M213.835 18.1801C249.593 26.7633 277.091 55.9106 282.485 92.0804H279.174C273.849 57.6862 247.778 29.9549 213.835 21.4829V18.1801ZM174.846 20.4376C138.605 27.4123 110.327 56.0983 104.756 92.0802H101.445C107.075 54.3238 136.791 24.2164 174.846 17.1675V20.4376H174.846Z" fill="#FF781F"/>
</svg>
