<svg width="20" height="20" viewBox="0 0 20 20" fill="none" xmlns="http://www.w3.org/2000/svg">
<path fill-rule="evenodd" clip-rule="evenodd" d="M8.98002 4.25519C9.56505 4.90509 9.38004 5.64102 8.86207 6.33889C8.72725 6.51696 8.58162 6.68656 8.42605 6.84684C8.334 6.94304 8.24068 7.03804 8.14602 7.13176L7.37901 7.89965C7.27906 7.99966 7.96503 9.36943 9.29604 10.7022C10.6261 12.033 11.996 12.72 12.097 12.619L12.8641 11.8521C13.286 11.4302 13.509 11.2262 13.816 11.0252C14.4541 10.6052 15.151 10.4922 15.7381 11.0172C17.655 12.389 18.74 13.2299 19.272 13.7818C20.3091 14.8596 20.172 16.5174 19.278 17.4632C18.968 17.7912 18.574 18.1851 18.109 18.633C15.298 21.4456 9.36402 19.7339 4.81605 15.1835C0.268064 10.6302 -1.44393 4.69613 1.36306 1.88955C1.86607 1.37762 2.03306 1.21165 2.52306 0.728724C3.43606 -0.171142 5.17102 -0.312121 6.22603 0.728724C6.78007 1.27764 7.66504 2.41447 8.98002 4.25419V4.25519ZM14.277 13.2659L13.511 14.0327C12.208 15.3356 9.99007 14.2247 7.88202 12.116C5.77306 10.0053 4.66305 7.78764 5.96605 6.48485L6.73207 5.71901C6.85504 5.59599 6.91207 5.53904 6.97807 5.46902C7.07005 5.37205 7.14501 5.28707 7.20607 5.21205C6.04003 3.58929 5.24803 2.57544 4.82106 2.15251C4.60106 1.93554 4.10706 1.97553 3.92505 2.15451C3.44206 2.63044 3.28306 2.78941 2.78106 3.29934C0.977065 5.10407 2.35806 9.89333 6.23104 13.7687C10.101 17.6432 14.8911 19.025 16.7091 17.2062C17.166 16.7653 17.539 16.3914 17.826 16.0884C18.034 15.8684 18.071 15.4175 17.832 15.1686C17.4351 14.7566 16.462 13.9988 14.782 12.792C14.6058 12.9413 14.4373 13.0995 14.277 13.2659Z" fill="white"/>
</svg>
