<svg width="25" height="25" viewBox="0 0 25 25" fill="none" xmlns="http://www.w3.org/2000/svg">
<path d="M6.18338 0.585484C7.12311 1.88548 8.2437 3.56452 9.53955 5.61532C9.86592 6.17016 9.81608 6.83468 9.39404 7.61613C9.23327 7.94355 8.82651 8.68952 8.17859 9.86371C8.89162 10.8718 9.97766 12.1113 11.4391 13.5734C12.9005 15.0355 14.1168 16.129 15.0871 16.8444C16.2527 16.1589 17.0011 15.7403 17.3283 15.5742C17.7503 15.3476 18.157 15.2315 18.5437 15.2315C18.8355 15.2315 19.0968 15.2968 19.3227 15.4282C20.8146 16.3403 22.5028 17.4645 24.3822 18.7952C24.7391 19.0573 24.9401 19.4153 24.99 19.8685C25.0406 20.3274 24.8991 20.8113 24.5784 21.3355C24.4176 21.5621 24.1563 21.8952 23.7994 22.3387C23.4425 22.7774 22.9047 23.3315 22.1917 23.9968C21.4786 24.6621 20.895 25 20.4384 25H20.3878C16.9561 24.8637 12.7261 22.2831 7.71717 17.2581C2.70342 12.2274 0.130227 7.98871 0 4.54113C0 4.0871 0.331195 3.49274 1.00002 2.75726C1.66321 2.02661 2.21065 1.49677 2.62786 1.16935C3.04989 0.846774 3.40681 0.584677 3.69781 0.387903C4.05473 0.125806 4.46149 0 4.91407 0C5.47195 0 5.88836 0.196774 6.18499 0.584677L6.18338 0.585484ZM4.57564 1.60887C3.89235 2.09758 3.25407 2.64677 2.65117 3.24677C2.05309 3.85161 1.7018 4.29516 1.60614 4.5871C1.73717 7.61613 4.14315 11.4718 8.83133 16.1597C13.5195 20.8476 17.3725 23.2718 20.387 23.4331C20.6482 23.3371 21.0751 22.979 21.678 22.3597C22.2809 21.7403 22.8235 21.0895 23.3058 20.4089C23.4015 20.2774 23.4369 20.1669 23.4015 20.0661C21.4569 18.7 19.8339 17.6113 18.5333 16.7952C18.4022 16.7952 18.2415 16.846 18.0461 16.9411C17.7543 17.1024 17.026 17.5105 15.8556 18.1605L15.0268 18.6492L14.198 18.1097C13.128 17.3637 11.8314 16.204 10.304 14.6419C8.78149 13.1145 7.64643 11.8097 6.89722 10.7355L6.31441 9.95403L6.80156 9.07661C7.44948 7.90726 7.85704 7.17097 8.01701 6.87903C8.11267 6.68226 8.16251 6.52097 8.16251 6.39032C7.00655 4.54032 5.93659 2.9121 4.9623 1.51129H4.91166C4.78625 1.51129 4.67049 1.54677 4.57483 1.60726L4.57564 1.60887Z" fill="#FF781F"/>
</svg>
