<svg width="71" height="281" viewBox="0 0 71 281" fill="none" xmlns="http://www.w3.org/2000/svg">
<g filter="url(#filter0_d_657_3350)">
<path fill-rule="evenodd" clip-rule="evenodd" d="M4.02061 272.978L4.11806 85.022L6.643 83.7682L6.6636 269.89L63.6344 269.89L63.6344 3.08801L6.66361 3.08801L6.643 83.7682L4 85.0807L4.02061 2.45734e-10L66.2774 7.4265e-07L66.2774 272.978L4.02061 272.978Z" fill="white" fill-opacity="0.72"/>
<path d="M29.7084 259.243L16.35 259.243C16.0575 259.243 15.8161 259.136 15.6223 258.919C15.4286 258.701 15.3336 258.431 15.3336 258.103L15.3336 244.577C15.3336 244.265 15.4323 243.998 15.6334 243.777C15.8308 243.556 16.0723 243.445 16.35 243.445L17.3592 243.445C17.6373 243.445 17.8748 243.552 18.0686 243.765C18.2662 243.978 18.3649 244.24 18.3649 244.552L18.3649 254.716L20.9576 254.716L20.9576 248.779C20.9576 246.836 21.3671 245.257 22.1825 244.048C23.0017 242.838 24.2156 242.236 25.8247 242.236C27.4373 242.236 28.6514 242.838 29.4706 244.048C30.286 245.257 30.6955 246.836 30.6955 248.779L30.6955 258.16C30.6955 258.468 30.6005 258.722 30.4103 258.931C30.2239 259.14 29.9898 259.243 29.7081 259.243L29.7084 259.243ZM27.6643 254.716L27.6643 248.779C27.6643 247.434 27.05 246.762 25.8213 246.762C24.5926 246.762 23.9782 247.434 23.9782 248.779L23.9782 254.716L27.6642 254.716L27.6643 254.716ZM27.4705 236.503L27.6643 234.486L27.6643 234.236C27.6643 232.641 26.7354 231.55 24.8778 230.968L24.8778 232.001C24.8778 234.019 24.512 235.593 23.7807 236.72C23.0493 237.848 21.8571 238.82 20.208 239.627L16.35 241.513C16.0648 241.649 15.8234 241.653 15.6259 241.522C15.4322 241.386 15.3334 241.165 15.3334 240.853L15.3334 238.319C15.3334 237.549 15.6588 237.016 16.3061 236.72L19.2865 235.339C20.1495 234.933 20.7931 234.42 21.2209 233.801C21.645 233.186 21.8571 232.374 21.8571 231.362L21.8571 229.886L16.328 227.713C16.0209 227.598 15.7795 227.405 15.6003 227.122C15.4211 226.843 15.3334 226.54 15.3334 226.212L15.3334 223.785C15.3334 223.473 15.4101 223.256 15.5638 223.137C15.7174 223.014 15.8526 222.957 15.9697 222.957C16.0866 222.957 16.1999 222.977 16.306 223.014L26.3038 226.93C27.7118 227.475 28.7941 228.295 29.5549 229.394C30.3156 230.493 30.6958 232.026 30.6958 233.994L30.6958 236.889C30.6958 237.2 30.5971 237.471 30.3996 237.692C30.2058 237.918 29.968 238.029 29.6902 238.029L28.4797 238.029C28.1982 238.029 27.9604 237.922 27.7666 237.705C27.5691 237.491 27.4704 237.217 27.4704 236.889L27.4704 236.503L27.4705 236.503ZM29.6902 223.785L28.659 223.785C28.381 223.785 28.1471 223.674 27.9531 223.453C27.7593 223.235 27.6643 222.969 27.6643 222.657L27.6643 221.718L19.5534 219.484C16.7413 218.709 15.3336 216.105 15.3336 211.677L15.3336 205.191C15.3336 204.879 15.4286 204.613 15.6223 204.391C15.8161 204.17 16.0502 204.059 16.3281 204.059L29.7084 204.059C29.99 204.059 30.2242 204.17 30.4106 204.391C30.6008 204.613 30.6958 204.879 30.6958 205.191L30.6958 222.657C30.6958 222.969 30.5971 223.236 30.3996 223.453C30.2058 223.674 29.968 223.785 29.6902 223.785ZM27.6643 217.093L27.6643 208.577L18.3651 208.577L18.3651 212.169C18.3651 212.932 18.5516 213.559 18.9208 214.055C19.2938 214.551 19.8094 214.892 20.4749 215.076L27.6643 217.093ZM29.6683 200.615L16.3281 200.615C16.0502 200.615 15.8163 200.505 15.6223 200.279C15.4286 200.054 15.3336 199.787 15.3336 199.475L15.3336 185.625C15.3336 185.313 15.4323 185.047 15.6334 184.826C15.8308 184.604 16.0723 184.494 16.35 184.494L17.3592 184.494C17.6373 184.494 17.8748 184.604 18.0686 184.826C18.2662 185.047 18.3649 185.313 18.3649 185.625L18.3649 196.089L21.4806 196.089L21.4806 187.077C21.4806 186.765 21.5794 186.499 21.7768 186.277C21.9743 186.06 22.212 185.949 22.4899 185.949L23.4955 185.949C23.7736 185.949 24.0111 186.06 24.2086 186.277C24.4061 186.499 24.505 186.765 24.505 187.077L24.505 196.089L27.6645 196.089L27.6645 185.65C27.6645 185.342 27.7595 185.084 27.9532 184.867C28.1471 184.653 28.3811 184.543 28.6592 184.543L29.6904 184.543C29.9683 184.543 30.206 184.653 30.3997 184.879C30.5972 185.104 30.696 185.371 30.696 185.683L30.696 199.475C30.696 199.787 30.5972 200.054 30.3997 200.279C30.206 200.505 29.9608 200.615 29.6683 200.615L29.6683 200.615ZM29.6683 182.284L16.3721 182.284C16.0796 182.284 15.8308 182.177 15.6334 181.96C15.4323 181.742 15.3336 181.48 15.3336 181.168L15.3336 176.277C15.3336 175.965 15.4323 175.67 15.6334 175.387C15.8308 175.108 16.0723 174.92 16.35 174.825L25.4994 171.279L16.35 167.737C16.0721 167.642 15.8307 167.453 15.6334 167.171C15.4323 166.892 15.3336 166.597 15.3336 166.285L15.3336 161.394C15.3336 161.082 15.4323 160.82 15.6334 160.607C15.8308 160.397 16.0796 160.291 16.3721 160.291L29.6683 160.291C29.9608 160.291 30.206 160.401 30.3997 160.619C30.5972 160.84 30.696 161.106 30.696 161.418L30.696 163.583C30.696 163.894 30.5972 164.161 30.3997 164.378C30.206 164.6 29.9608 164.71 29.6683 164.71L19.1988 164.71L29.7304 168.95C29.9975 169.061 30.2243 169.257 30.4108 169.54C30.601 169.819 30.696 170.114 30.696 170.426L30.696 172.144C30.696 172.46 30.601 172.751 30.4108 173.03C30.2243 173.304 29.9975 173.501 29.7304 173.624L19.1988 177.851L29.6683 177.851C29.9608 177.851 30.206 177.962 30.3997 178.183C30.5972 178.401 30.696 178.667 30.696 178.979L30.696 181.144C30.696 181.455 30.5972 181.722 30.3997 181.947C30.206 182.173 29.9608 182.284 29.6683 182.284ZM28.8857 146.986C27.6205 148.47 25.664 149.212 23.0203 149.212C20.3727 149.212 18.4163 148.47 17.1473 146.986C15.8819 145.501 15.2458 143.271 15.2458 140.298L15.2458 137.621C15.2458 135.805 15.67 134.197 16.511 132.799C17.3558 131.401 18.5078 130.704 19.9704 130.704C20.3946 130.704 20.6945 130.844 20.8773 131.122C21.0603 131.405 21.1516 131.676 21.1516 131.938L21.1516 133.369C21.1516 134.107 20.7566 134.677 19.9704 135.087C18.8442 135.677 18.2772 136.666 18.2772 138.043L18.2772 140.179C18.2772 141.934 18.6137 143.123 19.2867 143.746C19.9558 144.374 21.1991 144.685 23.013 144.685C24.8267 144.685 26.0737 144.374 26.7466 143.746C27.423 143.123 27.7595 141.934 27.7595 140.179L27.7595 137.789C27.7595 136.411 27.1964 135.432 26.0664 134.845C25.2765 134.439 24.8779 133.861 24.8779 133.119L24.8779 131.688C24.8779 131.311 25.0023 131.012 25.2546 130.794C25.5033 130.573 25.7739 130.462 26.0665 130.462C27.5328 130.462 28.6846 131.159 29.5221 132.553C30.3631 133.948 30.7801 135.551 30.7801 137.371L30.7801 140.299C30.7801 143.271 30.1512 145.502 28.8858 146.986L28.8857 146.986ZM17.3593 129.851L16.3502 129.851C16.0577 129.851 15.8163 129.745 15.6225 129.527C15.4287 129.314 15.3337 129.04 15.3337 128.711L15.3337 113.467C15.3337 113.139 15.4287 112.869 15.6225 112.651C15.8163 112.434 16.0577 112.327 16.3502 112.327L17.3593 112.327C17.6519 112.327 17.8933 112.434 18.0797 112.651C18.2699 112.869 18.3651 113.139 18.3651 113.467L18.3651 118.826L29.7084 118.826C29.99 118.826 30.2242 118.937 30.4106 119.154C30.6008 119.376 30.6958 119.642 30.6958 119.954L30.6958 122.225C30.6958 122.537 30.6008 122.803 30.4106 123.025C30.2242 123.246 29.99 123.353 29.7084 123.353L18.3651 123.353L18.3651 128.711C18.3651 129.039 18.2699 129.314 18.0797 129.527C17.8933 129.745 17.6519 129.851 17.3593 129.851L17.3593 129.851ZM29.6904 110.367L16.3502 110.367C16.0723 110.367 15.8309 110.261 15.6335 110.044C15.4325 109.826 15.3337 109.564 15.3337 109.252L15.3337 100.084C15.3337 95.2422 17.323 92.819 21.3052 92.819C25.2875 92.819 27.2769 95.242 27.2769 100.084L27.2769 105.841L29.6905 105.841C29.9684 105.841 30.2061 105.948 30.3999 106.169C30.5974 106.391 30.6961 106.657 30.6961 106.969L30.6961 109.228C30.6961 109.539 30.5974 109.806 30.3999 110.031C30.2061 110.257 29.9683 110.368 29.6905 110.368L29.6904 110.367ZM24.2453 105.841L24.2453 101.454C24.2453 100.109 24.0442 99.0881 23.6419 98.3911C23.2361 97.6942 22.4607 97.3456 21.3052 97.3456C20.1533 97.3456 19.3744 97.6941 18.9686 98.3911C18.5663 99.0883 18.3652 100.109 18.3652 101.454L18.3652 105.841L24.2454 105.841L24.2453 105.841ZM29.1051 74.713C30.3887 76.349 31.0287 78.7516 31.0287 81.9167C31.0287 85.0862 30.3887 87.4887 29.1051 89.133C27.8216 90.7731 25.7921 91.593 23.0128 91.593C20.2373 91.593 18.2077 90.7731 16.9277 89.133C15.6517 87.4887 15.0117 85.0862 15.0117 81.9167C15.0117 78.7516 15.6517 76.349 16.9277 74.713C18.2077 73.0729 20.2373 72.2529 23.0128 72.2529C25.7919 72.2529 27.8216 73.0729 29.1051 74.713ZM19.1878 77.9972C18.332 78.805 17.9042 80.1129 17.9042 81.9167C17.9042 83.7251 18.332 85.0329 19.1878 85.8449C20.047 86.6606 21.3233 87.0665 23.0201 87.0665C24.7168 87.0665 25.9894 86.6606 26.8452 85.8449C27.6972 85.0329 28.1251 83.7251 28.1251 81.9167C28.1251 80.1128 27.6972 78.805 26.8452 77.9972C25.9894 77.1894 24.7168 76.7834 23.0201 76.7834C21.3233 76.7834 20.047 77.1894 19.1878 77.9972ZM29.6902 69.793L16.35 69.793C16.0575 69.793 15.8161 69.6864 15.6223 69.4692C15.4286 69.2516 15.3336 68.9811 15.3336 68.6532L15.3336 66.5374C15.3336 66.2256 15.4286 65.9593 15.6223 65.7379C15.8161 65.5205 16.0502 65.4099 16.3281 65.4099L27.0537 65.4099L16.3502 58.5749C16.0723 58.3906 15.8309 58.1364 15.6335 57.8164C15.4325 57.4967 15.3337 57.2015 15.3337 56.9267L15.3337 53.3843C15.3337 53.0726 15.4325 52.8061 15.6335 52.5929C15.831 52.3756 16.0724 52.2691 16.3502 52.2691L29.6904 52.2691C29.9683 52.2691 30.206 52.3797 30.3997 52.6053C30.5972 52.8268 30.696 53.0973 30.696 53.409L30.696 55.5247C30.696 55.8362 30.5972 56.1029 30.3997 56.32C30.206 56.5415 29.9681 56.6521 29.6904 56.6521L19.7473 56.6521L29.6904 62.9212C29.9683 63.1057 30.206 63.3682 30.3997 63.7043C30.5972 64.0407 30.696 64.3645 30.696 64.6761L30.696 68.6533C30.696 68.965 30.5972 69.2315 30.3997 69.4569C30.206 69.6823 29.9681 69.7932 29.6904 69.7932L29.6902 69.793ZM17.3592 50.3092L16.35 50.3092C16.0575 50.3092 15.8161 50.2029 15.6223 49.9854C15.4286 49.7723 15.3336 49.4975 15.3336 49.1696L15.3336 33.9256C15.3336 33.5974 15.4286 33.3268 15.6223 33.1095C15.8161 32.8921 16.0575 32.7856 16.35 32.7856L17.3592 32.7856C17.6517 32.7856 17.8931 32.8922 18.0796 33.1095C18.2698 33.3268 18.3649 33.5973 18.3649 33.9256L18.3649 39.2843L29.7083 39.2843C29.9899 39.2843 30.224 39.3949 30.4105 39.6122C30.6007 39.8337 30.6957 40.1001 30.6957 40.4117L30.6957 42.6831C30.6957 42.9949 30.6007 43.2615 30.4105 43.4827C30.224 43.7042 29.9899 43.8108 29.7083 43.8108L18.3649 43.8108L18.3649 49.1695C18.3649 49.4974 18.2698 49.7723 18.0796 49.9852C17.8931 50.2027 17.6517 50.3091 17.3592 50.3091L17.3592 50.3092ZM29.6682 30.8256L16.35 30.8256C16.0575 30.8256 15.8161 30.7189 15.6223 30.5017C15.4286 30.2843 15.3336 30.0139 15.3336 29.686L15.3336 27.4267C15.3336 27.115 15.4323 26.8484 15.6334 26.6272C15.8309 26.4057 16.0723 26.2991 16.35 26.2991L20.559 26.2991L20.559 20.3621C20.559 18.4721 21.0088 16.9098 21.9012 15.6716C22.7935 14.4332 24.0367 13.8183 25.6275 13.8183C27.2218 13.8183 28.4651 14.4374 29.3575 15.6798C30.2498 16.9178 30.6958 18.4802 30.6958 20.362L30.6958 29.743C30.6958 30.0422 30.5935 30.2963 30.3923 30.5056C30.1875 30.7189 29.9461 30.8256 29.6682 30.8256ZM27.6642 26.299L27.6642 20.362C27.6642 19.0173 26.9841 18.3448 25.6238 18.3448C24.2634 18.3448 23.5831 19.0173 23.5831 20.362L23.5831 26.299L27.6642 26.299Z" fill="white" fill-opacity="0.72"/>
<path d="M49.9525 256.533L49.9525 255.252C49.9525 253.545 49.4525 252.691 48.4527 252.691C48.1402 252.691 47.8834 252.764 47.6827 252.908C47.4818 253.053 47.3256 253.242 47.214 253.476C47.1022 253.71 47.0242 253.982 46.9796 254.292C46.935 254.602 46.9126 254.929 46.9126 255.273C46.9126 255.48 46.9171 255.69 46.9259 255.903C46.935 256.116 46.9483 256.326 46.9663 256.533L49.9525 256.533ZM50.9166 256.533L54.2642 256.533C54.291 256.271 54.3133 256.013 54.3312 255.758C54.3492 255.504 54.3579 255.252 54.3579 255.004C54.3579 254.619 54.3312 254.254 54.2776 253.91C54.224 253.566 54.1348 253.266 54.0097 253.011C53.8847 252.756 53.713 252.557 53.4942 252.412C53.2755 252.268 53.0054 252.196 52.684 252.196C52.1306 252.196 51.6976 252.426 51.3851 252.888C51.0727 253.349 50.9164 254.068 50.9164 255.046L50.9164 256.533L50.9166 256.533ZM46.136 258.392C46.0646 257.91 46.0088 257.417 45.9687 256.915C45.9284 256.412 45.9085 255.913 45.9085 255.418C45.9085 254.798 45.9462 254.209 46.0222 253.652C46.0982 253.094 46.2277 252.602 46.4106 252.175C46.5936 251.748 46.8346 251.408 47.1337 251.153C47.4327 250.898 47.8055 250.771 48.2518 250.771C48.8053 250.771 49.2584 250.95 49.611 251.308C49.9636 251.666 50.2248 252.127 50.3944 252.691C50.573 251.989 50.8451 251.411 51.2113 250.957C51.5773 250.502 52.0817 250.275 52.7244 250.275C53.2065 250.275 53.6128 250.396 53.9431 250.636C54.2734 250.878 54.5434 251.218 54.7532 251.659C54.963 252.099 55.1148 252.626 55.2085 253.239C55.3023 253.851 55.3491 254.522 55.3491 255.252C55.3491 255.734 55.3313 256.237 55.2954 256.76C55.2598 257.283 55.2061 257.827 55.1347 258.391L46.1361 258.391L46.136 258.392ZM55.4827 243.026C55.4827 244.706 55.0766 245.993 54.2642 246.888C53.4519 247.783 52.1976 248.231 50.5014 248.231C49.6355 248.231 48.9035 248.103 48.3053 247.848C47.7072 247.594 47.2207 247.239 46.8458 246.785C46.4709 246.33 46.2008 245.793 46.0357 245.174C45.8705 244.554 45.788 243.88 45.788 243.15C45.788 242.544 45.8392 241.98 45.942 241.457C46.0446 240.933 46.1716 240.506 46.3235 240.176L47.3278 240.734C47.185 241.064 47.0689 241.419 46.9796 241.797C46.8903 242.176 46.8458 242.613 46.8458 243.109C46.8458 244.21 47.1426 245.009 47.7363 245.504C48.3298 246 49.2517 246.248 50.5015 246.248C51.7602 246.248 52.7288 245.986 53.4074 245.463C54.0859 244.94 54.425 244.086 54.425 242.902C54.425 242.338 54.3804 241.88 54.2912 241.529C54.2019 241.178 54.086 240.837 53.9431 240.507L54.8937 239.99C55.0546 240.307 55.1929 240.723 55.3089 241.24C55.4249 241.756 55.4829 242.352 55.4829 243.026L55.4827 243.026ZM55.282 237.945L46.0022 237.945L46.0022 231.522L47.0333 231.522L47.0333 236.087L49.9122 236.087L49.9122 231.956L50.9166 231.956L50.9166 236.087L54.2509 236.087L54.2509 231.192L55.282 231.192L55.282 237.945ZM44.9977 236.459C44.9977 236.775 44.9286 237.047 44.7902 237.274C44.6517 237.501 44.4665 237.615 44.2346 237.615C44.0023 237.615 43.8171 237.501 43.6789 237.274C43.5405 237.047 43.4713 236.775 43.4713 236.459C43.4713 236.142 43.5405 235.87 43.6789 235.643C43.8173 235.416 44.0023 235.302 44.2346 235.302C44.4667 235.302 44.6517 235.416 44.7902 235.643C44.9286 235.87 44.9977 236.142 44.9977 236.459ZM44.9977 233.03C44.9977 233.347 44.9286 233.619 44.7902 233.846C44.6517 234.073 44.4665 234.186 44.2346 234.186C44.0023 234.186 43.8171 234.073 43.6789 233.846C43.5405 233.619 43.4713 233.347 43.4713 233.03C43.4713 232.714 43.5405 232.442 43.6789 232.214C43.8173 231.987 44.0023 231.874 44.2346 231.874C44.4667 231.874 44.6517 231.987 44.7902 232.214C44.9286 232.442 44.9977 232.714 44.9977 233.03ZM57.7592 216.632L55.282 216.632L55.282 224.356L57.7592 224.356L57.7592 226.132L54.2642 226.132L54.2642 224.872C53.8178 224.446 53.3269 224.098 52.7912 223.83C52.2554 223.561 51.6753 223.351 51.0502 223.2C50.4254 223.048 49.7537 222.949 49.0349 222.9C48.3163 222.852 47.5419 222.828 46.7117 222.828L46.0019 222.828L46.0019 216.219L54.2639 216.219L54.2639 214.856L57.7589 214.856L57.7589 216.632L57.7592 216.632ZM47.0331 220.969C48.4793 220.969 49.8073 221.09 51.0169 221.331C52.2265 221.572 53.3091 222.057 54.2642 222.787L54.2642 218.078L47.0333 218.078L47.0333 220.969L47.0331 220.969ZM46.0021 203.559L55.2818 203.559L55.2818 205.418L47.0195 205.418L47.0195 208.413L47.6221 208.413C48.0775 208.413 48.5416 208.423 49.0148 208.444C49.4879 208.464 49.9587 208.506 50.4274 208.568C50.8962 208.63 51.358 208.719 51.8134 208.836C52.2687 208.953 52.7016 209.101 53.1123 209.28C53.8712 209.611 54.4448 210.117 54.8332 210.798C55.2214 211.48 55.4156 212.344 55.4156 213.39L54.3845 213.576C54.3222 212.984 54.1838 212.481 53.9695 212.068C53.7553 211.655 53.3804 211.311 52.8446 211.036C52.4697 210.843 52.068 210.691 51.6394 210.581C51.2111 210.471 50.7713 210.392 50.3205 210.344C49.8697 210.295 49.4144 210.265 48.9547 210.251C48.4949 210.237 48.0509 210.23 47.6223 210.23L46.0021 210.23L46.0021 203.559L46.0021 203.559ZM55.2818 192.944L55.2818 194.761L51.6663 194.761L51.6663 195.278C51.6663 195.512 51.662 195.746 51.653 195.98C51.644 196.214 51.6306 196.441 51.6129 196.661C51.8271 196.854 52.0904 197.075 52.4028 197.322C52.7154 197.57 53.0389 197.818 53.3737 198.066C53.7085 198.314 54.0432 198.548 54.3781 198.775C54.713 199.002 55.0141 199.191 55.282 199.343L55.282 201.205C54.9338 201.04 54.5656 200.83 54.1772 200.575C53.7889 200.32 53.414 200.059 53.0524 199.79C52.6908 199.522 52.3562 199.264 52.0481 199.016C51.7401 198.768 51.4924 198.562 51.3049 198.396C51.0994 199.03 50.7983 199.532 50.4011 199.904C50.0037 200.276 49.4705 200.461 48.8009 200.461C48.3188 200.461 47.897 200.348 47.5354 200.121C47.1738 199.894 46.8727 199.573 46.6316 199.16C46.3904 198.747 46.2097 198.252 46.0892 197.673C45.9689 197.095 45.9086 196.448 45.9086 195.732C45.9086 194.837 45.9843 193.908 46.1361 192.944L55.2821 192.944L55.2818 192.944ZM47.0062 194.761C46.9795 195.078 46.9662 195.408 46.9662 195.753C46.9662 196.166 46.9973 196.541 47.0599 196.878C47.1223 197.216 47.2227 197.505 47.3611 197.746C47.4996 197.987 47.6871 198.173 47.9237 198.303C48.1602 198.434 48.4526 198.499 48.8007 198.499C49.4882 198.499 49.9725 198.245 50.2537 197.735C50.5349 197.226 50.6754 196.496 50.6754 195.546L50.6754 194.762L47.0064 194.762L47.0062 194.761ZM55.4826 180.842C55.4826 182.522 55.0765 183.809 54.2641 184.704C53.4518 185.599 52.1975 186.046 50.5013 186.046C49.6353 186.046 48.9034 185.919 48.3052 185.664C47.707 185.409 47.2206 185.055 46.8457 184.6C46.4707 184.146 46.2007 183.609 46.0355 182.989C45.8704 182.37 45.7878 181.695 45.7878 180.965C45.7878 180.36 45.8391 179.795 45.9418 179.272C46.0444 178.749 46.1715 178.322 46.3233 177.992L47.3276 178.549C47.1848 178.879 47.0688 179.234 46.9795 179.613C46.8902 179.991 46.8457 180.429 46.8457 180.924C46.8457 182.026 47.1425 182.824 47.7362 183.32C48.3296 183.816 49.2515 184.063 50.5014 184.063C51.76 184.063 52.7287 183.802 53.4073 183.278C54.0857 182.755 54.4249 181.902 54.4249 180.718C54.4249 180.153 54.3802 179.695 54.2911 179.344C54.2018 178.993 54.0859 178.652 53.9429 178.322L54.8936 177.806C55.0544 178.122 55.1928 178.539 55.3087 179.055C55.4248 179.571 55.4827 180.167 55.4827 180.841L55.4826 180.842ZM46.0021 168.471L47.0331 168.471L47.0331 171.651L55.2818 171.651L55.2818 173.51L47.0331 173.51L47.0331 176.691L46.0021 176.691L46.0021 168.471ZM46.1359 166.447C45.984 165.483 45.9083 164.54 45.9083 163.618C45.9083 162.902 45.9641 162.251 46.0756 161.666C46.1871 161.081 46.3612 160.578 46.5979 160.158C46.8345 159.739 47.1402 159.415 47.5151 159.188C47.8902 158.961 48.3408 158.847 48.8676 158.847C49.4032 158.847 49.8607 158.964 50.2401 159.198C50.6195 159.432 50.9276 159.763 51.1641 160.189C51.4007 160.616 51.5725 161.129 51.6797 161.728C51.7868 162.327 51.8404 162.991 51.8404 163.721L51.8404 164.589L55.2818 164.589L55.2818 166.447L46.1359 166.447L46.1359 166.447ZM50.7825 164.588L50.7825 163.845C50.7825 163.377 50.749 162.953 50.682 162.575C50.6149 162.196 50.5057 161.876 50.3539 161.614C50.202 161.353 50.0057 161.153 49.7647 161.015C49.5236 160.878 49.2246 160.809 48.8674 160.809C48.5104 160.809 48.209 160.878 47.9636 161.015C47.718 161.153 47.5217 161.343 47.3744 161.583C47.227 161.824 47.1221 162.117 47.0597 162.461C46.9972 162.805 46.966 163.184 46.966 163.597C46.966 163.955 46.9793 164.285 47.0061 164.588L50.7823 164.588L50.7825 164.588ZM50.6487 146.724C51.3718 146.724 52.0301 146.824 52.6236 147.023C53.2174 147.223 53.7261 147.533 54.1501 147.953C54.5743 148.373 54.9023 148.903 55.1344 149.543C55.3665 150.183 55.4826 150.937 55.4826 151.804C55.4826 152.671 55.3665 153.425 55.1344 154.065C54.9023 154.706 54.5743 155.236 54.1501 155.656C53.7261 156.076 53.2174 156.389 52.6236 156.595C52.0299 156.802 51.3716 156.905 50.6487 156.905C49.9254 156.905 49.2648 156.802 48.6668 156.595C48.0686 156.389 47.5575 156.076 47.1334 155.656C46.7094 155.236 46.3791 154.706 46.1426 154.065C45.906 153.425 45.7878 152.671 45.7878 151.804C45.7878 150.937 45.906 150.183 46.1426 149.543C46.3791 148.902 46.7094 148.373 47.1334 147.953C47.5575 147.533 48.0686 147.223 48.6668 147.023C49.2648 146.824 49.9254 146.724 50.6487 146.724ZM50.6487 148.706C50.0861 148.706 49.5728 148.762 49.1087 148.872C48.6445 148.982 48.2449 149.161 47.9102 149.409C47.5753 149.656 47.3143 149.977 47.1269 150.369C46.9394 150.761 46.8457 151.24 46.8457 151.804C46.8457 152.369 46.9394 152.847 47.1269 153.24C47.3143 153.632 47.5753 153.952 47.9102 154.2C48.2451 154.448 48.6446 154.63 49.1087 154.747C49.5729 154.864 50.0861 154.923 50.6487 154.923C51.2111 154.923 51.7244 154.864 52.1885 154.747C52.6528 154.63 53.0501 154.448 53.3804 154.2C53.7107 153.952 53.9673 153.632 54.1503 153.24C54.3335 152.847 54.4248 152.369 54.4248 151.804C54.4248 151.24 54.3333 150.761 54.1503 150.369C53.9673 149.977 53.7108 149.656 53.3804 149.409C53.0501 149.161 52.6528 148.982 52.1885 148.872C51.7242 148.762 51.2111 148.706 50.6487 148.706ZM55.2818 143.833L46.0021 143.833L46.0021 142.098L52.6571 142.098C51.577 141.382 50.499 140.6 49.4232 139.75C48.3475 138.896 47.2071 137.909 46.0019 136.783L46.0019 135.303L55.2817 135.303L55.2817 137.038L48.1712 137.038C48.6979 137.506 49.267 137.981 49.8786 138.463C50.4901 138.945 51.1062 139.416 51.7264 139.878C52.3469 140.339 52.9628 140.779 53.5744 141.2C54.1859 141.619 54.755 141.994 55.2818 142.325L55.2818 143.833ZM44.2746 139.434C44.2746 139.062 44.1987 138.773 44.0471 138.566C43.8953 138.359 43.6497 138.215 43.3105 138.132L43.498 136.831C44.0782 136.969 44.4934 137.272 44.7433 137.74C44.9932 138.208 45.1182 138.773 45.1182 139.434C45.1182 140.095 44.9932 140.659 44.7433 141.127C44.4934 141.595 44.0782 141.898 43.498 142.036L43.3105 140.735C43.6497 140.652 43.8953 140.507 44.0471 140.301C44.1988 140.095 44.2746 139.805 44.2746 139.434ZM46.0021 123.655C46.3056 123.958 46.6403 124.299 47.0041 124.677C47.37 125.056 47.7472 125.445 48.1355 125.841C48.5238 126.24 48.9034 126.643 49.2783 127.049C49.6532 127.455 50.0014 127.844 50.3227 128.216C50.5906 127.803 50.9276 127.355 51.3337 126.874C51.74 126.392 52.1706 125.917 52.6215 125.449C53.0723 124.984 53.5298 124.543 53.994 124.13C54.4605 123.717 54.889 123.387 55.2818 123.139L55.2818 125.225C54.8711 125.514 54.4494 125.848 54.0208 126.226C53.5922 126.605 53.1793 127.004 52.7799 127.424C52.3825 127.844 52.0144 128.271 51.6751 128.705C51.3337 129.139 51.0481 129.562 50.8159 129.975L55.2818 129.975L55.2818 131.834L46.0021 131.834L46.0021 129.975L50.093 129.975C49.7983 129.617 49.4635 129.238 49.091 128.839C48.716 128.44 48.341 128.044 47.9683 127.652C47.5934 127.259 47.2339 126.891 46.8903 126.547C46.5489 126.203 46.2521 125.914 46.0021 125.68L46.0021 123.656L46.0021 123.655ZM55.2818 121.198L46.0021 121.198L46.0021 119.463L52.6571 119.463C51.577 118.747 50.499 117.966 49.4232 117.116C48.3475 116.262 47.2071 115.274 46.0019 114.149L46.0019 112.668L55.2817 112.668L55.2817 114.403L48.1712 114.403C48.6979 114.871 49.267 115.346 49.8786 115.828C50.4901 116.31 51.1062 116.782 51.7264 117.243C52.3469 117.704 52.9628 118.145 53.5744 118.565C54.1859 118.985 54.755 119.36 55.2818 119.69L55.2818 121.198ZM55.2818 105.172L46.0021 105.172L46.0021 103.437L52.6571 103.437C51.577 102.721 50.499 101.939 49.4233 101.089C48.3475 100.235 47.2071 99.2477 46.0019 98.1223L46.0019 96.6422L55.2817 96.6422L55.2817 98.377L48.1712 98.377C48.6979 98.8452 49.267 99.3202 49.8786 99.8019C50.4901 100.284 51.1062 100.756 51.7264 101.217C52.3469 101.678 52.9628 102.119 53.5744 102.539C54.1859 102.959 54.755 103.334 55.2818 103.664L55.2818 105.172L55.2818 105.172ZM46.1359 89.1454C45.984 88.1814 45.9083 87.2384 45.9083 86.3161C45.9083 85.5999 45.9641 84.9496 46.0756 84.3645C46.1871 83.7793 46.3612 83.2768 46.5979 82.8567C46.8345 82.4369 47.1402 82.1133 47.5151 81.8861C47.8902 81.6589 48.3408 81.5454 48.8676 81.5454C49.4032 81.5454 49.8607 81.6625 50.2401 81.8965C50.6195 82.1305 50.9276 82.4611 51.1641 82.8878C51.4007 83.3145 51.5725 83.8273 51.6797 84.4263C51.7868 85.0254 51.8404 85.6896 51.8404 86.4195L51.8404 87.2867L55.2818 87.2867L55.2818 89.1454L46.1359 89.1454ZM50.7825 87.2867L50.7825 86.543C50.7825 86.075 50.749 85.6516 50.682 85.2731C50.6149 84.8945 50.5057 84.5743 50.3539 84.3129C50.202 84.0512 50.0057 83.8514 49.7647 83.7138C49.5236 83.5763 49.2246 83.5074 48.8674 83.5074C48.5104 83.5074 48.209 83.5761 47.9636 83.7138C47.718 83.8514 47.5217 84.041 47.3744 84.2817C47.227 84.5227 47.1221 84.8153 47.0597 85.1593C46.9972 85.5036 46.966 85.8822 46.966 86.2953C46.966 86.6533 46.9793 86.9836 47.0061 87.2867L50.7823 87.2867L50.7825 87.2867ZM55.2818 79.1289L46.0021 79.1289L46.0021 72.7056L47.0331 72.7056L47.0331 77.27L49.9121 77.27L49.9121 73.1395L50.9164 73.1395L50.9164 77.27L54.2507 77.27L54.2507 72.3753L55.2818 72.3753L55.2818 79.1289ZM53.9963 64.7341C53.3535 65.0094 52.7376 65.2915 52.1482 65.5806C51.5591 65.8698 51.0033 66.1486 50.4811 66.4172C49.9587 66.6854 49.4835 66.9438 49.0549 67.1916C48.6263 67.4394 48.2514 67.6667 47.9301 67.8731C48.4388 67.9282 48.9991 67.9729 49.6106 68.0074C50.2221 68.0417 50.8493 68.0761 51.492 68.1106C52.1347 68.1449 52.7798 68.1726 53.4269 68.1932C54.0742 68.2137 54.6924 68.2308 55.2815 68.2448L55.2815 70.0209C54.478 69.9796 53.6679 69.9382 52.8512 69.8971C52.0342 69.8557 51.2308 69.8041 50.4407 69.7419C49.6507 69.6799 48.8808 69.6112 48.1307 69.5355C47.3809 69.4596 46.6712 69.3737 46.0018 69.2774L46.0018 67.4461C46.3856 67.1984 46.8431 66.9161 47.3743 66.596C47.9053 66.2795 48.4612 65.9593 49.0415 65.6358C49.6216 65.3123 50.2019 64.999 50.7822 64.6926C51.3623 64.3897 51.8937 64.128 52.3756 63.9078C51.8937 63.6874 51.3625 63.4328 50.7822 63.1437C50.2017 62.8545 49.6216 62.5552 49.0415 62.2386C48.461 61.9217 47.9053 61.6087 47.3743 61.2988C46.8431 60.9891 46.3856 60.7103 46.0018 60.4624L46.0018 58.6209C46.6712 58.5243 47.381 58.4384 48.1307 58.3625C48.8808 58.2867 49.6507 58.2179 50.4407 58.1561C51.2307 58.0941 52.0342 58.0426 52.8512 58.0011C53.668 57.9597 54.4781 57.9184 55.2815 57.8771L55.2815 59.6532C54.6924 59.6809 54.0719 59.7048 53.4202 59.7257C52.7685 59.7462 52.1146 59.7739 51.4585 59.8083C50.8022 59.8426 50.1641 59.8804 49.5436 59.9218C48.9231 59.9632 48.3541 60.0112 47.8362 60.0664C48.0593 60.1904 48.3384 60.3452 48.6731 60.5312C49.008 60.7172 49.3717 60.9097 49.7644 61.1095C50.1571 61.3089 50.5612 61.5157 50.9762 61.729C51.3914 61.9424 51.7908 62.1418 52.1747 62.3278C52.5585 62.5138 52.909 62.6792 53.226 62.8236C53.5428 62.9682 53.7995 63.0817 53.996 63.1645L53.996 64.7341L53.9963 64.7341ZM50.6487 45.1141C51.3718 45.1141 52.0301 45.214 52.6236 45.4134C53.2174 45.6131 53.7261 45.9228 54.1501 46.3431C54.5743 46.7629 54.9023 47.2928 55.1344 47.9332C55.3665 48.5732 55.4826 49.3273 55.4826 50.1945C55.4826 51.062 55.3665 51.8157 55.1344 52.4557C54.9023 53.0962 54.5743 53.626 54.1501 54.0462C53.7261 54.466 53.2174 54.7791 52.6236 54.9857C52.0299 55.1924 51.3716 55.2956 50.6487 55.2956C49.9254 55.2956 49.2648 55.1924 48.6668 54.9857C48.0686 54.7791 47.5575 54.466 47.1334 54.0462C46.7094 53.626 46.3791 53.096 46.1426 52.4557C45.906 51.8157 45.7878 51.0618 45.7878 50.1945C45.7878 49.3273 45.906 48.5732 46.1426 47.9332C46.3791 47.2928 46.7094 46.7629 47.1334 46.3431C47.5575 45.9229 48.0686 45.6133 48.6668 45.4134C49.2648 45.214 49.9254 45.1141 50.6487 45.1141ZM50.6487 47.0965C50.0861 47.0965 49.5728 47.1519 49.1087 47.2619C48.6445 47.3721 48.2449 47.551 47.9102 47.7988C47.5753 48.0465 47.3143 48.3667 47.1269 48.759C46.9394 49.1513 46.8457 49.63 46.8457 50.1945C46.8457 50.7591 46.9394 51.2374 47.1269 51.6299C47.3143 52.0222 47.5753 52.3424 47.9102 52.5901C48.2451 52.8379 48.6446 53.0205 49.1087 53.1376C49.5729 53.2545 50.0861 53.313 50.6487 53.313C51.2111 53.313 51.7244 53.2545 52.1885 53.1376C52.6528 53.0205 53.0501 52.8379 53.3804 52.5901C53.7107 52.3424 53.9673 52.0222 54.1503 51.6299C54.3335 51.2376 54.4248 50.7591 54.4248 50.1945C54.4248 49.63 54.3333 49.1515 54.1503 48.759C53.9673 48.3667 53.7108 48.0465 53.3804 47.7988C53.0501 47.551 52.6528 47.3721 52.1885 47.2619C51.7242 47.1518 51.2111 47.0965 50.6487 47.0965ZM46.0021 35.6553L46.0021 33.7966L55.2818 33.7966L55.2818 35.6553L50.9699 35.6553L50.9699 40.3642L55.2818 40.3642L55.2818 42.223L46.0021 42.223L46.0021 40.3642L49.9254 40.3642L49.9254 35.6553L46.0021 35.6553ZM46.0021 23.5529L47.0331 23.5529L47.0331 26.7335L55.2818 26.7335L55.2818 28.5921L47.0331 28.5921L47.0331 31.7726L46.0021 31.7726L46.0021 23.5529ZM46.0021 17.6982C46.6694 17.3678 47.3457 17.0406 48.0286 16.7171C48.7114 16.3969 49.4278 16.0803 50.1777 15.7707C50.9276 15.4608 51.7221 15.151 52.5613 14.841C53.4027 14.5314 54.3087 14.2215 55.2818 13.9082L55.2818 15.767C54.8801 15.8738 54.4829 15.9838 54.09 16.101C53.6971 16.2178 53.3044 16.3349 52.9117 16.459L52.9117 20.9713C53.3044 21.1126 53.6972 21.2363 54.09 21.3465C54.4827 21.4566 54.88 21.5669 55.2818 21.6736L55.2818 23.4702C54.3087 23.1674 53.4027 22.8543 52.5634 22.5377C51.7244 22.2207 50.932 21.9043 50.1821 21.5945C49.4323 21.2848 48.7159 20.9645 48.0329 20.641C47.35 20.3175 46.6738 19.987 46.0021 19.6564L46.0021 17.6981L46.0021 17.6982ZM47.3678 18.7101C48.111 19.044 48.8564 19.371 49.6063 19.6876C50.3562 20.0078 51.1216 20.3104 51.9073 20.5996L51.9073 16.8513C51.1216 17.1265 50.354 17.4225 49.6041 17.736C48.8543 18.0525 48.1087 18.376 47.3678 18.7101Z" fill="white" fill-opacity="0.72"/>
<path fill-rule="evenodd" clip-rule="evenodd" d="M36.9063 258.667L36.9063 14.3308C36.9063 13.8423 37.2861 13.4429 37.7506 13.4429C38.2151 13.4429 38.5949 13.8423 38.5949 14.3308L38.5949 258.667C38.5949 259.156 38.2151 259.555 37.7506 259.555C37.286 259.555 36.9063 259.156 36.9063 258.667Z" fill="white" fill-opacity="0.72"/>
</g>
<defs>
<filter id="filter0_d_657_3350" x="0" y="0" width="70.2773" height="280.978" filterUnits="userSpaceOnUse" color-interpolation-filters="sRGB">
<feFlood flood-opacity="0" result="BackgroundImageFix"/>
<feColorMatrix in="SourceAlpha" type="matrix" values="0 0 0 0 0 0 0 0 0 0 0 0 0 0 0 0 0 0 127 0" result="hardAlpha"/>
<feOffset dy="4"/>
<feGaussianBlur stdDeviation="2"/>
<feComposite in2="hardAlpha" operator="out"/>
<feColorMatrix type="matrix" values="0 0 0 0 0 0 0 0 0 0 0 0 0 0 0 0 0 0 0.25 0"/>
<feBlend mode="normal" in2="BackgroundImageFix" result="effect1_dropShadow_657_3350"/>
<feBlend mode="normal" in="SourceGraphic" in2="effect1_dropShadow_657_3350" result="shape"/>
</filter>
</defs>
</svg>
